<?xml version="1.0" encoding="UTF-8"?>
<!DOCTYPE svg PUBLIC "-//W3C//DTD SVG 1.1//EN" "http://www.w3.org/Graphics/SVG/1.1/DTD/svg11.dtd">
<!-- Creator: CorelDRAW 2018 (64-Bit) -->
<svg xmlns="http://www.w3.org/2000/svg" xml:space="preserve" width="8.4666mm" height="8.4845mm" version="1.1" style="shape-rendering:geometricPrecision; text-rendering:geometricPrecision; image-rendering:optimizeQuality; fill-rule:evenodd; clip-rule:evenodd"
viewBox="0 0 12.62 12.65"
 xmlns:xlink="http://www.w3.org/1999/xlink">
 <defs>
  <style type="text/css">
   <![CDATA[
    .fil0 {fill:#FEFEFE}
   ]]>
  </style>
 </defs>
 <g id="Слой_x0020_1">
  <metadata id="CorelCorpID_0Corel-Layer"/>
  <g id="_2169485883072">
   <g>
    <g>
     <path class="fil0" d="M12.29 9.28l-1.76 -1.76c-0.63,-0.63 -1.7,-0.38 -1.95,0.44 -0.19,0.57 -0.82,0.88 -1.39,0.76 -1.26,-0.32 -2.96,-1.95 -3.28,-3.28 -0.19,-0.57 0.19,-1.2 0.76,-1.39 0.82,-0.25 1.07,-1.32 0.44,-1.95l-1.76 -1.76c-0.5,-0.44 -1.26,-0.44 -1.7,0l-1.2 1.2c-1.2,1.26 0.13,4.6 3.09,7.56 2.96,2.96 6.3,4.35 7.56,3.09l1.2 -1.2c0.44,-0.5 0.44,-1.26 0,-1.7z"/>
    </g>
   </g>
   <g>
   </g>
   <g>
   </g>
   <g>
   </g>
   <g>
   </g>
   <g>
   </g>
   <g>
   </g>
   <g>
   </g>
   <g>
   </g>
   <g>
   </g>
   <g>
   </g>
   <g>
   </g>
   <g>
   </g>
   <g>
   </g>
   <g>
   </g>
   <g>
   </g>
  </g>
 </g>
</svg>
