<?xml version="1.0" encoding="UTF-8"?>
<!DOCTYPE svg PUBLIC "-//W3C//DTD SVG 1.1//EN" "http://www.w3.org/Graphics/SVG/1.1/DTD/svg11.dtd">
<!-- Creator: CorelDRAW 2018 (64-Bit) -->
<svg xmlns="http://www.w3.org/2000/svg" xml:space="preserve" width="26.0088mm" height="26.0088mm" version="1.1" style="shape-rendering:geometricPrecision; text-rendering:geometricPrecision; image-rendering:optimizeQuality; fill-rule:evenodd; clip-rule:evenodd"
viewBox="0 0 43.91 43.91"
 xmlns:xlink="http://www.w3.org/1999/xlink">
 <defs>
  <style type="text/css">
   <![CDATA[
    .fil2 {fill:#FDB44B}
    .fil3 {fill:white}
    .fil0 {fill:white;fill-opacity:0.200000}
    .fil1 {fill:white;fill-opacity:0.501961}
   ]]>
  </style>
 </defs>
 <g id="Слой_x0020_1">
  <metadata id="CorelCorpID_0Corel-Layer"/>
  <path class="fil0" d="M21.96 43.91c12.13,0 21.96,-9.83 21.96,-21.96 0,-12.13 -9.83,-21.96 -21.96,-21.96 -12.13,0 -21.96,9.83 -21.96,21.96 0,12.13 9.83,21.96 21.96,21.96z"/>
  <path class="fil1" d="M21.96 38.82c9.31,0 16.86,-7.55 16.86,-16.86 0,-9.31 -7.55,-16.86 -16.86,-16.86 -9.31,0 -16.86,7.55 -16.86,16.86 0,9.31 7.55,16.86 16.86,16.86z"/>
  <circle class="fil2" cx="21.96" cy="21.96" r="11.66"/>
  <rect class="fil3" x="18.89" y="21.24" width="6.13" height="1.43" rx="54.1" ry="75.1"/>
 </g>
</svg>
