<?xml version="1.0" encoding="UTF-8"?>
<!DOCTYPE svg PUBLIC "-//W3C//DTD SVG 1.1//EN" "http://www.w3.org/Graphics/SVG/1.1/DTD/svg11.dtd">
<!-- Creator: CorelDRAW 2018 (64-Bit) -->
<svg xmlns="http://www.w3.org/2000/svg" xml:space="preserve" width="33.9502mm" height="33.9362mm" version="1.1" style="shape-rendering:geometricPrecision; text-rendering:geometricPrecision; image-rendering:optimizeQuality; fill-rule:evenodd; clip-rule:evenodd"
viewBox="0 0 509.82 509.61"
 xmlns:xlink="http://www.w3.org/1999/xlink">
 <defs>
  <style type="text/css">
   <![CDATA[
    .fil0 {fill:#FDB44B}
   ]]>
  </style>
 </defs>
 <g id="Слой_x0020_1">
  <metadata id="CorelCorpID_0Corel-Layer"/>
  <g id="_2882345364544">
   <g>
    <path class="fil0" d="M118.32 77.75c-64.36,42.91 -117.26,78.81 -117.68,79.77 -0.32,0.96 -0.64,23.26 -0.64,49.49l0 47.69 8.5 0 8.5 0 0 -44.4 0 -44.5 110.46 -73.61 110.46 -73.61 110.46 73.61 110.46 73.61 0 61.5 0 61.39 -25.49 0 -25.49 0 0 -33.99 0 -33.99 5.84 0c4.88,0 6.37,-0.42 8.5,-2.65 2.65,-2.55 2.65,-2.76 2.65,-22.84 0,-20.07 0,-20.29 -2.65,-22.84l-2.55 -2.65 -181.73 0 -181.73 0 -2.55 2.65c-2.65,2.55 -2.65,2.76 -2.65,22.84 0,20.07 0,20.29 2.65,22.84 2.12,2.23 3.61,2.65 8.5,2.65l5.84 0 0 50.98 0 50.98 -14.34 0c-13.91,0 -14.55,0.11 -16.99,2.65l-2.66 2.55 0 82.42 0 82.31 -8.5 0 -8.5 0 0 -93.47 0 -93.47 -8.5 0 -8.5 0 0 99.31 0 99.41 2.65 2.55 2.55 2.65 252.36 0 252.25 0 0 -8.5 0 -8.5 -16.78 0 -16.89 0 3.61 -7.01c1.91,-3.93 3.5,-7.75 3.5,-8.5 0,-1.17 2.34,-1.49 10.62,-1.49 9.98,0 10.94,-0.21 13.28,-2.65l2.66 -2.55 0 -49.28 0 -49.28 -16.99 -38.34 -16.99 -38.24 0 -67.98c0,-37.39 -0.32,-68.83 -0.64,-69.78 -1.06,-2.76 -233.03,-156.98 -236.75,-157.51 -2.76,-0.21 -20.5,11.26 -120.13,77.75l0 0zm289.53 117.47l0 8.5 -169.94 0 -169.94 0 0 -8.5 0 -8.5 169.94 0 169.94 0 0 8.5zm-16.99 59.48l0 33.99 -5.84 0c-4.89,0 -6.37,0.42 -8.5,2.65l-2.65 2.55 0 48.43 0 48.33 -8.5 0 -8.5 0 0 -65.32 0 -65.43 -2.65 -2.55 -2.55 -2.65 -79.77 0 -79.77 0 -2.55 2.65 -2.66 2.55 0 65.43 0 65.32 -5.84 0c-4.88,0 -6.37,0.42 -8.5,2.65l-2.65 2.55 0 37.28 0 37.28 2.65 2.55c2.44,2.55 3.08,2.65 17.52,2.65 11.9,0 14.87,0.32 14.87,1.49 0,0.74 1.59,4.57 3.5,8.5l3.61 7.01 -29.63 0 -29.53 0 0 -82.31 0 -82.42 -2.65 -2.55 -2.55 -2.65 -31.44 0 -31.33 0 0 -50.98 0 -50.98 152.95 0 152.94 0 0 33.99 0 0zm-152.95 48.33l0 31.44 2.66 2.55 2.55 2.65 28.78 0 28.78 0 2.55 -2.65 2.65 -2.55 0 -31.44 0 -31.33 16.99 0 16.99 0 0 59.48 0 59.48 -67.98 0 -67.98 0 0 -59.48 0 -59.48 16.99 0 16.99 0 0 31.33 0 0zm50.98 -5.84l0 25.49 -16.99 0 -16.99 0 0 -25.49 0 -25.49 16.99 0 16.99 0 0 25.49zm176.52 16.68l3.72 8.28 -28.57 0.53c-28.57,0.53 -28.68,0.53 -30.7,3.08 -1.8,2.23 -2.02,4.46 -2.02,26.87l0 24.32 2.66 2.55 2.55 2.65 39.94 0 39.83 0 0 8.5 0 8.5 -12.75 0 -12.74 0 0 8.5 0 8.5 12.74 0 12.75 0 0 21.24 0 21.24 -4.78 0c-3.29,0 -4.78,-0.42 -4.78,-1.49 0,-0.74 -1.7,-4.78 -3.72,-8.92 -12.75,-25.39 -45.78,-31.23 -66.81,-11.9 -4.57,4.25 -12.32,17.42 -12.32,20.82 0,1.06 -1.49,1.49 -4.78,1.49l-4.78 0 0 -76.47 0 -76.47 35.47 0 35.37 0 3.72 8.18 0 0zm-380.45 38.56l0 12.74 8.5 0 8.5 0 0 -12.74 0 -12.75 16.99 0 16.99 0 0 33.99 0 33.99 -42.48 0 -42.48 0 0 -33.99 0 -33.99 16.99 0 16.99 0 0 12.75 0 0zm397.34 -0.64c2.87,6.37 5.2,12 5.2,12.53 0,0.42 -14.13,0.85 -31.33,0.85l-31.33 0 0 -12.74 0 -12.75 26.13 0.21 26.13 0.32 5.2 11.58 0 0zm-108.44 81.36l0 25.49 -43.02 0c-35.69,0 -43.02,-0.21 -43.02,-1.49 0,-0.74 -1.7,-4.78 -3.72,-8.92 -12.75,-25.39 -45.78,-31.23 -66.81,-11.9 -4.57,4.25 -12.32,17.42 -12.32,20.82 0,1.17 -2.12,1.49 -9.03,1.49l-9.03 0 0 -25.49 0 -25.49 93.47 0 93.47 0 0 25.49zm-288.9 4.25l0 12.75 8.5 0 8.5 0 0 -12.75 0 -12.74 16.99 0 16.99 0 0 33.99 0 33.99 -42.48 0 -42.48 0 0 -33.99 0 -33.99 16.99 0 16.99 0 0 12.74 0 0zm169.3 5.52c5.84,1.7 14.66,10.51 16.36,16.36 2.97,9.98 -0.11,20.29 -8.18,27.08 -6.9,5.95 -14.87,7.65 -23.9,4.99 -5.84,-1.7 -14.66,-10.52 -16.36,-16.36 -2.97,-9.98 -0.85,-17.95 6.69,-25.38 7.43,-7.54 15.4,-9.56 25.39,-6.69zm195.43 0c5.84,1.7 14.66,10.51 16.36,16.36 2.97,9.98 -0.11,20.29 -8.18,27.08 -6.9,5.95 -14.87,7.65 -23.9,4.99 -5.84,-1.7 -14.66,-10.52 -16.36,-16.36 -2.97,-9.98 -0.85,-17.95 6.69,-25.38 7.43,-7.54 15.4,-9.56 25.38,-6.69zm-49.28 34.2c0,0.74 1.59,4.57 3.51,8.5l3.61 7.01 -63.41 0 -63.41 0 3.61 -7.01c1.91,-3.93 3.5,-7.75 3.5,-8.5 0,-1.27 9.13,-1.49 56.29,-1.49 47.16,0 56.29,0.21 56.29,1.49z"/>
    <polygon class="fil0" points="220.92,365.16 220.92,373.66 237.91,373.66 254.91,373.66 254.91,365.16 254.91,356.66 237.91,356.66 220.92,356.66 "/>
    <polygon class="fil0" points="288.9,365.16 288.9,373.66 305.89,373.66 322.88,373.66 322.88,365.16 322.88,356.66 305.89,356.66 288.9,356.66 "/>
    <polygon class="fil0" points="237.91,467.12 237.91,475.62 246.41,475.62 254.91,475.62 254.91,467.12 254.91,458.63 246.41,458.63 237.91,458.63 "/>
    <polygon class="fil0" points="433.34,467.12 433.34,475.62 441.84,475.62 450.34,475.62 450.34,467.12 450.34,458.63 441.84,458.63 433.34,458.63 "/>
    <polygon class="fil0" points="195.43,76.26 195.43,84.76 237.91,84.76 280.4,84.76 280.4,76.26 280.4,67.77 237.91,67.77 195.43,67.77 "/>
    <polygon class="fil0" points="195.43,110.25 195.43,118.75 237.91,118.75 280.4,118.75 280.4,110.25 280.4,101.75 237.91,101.75 195.43,101.75 "/>
    <polygon class="fil0" points="195.43,144.24 195.43,152.74 237.91,152.74 280.4,152.74 280.4,144.24 280.4,135.74 237.91,135.74 195.43,135.74 "/>
    <polygon class="fil0" points="-0,280.19 -0,288.69 8.5,288.69 16.99,288.69 16.99,280.19 16.99,271.69 8.5,271.69 -0,271.69 "/>
   </g>
  </g>
 </g>
</svg>
