<?xml version="1.0" encoding="UTF-8"?>
<!DOCTYPE svg PUBLIC "-//W3C//DTD SVG 1.1//EN" "http://www.w3.org/Graphics/SVG/1.1/DTD/svg11.dtd">
<!-- Creator: CorelDRAW 2018 (64-Bit) -->
<svg xmlns="http://www.w3.org/2000/svg" xml:space="preserve" width="33.3203mm" height="33.3495mm" version="1.1" style="shape-rendering:geometricPrecision; text-rendering:geometricPrecision; image-rendering:optimizeQuality; fill-rule:evenodd; clip-rule:evenodd"
viewBox="0 0 1388.04 1389.26"
 xmlns:xlink="http://www.w3.org/1999/xlink">
 <defs>
  <style type="text/css">
   <![CDATA[
    .fil0 {fill:#FDB44B}
   ]]>
  </style>
 </defs>
 <g id="Слой_x0020_1">
  <metadata id="CorelCorpID_0Corel-Layer"/>
  <g id="_2882345324064">
   <g>
    <path class="fil0" d="M312.42 3.46c-13.73,4.48 -37.27,28.58 -41.47,42.87 -2.24,7.57 -3.36,33.06 -3.36,72.85l0 61.36 -11.49 8.41c-6.44,4.48 -24.94,22.42 -41.47,39.23 -133.38,137.58 -164.2,342.96 -76.77,512.2 8.96,17.09 16.53,32.22 17.09,33.35 0.56,1.12 -1.12,2.24 -3.65,2.24 -10.37,0 -26.9,12.61 -56.32,42.59 -35.58,36.43 -42.31,48.47 -39.51,73.13 0.84,7.85 4.2,20.45 7.29,27.74 8.69,18.78 2.52,31.1 -19.05,38.39 -14.29,4.77 -27.18,15.69 -35.87,30.54 -7.84,13.17 -7.84,13.45 -7.84,65.01 0,51.56 0,51.84 7.84,65.01 9.25,15.97 21.86,26.06 39.79,31.94 10.36,3.64 14.01,6.72 17.09,14.29 3.64,8.69 3.64,10.65 -1.96,22.7 -8.97,20.45 -10.09,41.19 -2.8,58.56 8.69,19.89 66.13,76.49 85.18,83.5 15.97,6.17 36.43,4.48 55.76,-3.92 18.78,-8.69 31.1,-2.52 38.39,19.05 4.77,14.29 15.69,27.18 30.54,35.87 13.17,7.84 13.45,7.84 65.01,7.84 51.56,0 51.84,0 65.01,-7.84 15.97,-9.25 26.06,-21.86 31.94,-39.79 3.64,-10.37 6.72,-14.01 14.29,-17.09 8.69,-3.65 10.65,-3.65 22.7,1.68 19.33,8.69 39.79,10.37 55.76,4.2 19.05,-7 76.5,-63.6 85.18,-83.5 7.29,-17.37 6.17,-38.11 -2.8,-58.56 -8.69,-18.78 -2.52,-31.1 19.05,-38.39 14.29,-4.77 27.18,-15.69 35.87,-30.54 7.84,-13.17 7.84,-13.45 7.84,-65.29l0 -52.12 -9.25 -14.85c-5.04,-8.13 -8.69,-14.85 -8.4,-15.13 0.56,-0.28 11.48,-4.2 24.66,-8.41 27.18,-8.69 68.09,-27.46 93.03,-42.59l16.81 -10.37 38.11 38.11 38.1 38.39 -10.93 11.21 -11.21 11.49 180.73 180.17c196.98,196.7 191.66,191.94 230.89,198.66 77.62,13.17 147.38,-56.6 134.22,-134.22 -6.72,-39.23 -1.96,-33.91 -198.66,-230.89l-180.17 -180.73 -11.49 11.21 -11.21 10.93 -38.39 -38.1 -38.11 -38.11 10.09 -16.25c106.48,-177.09 82.38,-396.48 -59.96,-543.31 -16.53,-16.81 -35.03,-34.75 -41.47,-39.23l-11.49 -8.41 0 -61.36c0,-38.95 -1.12,-65.29 -3.36,-72.29 -1.68,-6.17 -8.69,-17.37 -15.41,-24.66 -21.01,-23.54 -8.69,-22.42 -251.34,-22.14 -146.83,0.28 -216.32,1.12 -223.04,3.36l0 0zm441.32 48.19c7.01,6.73 7.01,6.73 7.01,67.25l0 60.25 -224.16 0 -224.16 0 0 -60.25c0,-60.52 0,-60.52 7.01,-67.25l6.72 -7 210.43 0 210.43 0 6.72 7zm7.01 239.57l0 67.25 -224.16 0 -224.16 0 0 -67.25 0 -67.25 224.16 0 224.16 0 0 67.25zm-511.37 33.06c-21.57,28.86 -45.67,76.5 -55.76,109.84 -29.7,98.63 -15.41,205.67 38.95,293.09l12.33 19.62 -5.89 16.25c-4.2,11.21 -8.12,17.37 -12.89,19.33 -6.17,2.8 -7.57,2.24 -13.73,-5.04 -10.65,-13.17 -33.34,-51.83 -42.59,-72.29 -68.37,-152.43 -38.39,-324.75 77.34,-447.76l19.05 -20.17 0.84 31.38 0.84 31.38 -18.49 24.38zm610.28 -26.9c97.79,132.53 106.76,306.82 22.97,446.36 -49.31,82.1 -126.93,145.14 -216.87,175.12 -28.58,9.53 -61.37,17.09 -63.04,14.29 -0.84,-1.12 1.12,-7.29 3.92,-13.73 3.08,-6.44 6.17,-16.25 7.29,-21.85 1.12,-5.61 3.36,-10.37 5.04,-10.93 55.76,-16.53 82.1,-28.3 119.09,-52.96 125.53,-83.78 183.81,-240.97 144.3,-388.36 -12.05,-45.39 -31.38,-84.34 -61.92,-124.97l-14.85 -20.17 0 -31.66 0.28 -31.94 19.34 20.17c10.65,10.93 26.06,29.42 34.46,40.63l0 0zm-585.34 246.85c6.72,13.73 26.62,30.82 40.35,35.03 15.69,4.77 428.15,4.77 443.84,0 13.73,-4.2 33.62,-21.3 40.35,-35.03 4.76,-9.53 5.6,-19.61 6.72,-87.7l1.4 -77.05 11.77 23.82c73.7,149.63 14.01,331.76 -134.5,410.49 -22.7,12.33 -69.49,29.42 -79.57,29.42 -2.8,0 -17.93,-12.89 -34.47,-29.42 -34.46,-34.74 -48.19,-42.03 -72.85,-39.79 -8.41,0.84 -21.3,4.2 -28.3,7.29 -16.53,7.29 -28.3,4.2 -33.9,-8.97 -12.89,-30.82 -28.02,-46.51 -50.44,-52.4 -6.72,-1.96 -30.26,-2.8 -57.72,-2.52l-46.23 0.84 -6.72 -9.81c-3.92,-5.32 -11.77,-19.33 -17.93,-31.1 -43.43,-85.46 -43.99,-188.01 -1.68,-274.04l11.77 -23.82 1.4 77.05c1.12,68.09 1.96,78.17 6.73,87.7l0 0zm486.43 -80.69c0,60.52 0,60.52 -7.01,67.25l-6.72 7 -210.43 0 -210.43 0 -6.72 -7c-7.01,-6.73 -7.01,-6.73 -7.01,-67.25l0 -60.25 224.16 0 224.16 0 0 60.25zm-380.51 303.74c3.64,3.08 8.41,10.36 10.09,16.25 4.48,14.85 20.45,32.78 36.15,40.35 17.37,8.4 39.23,8.4 58.84,-0.28 10.09,-4.2 17.09,-5.6 22.42,-4.2 10.37,2.52 58.56,50.72 61.09,61.09 1.4,5.32 0,12.33 -4.2,22.42 -8.69,19.61 -8.69,41.47 -0.28,58.84 7.57,15.69 25.5,31.66 40.35,36.15 19.33,5.88 21.57,11.48 21.57,55.48 0,43.99 -2.24,49.59 -21.57,55.48 -14.85,4.48 -32.78,20.45 -40.35,36.15 -8.41,17.37 -8.41,39.22 0.28,58.84 4.2,10.09 5.6,17.09 4.2,22.42 -2.52,10.36 -50.72,58.56 -61.09,61.08 -5.32,1.4 -12.33,0 -22.42,-4.2 -19.61,-8.69 -41.47,-8.69 -58.84,-0.28 -15.69,7.57 -31.66,25.5 -36.15,40.35 -5.88,19.33 -11.49,21.57 -55.48,21.57 -43.99,0 -49.59,-2.24 -55.48,-21.57 -4.48,-14.85 -20.45,-32.78 -36.15,-40.35 -17.37,-8.41 -39.23,-8.41 -58.84,0.28 -10.09,4.2 -17.09,5.6 -22.42,4.2 -10.37,-2.52 -58.56,-50.72 -61.08,-61.08 -1.4,-5.32 0,-12.33 4.2,-22.42 8.69,-19.62 8.69,-41.47 0.28,-58.84 -7.57,-15.69 -25.5,-31.66 -40.35,-36.15 -19.33,-5.89 -21.57,-11.49 -21.57,-55.48 0,-43.99 2.24,-49.6 21.57,-55.48 14.85,-4.48 32.78,-20.46 40.35,-36.15 8.41,-17.37 8.41,-39.23 -0.28,-58.84 -4.2,-10.09 -5.61,-17.09 -4.2,-22.42 2.52,-10.37 50.71,-58.56 61.08,-61.09 5.32,-1.4 12.33,0 22.42,4.2 19.61,8.69 41.47,8.69 58.84,0.28 15.69,-7.57 31.66,-25.5 36.15,-40.35 5.89,-19.33 11.49,-21.57 55.48,-21.57 33.91,0 39.23,0.56 45.39,5.32zm537.42 94.15l35.03 35.03 -28.86 28.58 -28.58 28.86 -35.58 -35.59 -35.87 -35.87 28.02 -28.02c15.41,-15.41 28.58,-28.02 29.42,-28.02 0.84,0 17.09,15.69 36.43,35.03l0 0zm252.74 207.91c88.83,89.11 163.64,166.44 166.44,171.76 7.29,13.73 7.29,48.19 0,61.64 -7.28,13.73 -20.73,27.46 -33.9,34.46 -15.97,8.41 -48.76,8.41 -64.45,0 -6.44,-3.36 -80.14,-75.09 -172.32,-167.28l-161.11 -161.4 50.44 -50.43c27.74,-27.74 51,-50.44 51.83,-50.44 0.84,0 73.98,72.85 163.08,161.68l0 0z"/>
    <polygon class="fil0" points="357.26,111.9 357.26,134.31 379.67,134.31 402.09,134.31 402.09,111.9 402.09,89.48 379.67,89.48 357.26,89.48 "/>
    <polygon class="fil0" points="446.92,111.9 446.92,134.31 469.34,134.31 491.75,134.31 491.75,111.9 491.75,89.48 469.34,89.48 446.92,89.48 "/>
    <polygon class="fil0" points="536.58,111.9 536.58,134.31 559,134.31 581.41,134.31 581.41,111.9 581.41,89.48 559,89.48 536.58,89.48 "/>
    <polygon class="fil0" points="491.75,291.22 491.75,313.64 514.17,313.64 536.58,313.64 536.58,291.22 536.58,268.81 514.17,268.81 491.75,268.81 "/>
    <polygon class="fil0" points="581.42,291.22 581.42,313.64 603.83,313.64 626.25,313.64 626.25,291.22 626.25,268.81 603.83,268.81 581.42,268.81 "/>
    <polygon class="fil0" points="671.08,291.22 671.08,313.64 693.5,313.64 715.91,313.64 715.91,291.22 715.91,268.81 693.5,268.81 671.08,268.81 "/>
    <polygon class="fil0" points="357.26,470.55 357.26,492.97 379.67,492.97 402.09,492.97 402.09,470.55 402.09,448.14 379.67,448.14 357.26,448.14 "/>
    <polygon class="fil0" points="446.92,470.55 446.92,492.97 469.34,492.97 491.75,492.97 491.75,470.55 491.75,448.14 469.34,448.14 446.92,448.14 "/>
    <polygon class="fil0" points="536.58,470.55 536.58,492.97 559,492.97 581.41,492.97 581.41,470.55 581.41,448.14 559,448.14 536.58,448.14 "/>
    <path class="fil0" d="M299.81 854.43c-40.63,7.57 -75.93,26.34 -106.76,57.16 -25.22,25.22 -40.07,49.04 -51,82.38 -6.16,18.78 -7.28,26.34 -7,59.4 0,33.34 0.84,40.35 7.29,60.25 10.65,32.22 25.5,55.76 51,81.26 25.5,25.5 49.04,40.35 81.26,51 19.9,6.44 26.9,7.29 60.24,7.29 33.35,0 40.35,-0.84 60.25,-7.29 32.22,-10.65 55.76,-25.5 81.26,-51 25.5,-25.5 40.35,-49.04 51,-81.26 6.44,-19.9 7.29,-26.9 7.29,-60.25 0,-33.34 -0.84,-40.35 -7.29,-60.24 -10.65,-32.23 -25.5,-55.76 -51,-81.26 -38.95,-39.23 -79.57,-56.88 -133.1,-58.84 -16.25,-0.56 -35.58,0 -43.43,1.4l-0 -0zm64.73 45.12c53.8,9.53 101.72,52.96 120.49,109 7.85,23.26 7.29,68.37 -1.12,93.03 -16.81,48.76 -53.8,84.9 -104.24,101.99 -21.3,7.29 -68.37,7.29 -89.66,0 -75.93,-25.5 -121.04,-96.39 -109.84,-172.88 7.29,-50.44 39.51,-94.43 85.46,-117.12 33.06,-16.25 63.04,-20.45 98.91,-14.01z"/>
    <path class="fil0" d="M348.29 1030.11l-58.28 58.28 -13.45 -13.45c-7.29,-7.28 -14.57,-13.17 -16.25,-13.17 -3.64,0 -29.14,26.06 -29.14,29.7 0,1.4 13.17,15.69 29.42,31.94l29.42 29.42 74.25 -74.25c40.91,-40.91 74.25,-75.65 74.25,-77.06 0,-3.64 -25.78,-29.42 -29.42,-29.42 -1.68,0 -28.86,26.06 -60.8,58z"/>
    <path class="fil0" d="M1260.9 1262.12c-14.01,13.73 -4.2,37.83 15.41,37.83 11.48,0 22.42,-10.93 22.42,-22.42 0,-11.48 -10.93,-22.42 -22.42,-22.42 -5.33,0 -11.21,2.52 -15.41,7.01z"/>
    <path class="fil0" d="M1253.9 67.06l0 22.42 -22.42 0 -22.42 0 0 22.42 0 22.42 22.42 0 22.42 0 0 22.42 0 22.42 22.42 0 22.42 0 0 -22.42 0 -22.42 22.42 0 22.42 0 0 -22.42 0 -22.42 -22.42 0 -22.42 0 0 -22.42 0 -22.42 -22.42 0 -22.42 0 0 22.42zm44.84 44.83l0 22.42 -22.42 0 -22.42 0 0 -22.42 0 -22.42 22.42 0 22.42 0 0 22.42z"/>
    <path class="fil0" d="M1096.99 223.98l0 22.42 -22.42 0 -22.42 0 0 22.42 0 22.42 22.42 0 22.42 0 0 22.42 0 22.42 22.42 0 22.42 0 0 -22.42 0 -22.42 22.42 0 22.42 0 0 -22.42 0 -22.42 -22.42 0 -22.42 0 0 -22.42 0 -22.42 -22.42 0 -22.42 0 0 22.42zm44.83 44.83l0 22.42 -22.42 0 -22.42 0 0 -22.42 0 -22.42 22.42 0 22.42 0 0 22.42z"/>
    <path class="fil0" d="M1231.48 649.88l0 22.42 -22.42 0 -22.42 0 0 22.42 0 22.42 22.42 0 22.42 0 0 22.42 0 22.42 22.42 0 22.42 0 0 -22.42 0 -22.42 22.42 0 22.42 0 0 -22.42 0 -22.42 -22.42 0 -22.42 0 0 -22.42 0 -22.42 -22.42 0 -22.42 0 0 22.42zm44.84 44.83l0 22.42 -22.42 0 -22.42 0 0 -22.42 0 -22.42 22.42 0 22.42 0 0 22.42z"/>
    <path class="fil0" d="M738.33 1187.87l0 22.42 -22.42 0 -22.42 0 0 22.42 0 22.42 22.42 0 22.42 0 0 22.42 0 22.42 22.42 0 22.42 0 0 -22.42 0 -22.42 22.42 0 22.42 0 0 -22.42 0 -22.42 -22.42 0 -22.42 0 0 -22.42 0 -22.42 -22.42 0 -22.42 0 0 22.42zm44.83 44.83l0 22.42 -22.42 0 -22.42 0 0 -22.42 0 -22.42 22.42 0 22.42 0 0 22.42z"/>
   </g>
  </g>
 </g>
</svg>
