<?xml version="1.0" encoding="UTF-8"?>
<!DOCTYPE svg PUBLIC "-//W3C//DTD SVG 1.1//EN" "http://www.w3.org/Graphics/SVG/1.1/DTD/svg11.dtd">
<!-- Creator: CorelDRAW 2018 (64-Bit) -->
<svg xmlns="http://www.w3.org/2000/svg" xml:space="preserve" width="26.7754mm" height="34.6386mm" version="1.1" style="shape-rendering:geometricPrecision; text-rendering:geometricPrecision; image-rendering:optimizeQuality; fill-rule:evenodd; clip-rule:evenodd"
viewBox="0 0 995.35 1287.66"
 xmlns:xlink="http://www.w3.org/1999/xlink"
 xmlns:svgjs="http://svgjs.com/svgjs">
 <defs>
  <style type="text/css">
   <![CDATA[
    .fil0 {fill:#FDB44B}
   ]]>
  </style>
 </defs>
 <g id="Слой_x0020_1">
  <metadata id="CorelCorpID_0Corel-Layer"/>
  <g id="_2882345330144">
   <g>
    <g>
     <path class="fil0" d="M944.05 996.72c-15.11,-35.22 -44.22,-63.49 -79.87,-77.54l-219.43 -86.53c-4.77,-1.88 -7.85,-6.41 -7.85,-11.54l0 -68.19c46.98,-35.24 81.02,-81.41 101.33,-137.55 6.86,-18.97 12.15,-39.11 15.87,-60.31 47.84,-2.23 86.07,-41.83 86.07,-90.21 0,-9.83 -1.65,-19.58 -4.76,-28.84 14.62,-9.94 24.25,-26.72 24.25,-45.7l0 -4.62c0,-30.46 -24.77,-55.23 -55.23,-55.23l-13.8 0 0 -41.75c0,-98.86 -53.58,-188.94 -140.13,-236.3 -2.04,-29.24 -26.46,-52.41 -56.21,-52.41 -17.69,0 -33.49,8.2 -43.83,20.98 -9.65,-1.04 -19.4,-1.57 -29.13,-1.57l-41.06 0c-11.51,0 -23.1,0.74 -34.45,2.19 -0.71,0.09 -1.4,0.23 -2.08,0.39 -10.34,-11.91 -25.58,-19.46 -42.55,-19.46 -30.13,0 -54.82,23.77 -56.29,53.54 -0.78,0.33 -1.55,0.7 -2.29,1.14 -81.19,48.38 -131.63,137.09 -131.63,231.5l0 41.74 -18.65 0c-30.45,0 -55.23,24.78 -55.23,55.23l0 4.62c0,19.57 10.24,36.78 25.64,46.6 -2.93,8.98 -4.41,18.35 -4.41,27.95 0,47.34 36.63,86.27 83.04,89.99 3.67,20.97 8.86,40.91 15.61,59.7 20.26,56.46 54.35,102.87 101.5,138.27l0 68.28c0,5.13 -3.09,9.66 -7.86,11.54l-219.43 86.53c-35.65,14.06 -64.76,42.32 -79.87,77.54 -34.04,79.38 -51.3,163.43 -51.3,249.8 0,22.68 18.45,41.13 41.13,41.13l637.4 0c10.49,0 19,-8.51 19,-19 0,-10.49 -8.5,-19 -19,-19l-174.48 0 0 -46.81 40.41 -0c17.13,0 31.06,-13.93 31.06,-31.05l0 -46.71c0,-17.12 -13.93,-31.06 -31.06,-31.06l-40.41 0 0 -53.55 89.19 0c40.94,0 74.25,-33.31 74.25,-74.26l0 -83.76 32.83 12.95 0 97.96c0,29.85 11.3,58.23 31.81,79.92l28.74 30.37c7.31,7.72 11.33,17.84 11.33,28.48l0 117.51 -17.69 0c-10.49,0 -19,8.51 -19,19 0,10.49 8.5,19 19,19l199.7 0c22.68,0 41.13,-18.45 41.13,-41.13 -0,-86.38 -17.26,-170.42 -51.31,-249.8l0 0zm-547.59 -219.71c31.65,16.29 66.46,24.47 101.28,24.47 34.78,0 69.54,-8.16 101.15,-24.4l0 42.94c-0.33,0.36 -0.66,0.71 -0.97,1.1l-10.32 13c-21.91,27.61 -54.69,43.44 -89.94,43.44 -35.24,0 -68.02,-15.83 -89.93,-43.44l-10.48 -13.21c-0.26,-0.32 -0.53,-0.61 -0.8,-0.91l0 -42.99zm362.58 -260.7c1.87,-22.58 2.14,-46.2 0.8,-70.77l38.65 0c2.44,6.11 3.68,12.58 3.68,19.31 0,25.71 -18.66,47.1 -43.13,51.46l0 0zm-6.41 -227.6l0 41.74 -101.98 0 0 -233.54c63.47,42.75 101.98,114.12 101.98,191.8zm-176.71 41.74l0 -271.56c0,-10.13 8.24,-18.37 18.37,-18.37 10.13,0 18.37,8.24 18.37,18.37l0 271.56 -36.74 0zm-95.65 -273.04l41.06 0c5.53,0 11.07,0.2 16.59,0.59l0 0.9 0 271.56 -80.36 0 0 -271.56c0,-0.13 -0.01,-0.25 -0.01,-0.38 7.53,-0.73 15.14,-1.11 22.72,-1.11l0 0zm-231.3 231.3c0,-74.18 36.28,-144.25 95.86,-187.47l0 80.68c0,10.49 8.51,19 19,19 10.49,0 19,-8.51 19,-19l0 -123.02c0,-10.13 8.24,-18.37 18.37,-18.37 10.13,0 18.37,8.24 18.37,18.37l0 271.56 -36.74 0 0 -72.55c0,-10.49 -8.51,-19 -19,-19 -10.49,0 -19,8.51 -19,19l0 72.55 -95.86 0 0 -41.74zm-73.89 96.98c0,-9.51 7.73,-17.24 17.24,-17.24l612.1 0c9.51,0 17.24,7.73 17.24,17.24l0 4.62c0,9.51 -7.73,17.24 -17.24,17.24l-612.1 0c-9.51,0 -17.24,-7.73 -17.24,-17.24l0 -4.62zm21.23 79.17c0,-6.7 1.3,-13.18 3.75,-19.31l35.57 0c-1.33,24.34 -1.06,47.74 0.76,70.13 -22.95,-5.54 -40.08,-26.19 -40.08,-50.81zm77.39 -19.31l448.07 0c7.87,134.19 -34.52,231.65 -126.13,289.71 -59.47,37.69 -136.33,37.69 -195.81,0 -91.62,-58.06 -134.01,-155.52 -126.13,-289.71zm-235.71 800.98c0,-81.2 16.23,-160.21 48.23,-234.83 11.14,-25.97 32.6,-46.81 58.88,-57.17l112.02 -44.17 0 83.02c0,20.1 -7.61,39.21 -21.42,53.81l-28.73 30.37c-14.01,14.81 -21.73,34.2 -21.73,54.59l0 117.51 -144.11 0c-1.73,0 -3.14,-1.41 -3.14,-3.13zm499.53 -81.67l-145.99 0 0 -32.83 145.99 0 0 32.83zm-152.93 -70.83c-17.13,0 -31.05,13.93 -31.05,31.06l0 46.71c0,17.13 13.93,31.05 31.05,31.05l81.47 0 0 46.81 -242.82 0 0 -117.51c0,-10.64 4.03,-20.75 11.34,-28.48l28.73 -30.37c20.52,-21.69 31.82,-50.07 31.82,-79.92 0,0 -0.04,-97.59 -0.06,-97.98l32.89 -12.97 0 83.8c0,40.94 33.31,74.26 74.25,74.26l63.85 0 0 53.55 -81.47 0zm208.65 -91.54l-191.04 0c-19.99,0 -36.26,-16.26 -36.26,-36.26l0 -98.85c4.9,-2.1 9.32,-4.89 13.2,-8.25 29.15,35.87 72.23,56.43 118.53,56.43 46.3,0 89.38,-20.56 118.53,-56.43 3.9,3.38 8.36,6.18 13.29,8.29l0 98.8c0,20 -16.27,36.26 -36.26,36.26l0 0zm360.98 247.17l-144.01 0 0 -117.51c0,-20.39 -7.72,-39.78 -21.73,-54.59l-28.74 -30.37c-13.81,-14.6 -21.42,-33.71 -21.42,-53.81l0 -82.98 111.92 44.13c26.29,10.36 47.75,31.2 58.89,57.17 32,74.62 48.23,153.63 48.23,234.83 0,1.72 -1.41,3.13 -3.13,3.13l0 0z" data-original="#000000"/>
    </g>
   </g>
  </g>
 </g>
</svg>
