<?xml version="1.0" encoding="UTF-8"?>
<!DOCTYPE svg PUBLIC "-//W3C//DTD SVG 1.1//EN" "http://www.w3.org/Graphics/SVG/1.1/DTD/svg11.dtd">
<!-- Creator: CorelDRAW 2018 (64-Bit) -->
<svg xmlns="http://www.w3.org/2000/svg" xml:space="preserve" width="24.9335mm" height="24.9452mm" version="1.1" style="shape-rendering:geometricPrecision; text-rendering:geometricPrecision; image-rendering:optimizeQuality; fill-rule:evenodd; clip-rule:evenodd"
viewBox="0 0 283.43 283.57"
 xmlns:xlink="http://www.w3.org/1999/xlink">
 <defs>
  <style type="text/css">
   <![CDATA[
    .fil0 {fill:#FDB44B}
   ]]>
  </style>
 </defs>
 <g id="Слой_x0020_1">
  <metadata id="CorelCorpID_0Corel-Layer"/>
  <g id="_2882345330016">
   <g>
    <path class="fil0" d="M138.12 0.72c-0.89,0.44 -5.76,3.54 -10.8,6.92 -4.99,3.38 -9.47,6.15 -9.86,6.15 -0.44,0 -5.93,-1.16 -12.24,-2.55 -10.08,-2.22 -11.74,-2.49 -13.74,-1.94 -1.22,0.33 -2.82,1.11 -3.6,1.66 -0.72,0.61 -4.38,5.48 -8.14,10.8 -3.71,5.37 -6.92,9.75 -7.04,9.75 -1.27,0 -22.49,3.49 -23.82,3.88 -1.77,0.61 -4.1,2.71 -5.1,4.76 -0.33,0.66 -1.88,6.26 -3.43,12.46l-2.83 11.3 -10.58 6.09c-5.82,3.32 -11.02,6.7 -11.58,7.42 -2.27,2.88 -2.38,4.65 -0.83,16.78 0.78,6.26 1.44,11.74 1.44,12.19 0,0.44 -3.32,4.99 -7.42,10.03 -4.1,5.1 -7.76,10.14 -8.09,11.24 -1.16,3.38 -0.39,5.76 5.48,16.51 3.05,5.71 5.6,10.64 5.6,10.97 0,0.28 -1.66,5.65 -3.66,11.85 -5.21,16.18 -5.54,15.18 8.92,27.42l7.92 6.65 0.33 3.99c0.17,2.22 0.44,7.2 0.67,11.19 0.39,8.7 0.89,10.8 3.05,13.29 1.77,1.99 2.44,2.27 15.73,6.92 4.6,1.61 8.59,3.16 8.97,3.55 0.39,0.33 2.71,5.1 5.21,10.58 5.26,11.58 5.93,12.63 8.92,14.18 2.16,1.11 2.77,1.16 14.68,0.78l12.41 -0.44 8.7 8.59c9.2,9.08 11.02,10.25 15.01,9.69 1.11,-0.17 6.81,-2.33 12.69,-4.82l10.64 -4.6 11.3 4.82c6.2,2.6 12.02,4.76 13.02,4.76 3.44,0 5.76,-1.66 14.24,-10.08l8.48 -8.37 12.13 0.39c11.41,0.39 12.35,0.39 14.62,-0.66 1.38,-0.61 2.99,-1.77 3.6,-2.66 0.61,-0.89 3.21,-6.15 5.71,-11.69 2.49,-5.54 4.82,-10.3 5.15,-10.58 0.39,-0.28 5.15,-2.05 10.64,-3.99 11.63,-3.99 12.41,-4.38 14.35,-6.65 1.88,-2.33 2.38,-4.54 2.77,-13.02 0.22,-3.99 0.5,-8.97 0.67,-11.13l0.33 -3.99 7.92 -6.7c14.46,-12.24 14.13,-11.24 8.92,-27.42 -2,-6.2 -3.66,-11.58 -3.66,-11.85 0,-0.33 2.55,-5.26 5.6,-10.97 5.87,-10.75 6.65,-13.13 5.48,-16.51 -0.33,-1.11 -3.99,-6.15 -8.09,-11.25 -4.1,-5.04 -7.42,-9.47 -7.42,-9.8 0,-0.33 0.67,-5.93 1.44,-12.41 2.11,-16.84 2.71,-15.68 -13.85,-25.09l-9.14 -5.21 -2.82 -11.25c-1.55,-6.26 -3.16,-11.97 -3.55,-12.8 -1,-1.88 -2.99,-3.71 -4.87,-4.43 -1.11,-0.44 -22.44,-3.93 -23.88,-3.93 -0.17,0 -3.38,-4.38 -7.09,-9.75 -3.77,-5.32 -7.42,-10.19 -8.14,-10.8 -3.21,-2.49 -4.93,-2.49 -17.23,0.28 -6.26,1.38 -11.8,2.55 -12.3,2.55 -0.44,0 -4.71,-2.66 -9.42,-5.87 -4.71,-3.21 -9.53,-6.37 -10.75,-6.92 -2.6,-1.22 -5.43,-1.33 -7.76,-0.28l0 0zm13.96 14.24c8.7,5.76 10.53,6.81 12.74,6.98 1.88,0.17 6.09,-0.5 13.96,-2.27 6.26,-1.39 11.52,-2.38 11.74,-2.16 0.17,0.28 3.27,4.6 6.81,9.69 3.54,5.04 7.2,9.86 8.09,10.58 1.94,1.66 1.61,1.55 15.46,3.66 5.93,0.94 10.91,1.88 11.13,2.11 0.22,0.22 1.61,5.32 3.05,11.24 1.44,5.93 3.1,11.69 3.66,12.85 1.22,2.44 1.72,2.77 13.07,9.31 4.99,2.82 9.25,5.43 9.53,5.76 0.39,0.44 0.05,4.76 -0.89,12.63 -1.22,9.86 -1.38,12.3 -0.83,14.07 0.39,1.33 3.43,5.65 8.14,11.41 4.1,5.1 7.48,9.42 7.48,9.64 0,0.22 -2.6,5.32 -5.82,11.3 -4.49,8.36 -5.82,11.41 -5.82,13.02 0,1.16 1.61,7.15 3.6,13.29 1.99,6.2 3.6,11.36 3.6,11.52 0,0.17 -4.21,3.88 -9.31,8.31 -5.76,4.93 -9.69,8.75 -10.25,9.92 -0.61,1.33 -1.05,5.1 -1.55,13.74 -0.39,7.15 -0.89,12.13 -1.27,12.52 -0.33,0.33 -5.6,2.33 -11.69,4.43 -8.64,2.99 -11.41,4.21 -12.74,5.54 -1.05,1.05 -3.49,5.76 -6.59,12.63l-4.99 10.97 -11.69 -0.44c-6.48,-0.22 -12.74,-0.22 -13.85,0 -1.77,0.33 -3.6,1.88 -11.08,9.25 -4.99,4.82 -9.25,8.81 -9.53,8.81 -0.28,0 -5.43,-2.11 -11.47,-4.71 -7.42,-3.21 -11.63,-4.71 -13.07,-4.71 -1.44,0 -5.65,1.5 -13.07,4.71 -6.04,2.6 -11.19,4.71 -11.47,4.71 -0.28,0 -4.54,-3.99 -9.53,-8.81 -7.48,-7.37 -9.31,-8.92 -11.08,-9.25 -1.11,-0.22 -7.37,-0.22 -13.79,0l-11.74 0.44 -4.6 -10.19c-2.49,-5.6 -5.15,-11.02 -5.87,-12.13 -1.55,-2.44 -3.27,-3.27 -15.51,-7.42 -5.15,-1.77 -9.69,-3.49 -10.03,-3.82 -0.39,-0.39 -0.89,-5.37 -1.27,-12.52 -0.5,-8.64 -0.94,-12.41 -1.55,-13.74 -0.55,-1.16 -4.49,-4.99 -10.25,-9.92 -5.1,-4.43 -9.31,-8.14 -9.31,-8.31 0,-0.17 1.66,-5.43 3.66,-11.69 2.88,-8.92 3.6,-11.91 3.38,-13.74 -0.17,-1.5 -2.16,-5.87 -5.87,-12.8 -3.05,-5.76 -5.6,-10.69 -5.6,-10.91 0,-0.22 3.38,-4.54 7.48,-9.64 4.71,-5.76 7.76,-10.08 8.14,-11.41 0.55,-1.77 0.39,-4.21 -0.83,-14.07 -1,-8.09 -1.27,-12.19 -0.89,-12.63 0.28,-0.39 4.6,-2.99 9.53,-5.82 11.3,-6.43 11.86,-6.81 13.07,-9.25 0.55,-1.16 2.22,-6.92 3.66,-12.85 1.44,-5.93 2.82,-10.97 3.05,-11.24 0.17,-0.22 5.21,-1.16 11.13,-2.05 13.9,-2.16 13.52,-2.05 15.51,-3.71 0.89,-0.78 4.38,-5.32 7.7,-10.08 3.32,-4.76 6.32,-9.09 6.76,-9.64 0.67,-0.89 1.33,-0.83 12.08,1.61 7.92,1.77 12.13,2.44 14.02,2.27 2.22,-0.17 4.04,-1.16 12.74,-6.98 5.54,-3.66 10.19,-6.7 10.36,-6.7 0.11,0 4.82,3.05 10.36,6.7l0 -0z"/>
    <path class="fil0" d="M128.98 34.68c-9.69,1.22 -24.76,5.37 -26.92,7.42 -2.22,2.11 -1.55,5.48 1.33,6.48 1.22,0.44 2.44,0.22 5.71,-0.83 6.26,-2.05 14.24,-3.88 20.16,-4.6 7.81,-1 24.48,-0.44 31.57,1.11 27.81,5.93 51.57,22.88 66.09,47.14 6.65,11.08 11.19,24.65 12.91,38.33 0.94,7.92 0.39,23.49 -1.16,31.13 -2.16,10.8 -6.54,22.21 -12.13,31.41 -3.05,4.99 -2.99,7.15 0.11,8.48 2.71,1.11 4.27,0.22 6.87,-4.04 6.7,-10.91 11.19,-22.99 13.85,-36.95 1.27,-6.92 1.61,-24.71 0.5,-32.41 -4.38,-31.3 -20.66,-57.45 -46.53,-74.89 -11.91,-7.98 -24.43,-13.24 -38.55,-16.29 -6.09,-1.27 -8.42,-1.44 -19.39,-1.61 -6.87,-0.11 -13.35,-0.06 -14.4,0.11l0 0z"/>
    <path class="fil0" d="M81.28 52.51c-24.48,16.4 -41.71,43.82 -46.2,73.51 -1.11,7.31 -1.11,22.99 0.06,30.63 4.43,30.47 21.16,56.95 46.81,74.17 12.91,8.64 28.75,14.73 44.32,17.01 7.53,1.05 22.71,1.05 30.36,0 21.11,-2.99 40.05,-11.91 56.95,-26.87 5.76,-5.04 6.7,-6.48 6.04,-9.2 -0.44,-1.55 -3.16,-2.99 -4.93,-2.55 -0.61,0.17 -3.1,2.16 -5.6,4.49 -13.9,13.07 -29.86,21.27 -48.58,25.09 -5.6,1.11 -7.87,1.27 -19.61,1.27 -11.69,0 -13.96,-0.17 -18.95,-1.27 -12.46,-2.71 -24.26,-7.76 -34.79,-14.79 -21.66,-14.46 -36.78,-36.23 -42.71,-61.49 -1.55,-6.37 -1.61,-7.2 -1.61,-20.77 0,-13.57 0.05,-14.4 1.55,-20.72 6.15,-25.87 19.44,-45.81 40.88,-61.21 5.98,-4.32 6.93,-5.82 5.1,-8.25 -1.88,-2.55 -4.21,-2.33 -9.09,0.94l0 0z"/>
    <path class="fil0" d="M141.44 61.38c-2.44,1.44 -4.6,4.21 -4.99,6.31 -0.17,1 -0.5,6.87 -0.83,13.13 -0.72,15.9 -2.55,22.38 -8.53,30.3 -3.82,5.1 -10.36,10.69 -12.35,10.69 -0.39,0 -0.72,-0.67 -0.72,-1.5 0,-2.44 -2.55,-6.09 -5.43,-7.76l-2.6 -1.55 -11.08 0 -11.08 0 -2.6 1.55c-1.61,0.94 -3.16,2.44 -4.04,3.93 -1.27,2.22 -1.38,2.88 -1.38,9.58 0,6.48 0.11,7.31 1.11,8.2 1.55,1.38 4.21,1.27 5.71,-0.17 1.05,-1.05 1.22,-1.94 1.38,-7.2 0.17,-4.32 0.44,-6.2 1.11,-6.92 0.72,-0.83 1.94,-0.94 9.8,-0.94 8.42,0 9.03,0.06 10.03,1.16 1,1.11 1.05,2.6 1.16,35.06 0.11,26.59 0,34.12 -0.55,35.23l-0.72 1.38 -9.58 0.17c-6.59,0.11 -9.86,-0.05 -10.36,-0.5 -0.61,-0.5 -0.78,-4.21 -0.78,-20.11 0,-20.05 -0.28,-23.1 -2.22,-24.15 -1.66,-0.89 -3.77,-0.67 -4.99,0.55 -1.11,1.11 -1.16,1.66 -1,23.49l0.17 22.38 1.72 2.16c0.89,1.16 2.77,2.66 4.1,3.32 2.27,1.16 3.16,1.27 12.85,1.27 8.2,0 10.91,-0.17 12.52,-0.89 2.55,-1.05 4.82,-3.16 5.65,-5.26 0.39,-0.89 0.72,-1.61 0.78,-1.61 0,0 3.05,0.78 6.7,1.77 6.54,1.72 6.93,1.72 22.05,1.99l15.4 0.22 1.39 -1.27c1.61,-1.5 1.72,-3.77 0.28,-5.54 -1.05,-1.33 -1.16,-1.33 -16.23,-1.66 -13.85,-0.28 -15.57,-0.44 -20.39,-1.77 -2.88,-0.78 -5.93,-1.66 -6.76,-2l-1.55 -0.61 0 -26.53 0 -26.53 2.49 -0.83c5.21,-1.77 13.29,-8.75 17.84,-15.4 6.15,-8.92 8.25,-16.56 9.03,-32.79 0.33,-6.48 0.72,-12.08 0.83,-12.46 0.61,-1.77 6.2,-0.22 8.7,2.44 2.66,2.88 2.77,3.71 2.55,22.38l-0.17 17.45 1.38 2.38c0.78,1.44 2.33,2.99 3.66,3.77l2.27 1.33 21.16 0c17.78,0 21.44,0.11 22.77,0.83 2.05,1.05 2.77,2.38 2.77,5.15 0,1.83 -0.33,2.49 -1.72,3.66 -1.5,1.27 -2.16,1.44 -5.98,1.44 -5.32,0 -7.26,1.11 -7.26,4.21 0,2.94 1.55,4.1 5.54,4.1 5.43,0 7.76,1.77 7.76,5.82 0,1.49 -0.44,2.44 -1.61,3.66 -1.61,1.61 -1.72,1.61 -7.7,1.61 -5.26,0 -6.26,0.17 -7.53,1.16 -1.83,1.44 -1.99,4.38 -0.33,6.04 0.89,0.89 1.83,1.11 4.43,1.11 5.48,0 7.76,1.72 7.76,5.98 0,1.83 -0.33,2.49 -1.72,3.66 -1.61,1.33 -2.05,1.44 -7.37,1.44 -4.93,0 -5.93,0.17 -7.2,1.16 -1.83,1.44 -1.99,4.38 -0.33,6.04 0.89,0.89 1.83,1.11 4.43,1.11 5.48,0 7.76,1.72 7.76,5.98 0,1.83 -0.33,2.49 -1.72,3.66 -1.66,1.44 -1.72,1.44 -11.86,1.44 -9.86,0 -10.25,0.06 -11.69,1.27 -1.99,1.72 -2.11,4.54 -0.22,6.04 1.22,1 2.16,1.05 12.96,0.89 9.81,-0.11 11.97,-0.33 13.41,-1.11 2.55,-1.38 5.21,-4.27 6.37,-6.81 1.33,-2.88 1.38,-8.42 0.11,-11.02l-0.94 -2 2.11 -1.99c1.16,-1.16 2.6,-3.1 3.16,-4.32 1.33,-2.88 1.38,-8.59 0.17,-10.97l-0.89 -1.66 2.55 -2.6c3.16,-3.21 4.21,-5.76 4.21,-10.08 0,-2.49 -0.33,-4.1 -1.38,-6.15l-1.38 -2.71 1.16 -1.22c2.11,-2.16 3.27,-5.43 3.27,-9.14 0,-4.32 -1.5,-7.7 -4.6,-10.36 -3.99,-3.43 -5.43,-3.6 -28.14,-3.6 -15.68,0 -20.5,-0.17 -20.83,-0.72 -0.22,-0.33 -0.44,-8.75 -0.44,-18.67l0 -18 -1.5 -2.77c-1.99,-3.88 -6.2,-7.59 -10.03,-9.09 -4.04,-1.5 -8.86,-1.55 -11.19,-0.11l0 0z"/>
   </g>
  </g>
 </g>
</svg>
