<?xml version="1.0" encoding="UTF-8"?>
<!DOCTYPE svg PUBLIC "-//W3C//DTD SVG 1.1//EN" "http://www.w3.org/Graphics/SVG/1.1/DTD/svg11.dtd">
<!-- Creator: CorelDRAW 2018 (64-Bit) -->
<svg xmlns="http://www.w3.org/2000/svg" xml:space="preserve" width="9.0955mm" height="9.0958mm" version="1.1" style="shape-rendering:geometricPrecision; text-rendering:geometricPrecision; image-rendering:optimizeQuality; fill-rule:evenodd; clip-rule:evenodd"
viewBox="0 0 33.12 33.12"
 xmlns:xlink="http://www.w3.org/1999/xlink">
 <defs>
  <style type="text/css">
   <![CDATA[
    .fil0 {fill:white}
   ]]>
  </style>
 </defs>
 <g id="Слой_x0020_1">
  <metadata id="CorelCorpID_0Corel-Layer"/>
  <path class="fil0" d="M29.42 0l-25.72 0c-1.02,0 -1.94,0.41 -2.61,1.08 -0.67,0.67 -1.08,1.59 -1.08,2.61l0 12.82c0,1.02 0.41,1.94 1.08,2.61 0.67,0.67 1.59,1.08 2.61,1.08l0 0 1.6 0 0.04 0.19c0.14,0.67 0.39,1.29 0.73,1.86 0.34,0.58 0.78,1.1 1.29,1.54l0.26 0.23 -0.31 0.16c-1.44,0.75 -2.64,1.89 -3.48,3.27 -0.81,1.33 -1.27,2.9 -1.27,4.57 0,0.3 0.12,0.56 0.31,0.76 0.19,0.19 0.46,0.31 0.76,0.31l0 0 15.56 0 0 -0c0.3,0 0.56,-0.12 0.76,-0.31 0.19,-0.19 0.31,-0.46 0.31,-0.76 0,-1.66 -0.46,-3.22 -1.26,-4.55 -0.83,-1.38 -2.02,-2.51 -3.45,-3.27l-0.31 -0.16 0.27 -0.23c0.51,-0.44 0.95,-0.97 1.3,-1.55 0.34,-0.57 0.59,-1.21 0.73,-1.88l0.04 -0.19 3.08 0 0 4.09c0,0.31 0.12,0.57 0.3,0.75 0.1,0.1 0.22,0.18 0.36,0.24 0.13,0.05 0.28,0.08 0.42,0.08 0.26,0 0.53,-0.1 0.75,-0.31l-0 -0 4.85 -4.85 2.09 0 0 -0c1.02,0 1.94,-0.41 2.61,-1.08 0.67,-0.67 1.08,-1.59 1.08,-2.61l0 -12.82c0,-1.02 -0.41,-1.94 -1.08,-2.61 -0.67,-0.67 -1.59,-1.08 -2.61,-1.08l-0 0zm-17.99 23.19c-1.13,0 -2.15,-0.46 -2.89,-1.2 -0.74,-0.74 -1.2,-1.76 -1.2,-2.89 0,-1.13 0.46,-2.15 1.2,-2.89 0.74,-0.74 1.76,-1.2 2.89,-1.2 1.13,0 2.15,0.46 2.89,1.2 0.74,0.74 1.2,1.76 1.2,2.89 0,1.13 -0.46,2.15 -1.2,2.89 -0.74,0.74 -1.76,1.2 -2.89,1.2zm6.3 7.78l-12.96 0 0.06 -0.29c0.32,-1.54 1.16,-2.89 2.34,-3.84 1.15,-0.94 2.63,-1.5 4.23,-1.5 1.6,0 3.07,0.56 4.23,1.5 1.18,0.96 2.02,2.3 2.34,3.84l0.06 0.29 -0.29 0zm13.24 -14.46c0,0.43 -0.17,0.82 -0.46,1.1 -0.28,0.28 -0.67,0.46 -1.1,0.46l0 -0 -2.54 0 0 0c-0.14,0 -0.28,0.03 -0.41,0.08 -0.13,0.05 -0.25,0.13 -0.35,0.23l-3.33 3.33 0 -2.57c0,-0.3 -0.12,-0.56 -0.31,-0.76 -0.19,-0.19 -0.46,-0.31 -0.76,-0.31l0 -0 -4.14 0 -0.04 -0.19c-0.29,-1.44 -1.07,-2.7 -2.17,-3.6 -1.07,-0.88 -2.45,-1.41 -3.94,-1.41 -1.49,0 -2.87,0.53 -3.94,1.41 -1.1,0.9 -1.88,2.16 -2.17,3.6l-0.04 0.19 -1.58 0c-0.43,0 -0.82,-0.17 -1.1,-0.46 -0.28,-0.28 -0.46,-0.67 -0.46,-1.1l0 -12.82c0,-0.43 0.17,-0.82 0.46,-1.1 0.28,-0.28 0.67,-0.46 1.1,-0.46l0 0 25.72 0 0 -0c0.43,0 0.82,0.17 1.1,0.46 0.28,0.28 0.46,0.67 0.46,1.1l-0 0 0 12.82 0 0zm-3.33 -9.52c0.19,-0.19 0.31,-0.46 0.31,-0.76 0,-0.3 -0.12,-0.56 -0.31,-0.76 -0.19,-0.19 -0.46,-0.31 -0.76,-0.31l-20.65 0c-0.3,0 -0.56,0.12 -0.76,0.31 -0.19,0.19 -0.31,0.46 -0.31,0.76 0,0.3 0.12,0.56 0.31,0.76 0.19,0.19 0.46,0.31 0.76,0.31l20.65 0c0.3,0 0.56,-0.12 0.76,-0.31zm0 5.16c0.19,-0.19 0.31,-0.46 0.31,-0.76 0,-0.3 -0.12,-0.56 -0.31,-0.76 -0.19,-0.19 -0.46,-0.31 -0.76,-0.31l0 -0 -10.32 0 0 0c-0.3,0 -0.56,0.12 -0.76,0.31 -0.19,0.19 -0.31,0.46 -0.31,0.76 0,0.3 0.12,0.56 0.31,0.76 0.19,0.19 0.46,0.31 0.76,0.31l0 0 10.32 0 0 -0c0.3,0 0.56,-0.12 0.76,-0.31z"/>
 </g>
</svg>
