<?xml version="1.0" encoding="UTF-8"?>
<!DOCTYPE svg PUBLIC "-//W3C//DTD SVG 1.1//EN" "http://www.w3.org/Graphics/SVG/1.1/DTD/svg11.dtd">
<!-- Creator: CorelDRAW 2018 (64-Bit) -->
<svg xmlns="http://www.w3.org/2000/svg" xml:space="preserve" width="22.5778mm" height="22.5777mm" version="1.1" style="shape-rendering:geometricPrecision; text-rendering:geometricPrecision; image-rendering:optimizeQuality; fill-rule:evenodd; clip-rule:evenodd"
viewBox="0 0 482.94 482.94"
 xmlns:xlink="http://www.w3.org/1999/xlink"
 xmlns:svgjs="http://svgjs.com/svgjs">
 <defs>
  <style type="text/css">
   <![CDATA[
    .fil0 {fill:#898989}
   ]]>
  </style>
 </defs>
 <g id="Слой_x0020_1">
  <metadata id="CorelCorpID_0Corel-Layer"/>
  <g id="_2882610321328">
   <g>
    <path class="fil0" d="M475.15 46.73l-185.69 0 -139 -46.33c-0.79,-0.27 -1.63,-0.4 -2.46,-0.4 -0.84,0 -1.67,0.13 -2.46,0.4l-140.21 46.74c-3.18,1.06 -5.33,4.03 -5.33,7.38l0 428.41 15.58 0 0 -33.34 124.63 -41.54 0 28.14 15.58 0 0 -28.14 124.63 41.54 0 33.34 15.58 0 0 -31.16 171.37 0 0 31.16 15.58 0 0 -428.41c0,-4.3 -3.49,-7.79 -7.79,-7.79zm-459.57 60.13l54.53 -18.17 0 287.37 -54.53 18.17 0 -287.37zm70.1 -23.37l54.53 -18.17 -0 287.37 -54.53 18.17 0 -287.37zm210.31 313.75l0 -288.2 77.89 0 0 288.2 -77.89 0zm-15.58 -3.01l-54.53 -18.18 0 -287.36 54.53 18.17 0 287.37zm-70.1 -23.37l-54.53 -18.17 0 -287.37 54.53 18.17 0 287.37zm-54.53 -1.76l124.63 41.54 0 22.53 -124.63 -41.53 0 -22.53zm140.21 43.72l171.37 0 0 23.37 -171.37 0 0 -23.37zm171.37 -15.58l-77.89 0 0 -288.2 77.89 0 0 288.2zm0 -303.78l-171.37 0 0 -31.16 171.37 0 0 31.16zm-186.94 -3.02l-124.63 -41.54 0 -30.32 124.63 41.55 0 30.32zm-140.21 -71.86l0 30.32 -124.63 41.54 0 -30.32 124.63 -41.55zm-124.63 392.06l124.63 -41.54 0 22.53 -124.63 41.53 0 -22.53z" data-original="#000000"/>
   </g>
  </g>
 </g>
</svg>
