<?xml version="1.0" encoding="UTF-8"?>
<!DOCTYPE svg PUBLIC "-//W3C//DTD SVG 1.1//EN" "http://www.w3.org/Graphics/SVG/1.1/DTD/svg11.dtd">
<!-- Creator: CorelDRAW 2018 (64-Bit) -->
<svg xmlns="http://www.w3.org/2000/svg" xml:space="preserve" width="28.2221mm" height="28.2506mm" version="1.1" style="shape-rendering:geometricPrecision; text-rendering:geometricPrecision; image-rendering:optimizeQuality; fill-rule:evenodd; clip-rule:evenodd"
viewBox="0 0 949.44 950.39"
 xmlns:xlink="http://www.w3.org/1999/xlink">
 <defs>
  <style type="text/css">
   <![CDATA[
    .fil0 {fill:#FDB44B}
   ]]>
  </style>
 </defs>
 <g id="Слой_x0020_1">
  <metadata id="CorelCorpID_0Corel-Layer"/>
  <g id="_2882606122432">
   <g>
    <path class="fil0" d="M744.41 122.63l-122.63 122.63 -306.2 0 -306.2 0 -4.6 4.79 -4.79 4.6 0 343.17 0 343.18 4.79 4.79 4.6 4.6 427.87 -0.38 427.87 -0.58 12.65 -4.98c7.09,-2.68 16.67,-7.09 21.27,-9.96 19.35,-11.31 37.75,-34.88 45.99,-58.44l4.41 -12.84 0 -280.71c0,-269.21 -0.19,-281.09 -3.64,-291.25 -12.07,-35.83 -36.41,-59.98 -72.05,-72.05 -14.76,-4.98 -46.75,-4.98 -61.32,0 -14.95,5.17 -24.53,10.16 -35.26,18.59 -5.37,4.41 -11.5,7.47 -14.37,7.47 -4.02,0 9.58,-14.56 83.73,-88.72 82.39,-82.39 88.52,-89.1 88.52,-95.23 0,-5.94 -2.68,-9.39 -27.4,-33.92 -24.52,-24.72 -27.97,-27.4 -33.91,-27.4 -6.13,0 -14.56,7.86 -129.34,122.63l0 0zm141.79 -72.81l11.5 11.5 -150.03 150.03 -149.84 149.84 -11.88 -12.07 -12.07 -11.88 149.46 -149.46c82.2,-82.2 149.84,-149.46 150.41,-149.46 0.58,0 6.13,5.17 12.46,11.5l-0 0zm-11.69 202.72c17.44,8.05 28.55,19.16 37.17,36.41l7.09 14.56 0.58 231.66c0.38,187.2 0,231.46 -1.92,229.93 -22.23,-17.63 -37.36,-24.72 -58.83,-27.78 -29.12,-4.22 -61.32,4.41 -82.58,22.42l-8.62 7.28 -0.58 -45.79c-0.19,-25.3 -0.19,-129.53 0,-231.66l0.58 -185.86 6.13 -12.84c7.66,-16.29 18.58,-28.17 32.96,-35.64 14.95,-8.05 23.38,-9.96 40.81,-9.2 11.69,0.58 17.63,2.11 27.21,6.51zm-310.41 50.59c-22.23,22.99 -28.36,30.47 -36.98,45.99l-10.54 18.78 -192.19 0 -192.38 0 -4.6 4.79 -4.79 4.6 0 220.54 0 220.55 4.79 4.6 4.6 4.79 251.2 0 251.2 0 4.6 -4.79 4.79 -4.6 0 -220.55 0 -220.54 -4.6 -4.6 -4.41 -4.41 19.73 -19.73c15.91,-15.91 19.93,-18.97 19.93,-15.52 0,4.02 0.77,4.22 15.33,4.22l15.33 0 0 -15.33c0,-14.56 -0.19,-15.33 -4.22,-15.33 -3.64,0 -1.53,-2.68 10.92,-15.33 14.76,-14.95 15.52,-15.33 24.34,-15.33 5.17,0 9.2,0.38 9.2,0.58 0,0.38 -1.92,5.75 -4.22,12.07l-4.41 11.31 -0.58 274.58 -0.38 274.58 4.6 4.6c6.13,6.13 15.14,6.32 21.08,0.38 3.26,-3.26 4.6,-7.48 5.56,-17.44 2.49,-27.21 18.2,-49.63 43.11,-62.08 13.8,-6.71 15.52,-7.09 32.96,-7.09 17.44,0 19.16,0.38 32.96,7.09 17.44,8.62 28.16,19.73 36.6,37.55 5.56,11.69 6.13,14.56 6.13,31.04 0,16.48 -0.58,19.35 -6.13,31.04 -8.43,17.82 -19.16,28.94 -36.6,37.56l-14.56 7.09 -415.41 0.58 -415.42 0.38 0 -321.91 0 -321.91 280.14 0 280.14 0 -26.83 27.21 0 0zm-0.38 68.02c4.02,3.83 7.28,7.66 7.28,8.43 0,0.76 -6.7,5.17 -14.75,9.96 -20.31,11.5 -24.14,13.41 -23.19,11.5 8.81,-16.1 21.46,-36.98 22.23,-36.98 0.77,0 4.41,3.26 8.43,7.09zm-287.8 99.25l0 72.05 4.79 4.6 4.6 4.79 56.72 0 56.52 0 0 122.63 0 122.63 -122.63 0 -122.63 0 0 -199.28 0 -199.28 61.32 0 61.32 0 0 71.85 0 0zm222.27 -71.09c0,0.38 -5.17,9.77 -11.5,20.89 -6.32,10.92 -11.5,22.22 -11.5,25.1 0,6.51 7.86,14.56 14.37,14.56 2.68,0 27.98,-13.22 58.83,-30.66 34.68,-19.74 55.76,-30.66 59.21,-30.66l5.56 0 0 107.3 0 107.3 -91.98 0 -91.97 0 0 -41.19c0,-41.39 0,-41.39 -4.79,-45.99l-4.6 -4.79 -56.72 0 -56.52 0 0 -61.32 0 -61.32 95.8 0c52.7,0 95.81,0.38 95.81,0.77l0 -0zm114.97 321.14l0 76.64 -91.97 0 -91.98 0 0 -76.64 0 -76.65 91.98 0 91.97 0 0 76.65z"/>
    <polygon class="fil0" points="61.32,321.91 61.32,337.24 76.65,337.24 91.97,337.24 91.97,321.91 91.97,306.58 76.65,306.58 61.32,306.58 "/>
    <polygon class="fil0" points="122.63,321.91 122.63,337.24 137.96,337.24 153.29,337.24 153.29,321.91 153.29,306.58 137.96,306.58 122.63,306.58 "/>
    <polygon class="fil0" points="183.95,321.91 183.95,337.24 199.28,337.24 214.61,337.24 214.61,321.91 214.61,306.58 199.28,306.58 183.95,306.58 "/>
    <polygon class="fil0" points="245.26,321.91 245.26,337.24 260.59,337.24 275.92,337.24 275.92,321.91 275.92,306.58 260.59,306.58 245.26,306.58 "/>
    <polygon class="fil0" points="306.58,321.91 306.58,337.24 321.91,337.24 337.24,337.24 337.24,321.91 337.24,306.58 321.91,306.58 306.58,306.58 "/>
    <polygon class="fil0" points="367.89,321.91 367.89,337.24 383.22,337.24 398.55,337.24 398.55,321.91 398.55,306.58 383.22,306.58 367.89,306.58 "/>
    <polygon class="fil0" points="429.21,321.91 429.21,337.24 444.54,337.24 459.87,337.24 459.87,321.91 459.87,306.58 444.54,306.58 429.21,306.58 "/>
    <polygon class="fil0" points="490.52,321.91 490.52,337.24 505.85,337.24 521.18,337.24 521.18,321.91 521.18,306.58 505.85,306.58 490.52,306.58 "/>
    <polygon class="fil0" points="61.32,383.22 61.32,398.55 76.65,398.55 91.97,398.55 91.97,383.22 91.97,367.89 76.65,367.89 61.32,367.89 "/>
    <polygon class="fil0" points="674.47,383.22 674.47,398.55 689.8,398.55 705.13,398.55 705.13,383.22 705.13,367.89 689.8,367.89 674.47,367.89 "/>
    <polygon class="fil0" points="61.32,444.54 61.32,459.87 76.65,459.87 91.97,459.87 91.97,444.54 91.97,429.21 76.65,429.21 61.32,429.21 "/>
    <polygon class="fil0" points="674.47,444.54 674.47,459.87 689.8,459.87 705.13,459.87 705.13,444.54 705.13,429.21 689.8,429.21 674.47,429.21 "/>
    <polygon class="fil0" points="61.32,505.85 61.32,521.19 76.65,521.19 91.97,521.19 91.97,505.85 91.97,490.53 76.65,490.53 61.32,490.53 "/>
    <polygon class="fil0" points="674.47,505.85 674.47,521.19 689.8,521.19 705.13,521.19 705.13,505.85 705.13,490.53 689.8,490.53 674.47,490.53 "/>
    <polygon class="fil0" points="61.32,567.17 61.32,582.5 76.65,582.5 91.97,582.5 91.97,567.17 91.97,551.84 76.65,551.84 61.32,551.84 "/>
    <polygon class="fil0" points="674.47,567.17 674.47,582.5 689.8,582.5 705.13,582.5 705.13,567.17 705.13,551.84 689.8,551.84 674.47,551.84 "/>
    <polygon class="fil0" points="61.32,628.49 61.32,643.82 76.65,643.82 91.97,643.82 91.97,628.49 91.97,613.16 76.65,613.16 61.32,613.16 "/>
    <polygon class="fil0" points="674.47,628.49 674.47,643.82 689.8,643.82 705.13,643.82 705.13,628.49 705.13,613.16 689.8,613.16 674.47,613.16 "/>
    <polygon class="fil0" points="61.32,689.8 61.32,705.13 76.65,705.13 91.97,705.13 91.97,689.8 91.97,674.47 76.65,674.47 61.32,674.47 "/>
    <polygon class="fil0" points="674.47,689.8 674.47,705.13 689.8,705.13 705.13,705.13 705.13,689.8 705.13,674.47 689.8,674.47 674.47,674.47 "/>
    <polygon class="fil0" points="61.32,751.12 61.32,766.45 76.65,766.45 91.97,766.45 91.97,751.12 91.97,735.79 76.65,735.79 61.32,735.79 "/>
    <polygon class="fil0" points="674.47,751.12 674.47,766.45 689.8,766.45 705.13,766.45 705.13,751.12 705.13,735.79 689.8,735.79 674.47,735.79 "/>
    <polygon class="fil0" points="61.32,812.43 61.32,827.76 76.65,827.76 91.97,827.76 91.97,812.43 91.97,797.11 76.65,797.11 61.32,797.11 "/>
    <polygon class="fil0" points="674.47,812.43 674.47,827.76 689.8,827.76 705.13,827.76 705.13,812.43 705.13,797.11 689.8,797.11 674.47,797.11 "/>
    <polygon class="fil0" points="61.32,873.75 61.32,889.08 76.65,889.08 91.97,889.08 91.97,873.75 91.97,858.42 76.65,858.42 61.32,858.42 "/>
    <polygon class="fil0" points="122.63,873.75 122.63,889.08 137.96,889.08 153.29,889.08 153.29,873.75 153.29,858.42 137.96,858.42 122.63,858.42 "/>
    <polygon class="fil0" points="183.95,873.75 183.95,889.08 199.28,889.08 214.61,889.08 214.61,873.75 214.61,858.42 199.28,858.42 183.95,858.42 "/>
    <polygon class="fil0" points="245.26,873.75 245.26,889.08 260.59,889.08 275.92,889.08 275.92,873.75 275.92,858.42 260.59,858.42 245.26,858.42 "/>
    <polygon class="fil0" points="306.58,873.75 306.58,889.08 321.91,889.08 337.24,889.08 337.24,873.75 337.24,858.42 321.91,858.42 306.58,858.42 "/>
    <polygon class="fil0" points="367.89,873.75 367.89,889.08 383.22,889.08 398.55,889.08 398.55,873.75 398.55,858.42 383.22,858.42 367.89,858.42 "/>
    <polygon class="fil0" points="429.21,873.75 429.21,889.08 444.54,889.08 459.87,889.08 459.87,873.75 459.87,858.42 444.54,858.42 429.21,858.42 "/>
    <polygon class="fil0" points="490.52,873.75 490.52,889.08 505.85,889.08 521.18,889.08 521.18,873.75 521.18,858.42 505.85,858.42 490.52,858.42 "/>
    <polygon class="fil0" points="551.84,873.75 551.84,889.08 567.17,889.08 582.5,889.08 582.5,873.75 582.5,858.42 567.17,858.42 551.84,858.42 "/>
    <polygon class="fil0" points="613.16,873.75 613.16,889.08 628.48,889.08 643.82,889.08 643.82,873.75 643.82,858.42 628.48,858.42 613.16,858.42 "/>
    <polygon class="fil0" points="674.47,873.75 674.47,889.08 689.8,889.08 705.13,889.08 705.13,873.75 705.13,858.42 689.8,858.42 674.47,858.42 "/>
   </g>
  </g>
 </g>
</svg>
