<?xml version="1.0" encoding="UTF-8"?>
<!DOCTYPE svg PUBLIC "-//W3C//DTD SVG 1.1//EN" "http://www.w3.org/Graphics/SVG/1.1/DTD/svg11.dtd">
<!-- Creator: CorelDRAW 2018 (64-Bit) -->
<svg xmlns="http://www.w3.org/2000/svg" xml:space="preserve" width="38.0503mm" height="38.0502mm" version="1.1" style="shape-rendering:geometricPrecision; text-rendering:geometricPrecision; image-rendering:optimizeQuality; fill-rule:evenodd; clip-rule:evenodd"
viewBox="0 0 3640.77 3640.76"
 xmlns:xlink="http://www.w3.org/1999/xlink"
 enable-background="new 0 0 512 512">
 <defs>
  <style type="text/css">
   <![CDATA[
    .fil0 {fill:#FDB44B}
   ]]>
  </style>
 </defs>
 <g id="Слой_x0020_1">
  <metadata id="CorelCorpID_0Corel-Layer"/>
  <g id="_2882338427056">
   <g>
    <path class="fil0" d="M1178.18 729.9c29.46,0 53.32,-23.87 53.32,-53.33l0 -133.8 132.56 0c29.46,0 53.33,-23.87 53.33,-53.33 0,-29.46 -23.87,-53.33 -53.33,-53.33l-145.94 0.01c-51.43,0 -93.28,41.84 -93.28,93.28l0 147.17c0,29.46 23.87,53.34 53.33,53.34zm1862.27 -187.14l130.1 0 0 133.79c0,29.46 23.86,53.33 53.32,53.33 29.46,0 53.33,-23.87 53.33,-53.33l0 -147.17c0,-51.44 -41.84,-93.28 -93.28,-93.28l-143.48 0c-29.46,0 -53.33,23.86 -53.33,53.32 0,29.46 23.87,53.33 53.33,53.33l0 0zm0 2045.71l143.47 0c51.45,0 93.29,-41.84 93.29,-93.28l0 -142.24c0,-29.46 -23.87,-53.33 -53.33,-53.33 -29.46,0 -53.33,23.87 -53.33,53.33l0 128.87 -130.09 0c-29.46,0 -53.33,23.87 -53.33,53.33 0,29.46 23.87,53.32 53.33,53.32zm-1822.32 0l145.93 0c29.46,0 53.33,-23.86 53.33,-53.32 0,-29.46 -23.87,-53.33 -53.33,-53.33l-132.56 0 0 -128.87c0,-29.46 -23.86,-53.33 -53.32,-53.33 -29.46,0 -53.33,23.87 -53.33,53.33l0 142.24c0.01,51.44 41.84,93.28 93.28,93.28l0.01 0zm2277.66 297.88l-2703.08 0c-21.13,0 -38.31,-17.18 -38.31,-38.31l0 -2703.08c0,-79.93 -65.05,-144.97 -144.99,-144.97l-464.44 0c-79.94,0 -144.98,65.04 -144.98,144.97l0 867.51c0,29.46 23.87,53.33 53.33,53.33 29.46,0 53.33,-23.87 53.33,-53.33l0 -867.51c0,-21.13 17.18,-38.31 38.31,-38.31l464.44 0c21.14,0 38.32,17.18 38.32,38.31l0 259.16 -180.78 0c-29.46,0 -53.33,23.87 -53.33,53.33 0,29.46 23.87,53.33 53.33,53.33l180.78 0 0 233.18 -110.87 0c-29.46,0 -53.32,23.87 -53.32,53.33 0,29.45 23.86,53.32 53.32,53.32l110.87 0 0 233.17 -180.78 0c-29.46,0 -53.33,23.87 -53.33,53.33 0,29.46 23.87,53.33 53.33,53.33l180.78 0 0 233.18 -110.87 0c-29.46,0 -53.32,23.87 -53.32,53.33 0,29.46 23.86,53.33 53.32,53.33l110.87 -0.01 0 233.18 -180.78 0c-29.46,0 -53.33,23.86 -53.33,53.32 0,29.46 23.87,53.33 53.33,53.33l180.78 0 0 233.18 -110.87 0c-29.46,0 -53.32,23.87 -53.32,53.33 0,29.46 23.86,53.33 53.32,53.33l110.87 0 0 233.18 -180.78 0c-29.46,0 -53.33,23.86 -53.33,53.32 0,29.46 23.87,53.33 53.33,53.33l180.78 0 0 298.22c0,20.46 4.26,39.94 11.94,57.61l-553.01 553.02 0 -2196.87c0,-29.46 -23.87,-53.33 -53.33,-53.33 -29.46,0 -53.33,23.87 -53.33,53.33l0 2233.98c0,79.9 65,144.98 144.98,144.98l3350.81 0c79.94,0 144.98,-65.04 144.98,-144.98l0 -464.44c-0.01,-79.94 -65.05,-144.99 -144.98,-144.99zm38.31 609.42c0,21.13 -17.18,38.31 -38.31,38.31l-3313.7 0 553.01 -553.01c17.66,7.68 37.14,11.94 57.6,11.94l264.36 0 0 180.89c0,29.46 23.87,53.33 53.33,53.33 29.46,0 53.33,-23.87 53.33,-53.33l0 -180.89 233.17 0 0 110.97c0,29.46 23.87,53.33 53.33,53.33 29.46,0 53.33,-23.87 53.33,-53.33l0 -110.97 233.17 0 0 180.89c0,29.46 23.87,53.33 53.33,53.33 29.46,0 53.33,-23.87 53.33,-53.33l0 -180.89 233.18 0 0 110.97c0,29.46 23.86,53.33 53.32,53.33 29.46,0 53.33,-23.87 53.33,-53.33l0 -110.97 233.17 0 0 180.89c0,29.46 23.87,53.33 53.33,53.33 29.46,0 53.33,-23.87 53.33,-53.33l0 -180.89 233.18 0 0 110.97c0,29.46 23.87,53.33 53.33,53.33 29.46,0 53.32,-23.87 53.32,-53.33l0 -110.97 233.18 0 0 180.89c0,29.46 23.86,53.33 53.32,53.33 29.46,0 53.33,-23.87 53.33,-53.33l0 -180.89 293.03 0c21.13,0 38.31,17.18 38.31,38.32l0 464.44zm-2023.72 -1492.12l610.41 352.43c49.5,28.57 110.97,28.58 160.45,0l610.41 -352.43c49.49,-28.56 80.23,-81.8 80.23,-138.95l0 -704.85c0,-57.07 -30.69,-110.36 -80.22,-138.95l-610.42 -352.42c-49.48,-28.57 -110.96,-28.57 -160.45,0l-610.41 352.43c-49.44,28.53 -80.23,81.77 -80.23,138.94l0 704.86c0,57.13 30.74,110.38 80.23,138.94l0 0zm53.32 -92.37c-16.58,-9.58 -26.89,-27.42 -26.89,-46.58l0 -674.32 610.87 352.68 0 705.38 -583.98 -337.16zm610.42 -1150.43c16.59,-9.58 37.19,-9.6 53.78,0l583.98 337.16 -201.14 116.12c-25.51,14.73 -34.24,47.34 -19.52,72.85 14.79,25.63 47.47,34.18 72.85,19.52l201.14 -116.12 0 674.33c0,19.15 -10.31,36.99 -26.89,46.57l-583.98 337.16 0 -705.38 190.11 -109.76c25.51,-14.73 34.24,-47.34 19.52,-72.85 -14.72,-25.51 -47.35,-34.24 -72.85,-19.52l-190.11 109.76 -610.87 -352.68 583.97 -337.16z"/>
   </g>
  </g>
 </g>
</svg>
