<?xml version="1.0" encoding="UTF-8"?>
<!DOCTYPE svg PUBLIC "-//W3C//DTD SVG 1.1//EN" "http://www.w3.org/Graphics/SVG/1.1/DTD/svg11.dtd">
<!-- Creator: CorelDRAW 2018 (64-Bit) -->
<svg xmlns="http://www.w3.org/2000/svg" xml:space="preserve" width="32.616mm" height="32.6163mm" version="1.1" style="shape-rendering:geometricPrecision; text-rendering:geometricPrecision; image-rendering:optimizeQuality; fill-rule:evenodd; clip-rule:evenodd"
viewBox="0 0 1136.35 1136.36"
 xmlns:xlink="http://www.w3.org/1999/xlink"
 xmlns:svgjs="http://svgjs.com/svgjs">
 <defs>
  <style type="text/css">
   <![CDATA[
    .fil0 {fill:#898989}
   ]]>
  </style>
 </defs>
 <g id="Слой_x0020_1">
  <metadata id="CorelCorpID_0Corel-Layer"/>
  <g id="_2882345356064">
   <g>
    <g>
     <g id="Page-1_5_">
      <g id="_3006---Draw-Blueprint">
       <path id="Shape_17_" class="fil0" d="M1136.35 112.84c0.07,-15.43 -6.07,-30.24 -17.05,-41.1l-54.69 -54.7c-10.8,-10.92 -25.53,-17.06 -40.89,-17.05l-0.19 0c-15.27,0.01 -29.89,6.15 -40.59,17.05l-248.1 248.1 -488.63 0 0 -208.33c0,-31.38 -25.44,-56.82 -56.82,-56.82l-37.88 0c-83.64,0.09 -151.42,67.88 -151.51,151.51l0 838.08c4.74,83 73.88,147.62 157.01,146.76l922.52 0c31.38,0 56.82,-25.44 56.82,-56.81l0 -757.57c0,-31.38 -25.44,-56.82 -56.82,-56.82l-71.97 0 111.74 -111.74c10.87,-10.7 17.01,-25.31 17.04,-40.57zm-458.71 360.64c-4.01,0.55 -8.04,-0.86 -10.83,-3.79 -2.82,-2.8 -4.21,-6.73 -3.79,-10.68l7.18 -64.39c0.3,-1.34 0.68,-2.68 1.14,-3.98l74.6 74.6c-1.23,0.26 -2.35,0.87 -3.64,1.02l-64.66 7.21zm99.22 -30.93l-82.88 -82.9 206.44 -206.44 82.84 82.82 -206.4 206.51zm150.27 -316.13l28.08 -28.07 82.8 82.82 -28.07 28.08 -82.82 -82.84zm-889.25 25.1c0.06,-62.73 50.9,-113.57 113.63,-113.63l37.88 0c10.46,0 18.94,8.48 18.94,18.94l0 757.57c0,10.46 -8.48,18.94 -18.94,18.94l-37.88 0c-43.51,-0.01 -84.92,18.72 -113.63,51.4l0 -733.21zm1041.65 151.51c10.46,0 18.94,8.48 18.94,18.94l0 757.57c0,10.46 -8.48,18.94 -18.94,18.94l-922.52 0c-62.52,1.05 -114.9,-47.08 -119.13,-109.47l0 -4.17c0.06,-62.73 50.9,-113.57 113.63,-113.63l37.88 0c31.38,0 56.82,-25.44 56.82,-56.81l0 -511.36 450.75 0 -43.01 43.01c-12.01,11.83 -19.56,27.45 -21.38,44.21l-7.18 64.52c-0.59,6.29 0.01,12.64 1.76,18.71l-324.12 0c-10.46,0 -18.94,8.48 -18.94,18.94 0,10.46 8.48,18.94 18.94,18.94l56.82 0 0 511.36c0,10.46 8.48,18.94 18.94,18.94 10.46,0 18.94,-8.48 18.94,-18.94l0 -265.15 208.33 0 0 151.51 -132.57 0c-10.46,0 -18.94,8.48 -18.94,18.94 0,10.46 8.48,18.94 18.94,18.94l378.78 0c20.92,0 37.88,-16.96 37.88,-37.88l0 -284.08c0,-10.46 -8.48,-18.94 -18.94,-18.94 -10.46,0 -18.94,8.48 -18.94,18.94l0 94.69 -454.54 0 0 -208.33 278.56 0c1.85,0 3.69,-0.1 5.53,-0.3l64.72 -7.37c16.42,-1.86 31.76,-9.16 43.56,-20.74l179.7 -179.92 109.75 0 0 -0zm-227.27 454.54l0 151.51 -208.33 0 0 -151.51 208.33 0zm240.34 -631.02l-27.8 27.82 -82.8 -82.8 27.82 -27.82c3.64,-3.73 8.63,-5.85 13.85,-5.87 5.31,0.01 10.39,2.16 14.11,5.95l54.77 54.66c3.81,3.75 5.94,8.88 5.93,14.22 -0.02,5.22 -2.14,10.21 -5.87,13.84l0 0z" data-original="#000000"/>
      </g>
     </g>
    </g>
   </g>
  </g>
 </g>
</svg>
