<?xml version="1.0" encoding="UTF-8"?>
<!DOCTYPE svg PUBLIC "-//W3C//DTD SVG 1.1//EN" "http://www.w3.org/Graphics/SVG/1.1/DTD/svg11.dtd">
<!-- Creator: CorelDRAW 2018 (64-Bit) -->
<svg xmlns="http://www.w3.org/2000/svg" xml:space="preserve" width="25.4472mm" height="25.4472mm" version="1.1" style="shape-rendering:geometricPrecision; text-rendering:geometricPrecision; image-rendering:optimizeQuality; fill-rule:evenodd; clip-rule:evenodd"
viewBox="0 0 417.15 417.15"
 xmlns:xlink="http://www.w3.org/1999/xlink"
 enable-background="new 0 0 512 512">
 <defs>
  <style type="text/css">
   <![CDATA[
    .fil0 {fill:#FDB44B}
   ]]>
  </style>
 </defs>
 <g id="Слой_x0020_1">
  <metadata id="CorelCorpID_0Corel-Layer"/>
  <g id="_2882607044800">
   <g>
    <path class="fil0" d="M389.34 125.14l-104.29 0c-11.52,0 -20.86,9.34 -20.86,20.86l0 143.85c0.53,29.86 -22.14,55.04 -51.89,57.64 -15.36,1.03 -30.47,-4.35 -41.72,-14.87 -11.25,-10.52 -17.63,-25.23 -17.63,-40.63l0 -146c0,-11.52 -9.34,-20.86 -20.86,-20.86l-104.29 0c-15.36,0 -27.81,12.45 -27.81,27.81l0 236.38c0,15.36 12.45,27.81 27.81,27.81l361.53 0c15.36,0 27.81,-12.45 27.81,-27.81l0 -236.38c0,-15.36 -12.45,-27.81 -27.81,-27.81zm-111.24 164.71l0 -34.11 26.31 42.76c-8.06,-4.46 -17.16,-6.71 -26.38,-6.5l-0.04 0c0.03,-0.7 0.1,-1.39 0.1,-2.15zm54.04 27.18l-54.04 -87.83 0 -13.68 23.92 0 62.16 100.98c-5.21,2.3 -10.87,3.43 -16.56,3.3 -5.29,0.1 -10.55,-0.85 -15.48,-2.78l0 0zm45.8 -9.79c-0.7,0.58 -1.39,1.13 -2.09,1.69l-57.5 -93.41 32.33 0 48.49 78.81c-7.83,2.93 -15.04,7.32 -21.24,12.93l0 -0.01 0 0zm-10.92 -91.72l36.22 0 0 58.87 -36.22 -58.87zm-81.97 -76.48l104.29 0c7.68,0 13.9,6.23 13.9,13.9l0 48.67 -125.14 0 0 -55.62c0,-3.84 3.11,-6.95 6.95,-6.95zm-146 152.95l-0.07 0c-9.13,-0.2 -18.16,2 -26.17,6.39l26.24 -42.65 0 36.26 -0 0zm-72.59 -76.48l32.33 0 -57.5 93.43 -2.09 -1.68c-6.2,-5.61 -13.41,-10 -21.25,-12.94l48.5 -78.81zm-52.55 58.87l0 -58.87 36.22 0 -36.22 58.87zm101.22 -58.87l23.92 0 0 13.68 -54.01 87.79c-4.96,1.96 -10.26,2.92 -15.59,2.82 -5.68,0.12 -11.31,-1 -16.5,-3.29l62.17 -101zm-87.32 -76.48l104.29 0c3.84,0 6.95,3.11 6.95,6.95l0 55.62 -125.14 0 0 -48.67c0,-7.68 6.22,-13.9 13.9,-13.9zm361.53 264.19l-361.53 0c-7.68,0 -13.9,-6.23 -13.9,-13.91l0 -81.68c6.09,2.45 11.7,5.98 16.53,10.43 10.46,10.12 24.47,15.73 39.02,15.64 14.54,0.1 28.55,-5.43 39.11,-15.43 8.09,-8 19.04,-12.46 30.42,-12.38 0.55,0 1,0.03 1.51,0.04 2.89,14.1 10.07,26.95 20.55,36.81 14.01,13.23 32.92,19.99 52.14,18.65 30.98,-2.46 56.64,-25.01 63.06,-55.42 0.59,0 1.13,-0.06 1.77,-0.06 11.38,-0.07 22.32,4.38 30.42,12.37 10.58,10.01 24.63,15.54 39.19,15.42 14.58,0.09 28.61,-5.54 39.09,-15.67 4.84,-4.43 10.44,-7.96 16.53,-10.39l0 81.68c0,7.68 -6.23,13.91 -13.91,13.91l0 0z"/>
    <path class="fil0" d="M55.62 347.62l-20.86 0c-3.84,0 -6.95,3.11 -6.95,6.95 0,3.84 3.11,6.95 6.95,6.95l20.86 0c3.84,0 6.95,-3.11 6.95,-6.95 -0,-3.84 -3.11,-6.95 -6.95,-6.95z"/>
    <path class="fil0" d="M132.1 347.62l-20.86 0c-3.84,0 -6.95,3.11 -6.95,6.95 0,3.84 3.11,6.95 6.95,6.95l20.86 0c3.84,0 6.95,-3.11 6.95,-6.95 -0,-3.84 -3.11,-6.95 -6.95,-6.95z"/>
    <path class="fil0" d="M90.38 375.43l-20.86 0c-3.84,0 -6.95,3.11 -6.95,6.95 0,3.84 3.11,6.95 6.95,6.95l20.86 0c3.84,0 6.95,-3.11 6.95,-6.95 0,-3.84 -3.11,-6.95 -6.95,-6.95z"/>
    <path class="fil0" d="M166.86 375.43l-20.86 0c-3.84,0 -6.95,3.11 -6.95,6.95 0,3.84 3.11,6.95 6.95,6.95l20.86 0c3.84,0 6.95,-3.11 6.95,-6.95 0,-3.84 -3.11,-6.95 -6.95,-6.95z"/>
    <path class="fil0" d="M382.39 347.62l-20.86 0c-3.84,0 -6.95,3.11 -6.95,6.95 0,3.84 3.11,6.95 6.95,6.95l20.86 0c3.84,0 6.95,-3.11 6.95,-6.95 0,-3.84 -3.11,-6.95 -6.95,-6.95z"/>
    <path class="fil0" d="M305.91 347.62l-20.86 0c-3.84,0 -6.95,3.11 -6.95,6.95 0,3.84 3.11,6.95 6.95,6.95l20.86 0c3.84,0 6.95,-3.11 6.95,-6.95 0,-3.84 -3.11,-6.95 -6.95,-6.95l0 0z"/>
    <path class="fil0" d="M347.62 375.43l-20.86 0c-3.84,0 -6.95,3.11 -6.95,6.95 0,3.84 3.11,6.95 6.95,6.95l20.86 0c3.84,0 6.95,-3.11 6.95,-6.95 0,-3.84 -3.11,-6.95 -6.95,-6.95z"/>
    <path class="fil0" d="M271.15 375.43l-20.86 0c-3.84,0 -6.95,3.11 -6.95,6.95 0,3.84 3.11,6.95 6.95,6.95l20.86 0c3.84,0 6.95,-3.11 6.95,-6.95 0,-3.84 -3.11,-6.95 -6.95,-6.95z"/>
    <path class="fil0" d="M250.29 111.24c11.52,0 20.86,-9.34 20.86,-20.86l0 -6.95c11.52,0 20.86,-9.34 20.86,-20.86l0 -41.71c0,-11.52 -9.34,-20.86 -20.86,-20.86l-125.14 0c-11.52,0 -20.86,9.34 -20.86,20.86l0 41.71c0,11.52 9.34,20.86 20.86,20.86l0 6.95c0,11.52 9.34,20.86 20.86,20.86l6.95 0 0 13.9c-3.84,0 -6.95,3.11 -6.95,6.95 0,3.84 3.11,6.95 6.95,6.95l0 20.86c-3.84,0 -6.95,3.11 -6.95,6.95 0,3.84 3.11,6.95 6.95,6.95l0 20.86c-3.84,0 -6.95,3.11 -6.95,6.95 0,3.84 3.11,6.95 6.95,6.95l0 20.86c-3.84,0 -6.95,3.11 -6.95,6.95 0,3.84 3.11,6.95 6.95,6.95l0 20.86c-3.84,0 -6.95,3.11 -6.95,6.95 0,3.84 3.11,6.95 6.95,6.95l0 1.39c-0.01,4.11 1.2,8.14 3.48,11.57l19.69 29.53c2.58,3.87 6.92,6.19 11.57,6.19 4.65,0 8.99,-2.32 11.57,-6.19l19.75 -29.53c2.28,-3.43 3.49,-7.46 3.48,-11.58l0 -1.39c3.84,0 6.95,-3.11 6.95,-6.95 0,-3.84 -3.11,-6.95 -6.95,-6.95l0 -20.86c3.84,0 6.95,-3.11 6.95,-6.95 0,-3.84 -3.11,-6.95 -6.95,-6.95l0 -20.86c3.84,0 6.95,-3.11 6.95,-6.95 0,-3.84 -3.11,-6.95 -6.95,-6.95l0 -20.86c3.84,0 6.95,-3.11 6.95,-6.95 0,-3.84 -3.11,-6.95 -6.95,-6.95l0 -20.86c3.84,0 6.95,-3.11 6.95,-6.95 0,-3.84 -3.11,-6.95 -6.95,-6.95l0 -13.9 6.95 0 0 0zm-111.24 -48.67l0 -41.71c0,-3.84 3.11,-6.95 6.95,-6.95l125.14 0c3.84,0 6.95,3.11 6.95,6.95l0 41.71c0,3.84 -3.11,6.95 -6.95,6.95l-125.14 0c-3.84,0 -6.95,-3.11 -6.95,-6.95l0 0zm20.86 27.81l0 -6.95 97.33 0 0 6.95c0,3.84 -3.11,6.95 -6.95,6.95l-83.43 0c-3.84,0 -6.95,-3.11 -6.95,-6.95l0 0zm69.52 189.11c0,1.37 -0.41,2.72 -1.17,3.86l-19.69 29.51 -19.69 -29.53c-0.76,-1.14 -1.16,-2.47 -1.17,-3.84l0 -1.39 41.71 0 0 1.39 0 0zm0 -15.29l-41.71 0 0 -20.86 41.71 0 0 20.86zm0 -34.76l-41.71 0 0 -20.86 41.71 0 0 20.86zm0 -34.76l-41.71 0 0 -20.86 41.71 0 0 20.86zm0 -34.76l-41.71 0 0 -20.86 41.71 0 0 20.86zm0 -34.76l-41.71 0 0 -13.91 41.71 0 0 13.91z"/>
   </g>
  </g>
 </g>
</svg>
