<?xml version="1.0" encoding="UTF-8"?>
<!DOCTYPE svg PUBLIC "-//W3C//DTD SVG 1.1//EN" "http://www.w3.org/Graphics/SVG/1.1/DTD/svg11.dtd">
<!-- Creator: CorelDRAW 2018 (64-Bit) -->
<svg xmlns="http://www.w3.org/2000/svg" xml:space="preserve" width="36.7246mm" height="37.3015mm" version="1.1" style="shape-rendering:geometricPrecision; text-rendering:geometricPrecision; image-rendering:optimizeQuality; fill-rule:evenodd; clip-rule:evenodd"
viewBox="0 0 642.54 652.64"
 xmlns:xlink="http://www.w3.org/1999/xlink"
 enable-background="new 0 0 512 512">
 <defs>
  <style type="text/css">
   <![CDATA[
    .fil0 {fill:#898989}
   ]]>
  </style>
 </defs>
 <g id="Слой_x0020_1">
  <metadata id="CorelCorpID_0Corel-Layer"/>
  <g id="_2882610330832">
   <path class="fil0" d="M634.7 279.59c-6.77,-10.22 -17.02,-17.26 -28.95,-19.93 7.69,-14.71 7.38,-33.07 -2.42,-47.87 -6.97,-10.53 -17.49,-17.33 -28.94,-19.91 2.04,-3.89 3.55,-8.1 4.45,-12.53 2.5,-12.32 0.06,-24.88 -6.89,-35.36 -6.77,-10.22 -17.02,-17.26 -28.95,-19.93 7.69,-14.71 7.38,-33.07 -2.42,-47.87 -14.32,-21.64 -43.59,-27.59 -65.23,-13.25l-46.85 31.03c-24.98,-12.67 -51.54,-21.65 -79.11,-26.77 -8.71,-13.23 -18.85,-25.53 -30.19,-36.52l-19.38 -18.79c-14.19,-13.76 -36.46,-15.83 -52.94,-4.91 -19.5,12.91 -24.86,39.28 -11.94,58.78 0.51,0.77 1.01,1.55 1.5,2.33 -63.54,12.86 -121.45,46.58 -164.31,95.99 -46.51,53.62 -72.13,122.29 -72.13,193.37 0,13.62 0.93,27.27 2.77,40.56 14.2,103.27 82.99,192.27 179.53,232.27 35.8,14.84 73.79,22.37 112.89,22.37 61.93,0 121.2,-18.97 171.43,-54.84 49.13,-35.1 85.9,-83.55 106.32,-140.09 1.91,-5.27 -0.83,-11.09 -6.09,-12.99 -5.27,-1.9 -11.09,0.83 -12.99,6.1 -19.02,52.65 -53.26,97.77 -99.03,130.47 -46.76,33.41 -101.96,51.06 -159.63,51.06 -29.82,0 -58.93,-4.7 -86.79,-13.99l82.56 -54.68 0.02 -0.01 0.01 -0.01 68.62 -45.44 0.01 0c6.16,-4.08 10.37,-10.32 11.84,-17.56 1.47,-7.25 0.04,-14.63 -4.04,-20.79l-0.91 -1.37 13.33 -8.83c9.51,-6.3 20.95,-8.77 32.21,-6.96 16.31,2.62 32.87,-0.97 46.63,-10.08l110.56 -73.21c-0.76,9.59 -2,19.13 -3.74,28.5 -1.03,5.51 2.61,10.81 8.13,11.83 0.62,0.12 1.25,0.17 1.86,0.17 4.79,0 9.06,-3.42 9.96,-8.3 2.81,-15.13 4.43,-30.63 4.85,-46.15l31.15 -20.64c10.48,-6.94 17.64,-17.55 20.14,-29.87 2.51,-12.32 0.06,-24.88 -6.88,-35.36l-0 0zm-225.9 -172.57l-31.01 20.54 -6.1 -16.45c-2.55,-6.86 -5.47,-13.59 -8.71,-20.17 15.73,3.99 31.05,9.37 45.82,16.08l0 0zm-321.34 70.35c41.19,-47.49 97.31,-79.41 158.69,-90.48 9.85,23.86 12.21,50.52 6.32,75.93l-24.74 106.89c-3.89,-4.15 -8.94,-7.02 -14.63,-8.17 -7.25,-1.48 -14.63,-0.04 -20.79,4.04l-70.08 46.41 -0.01 0.01 -0.01 0 -101.08 66.94c-0.55,-7.13 -0.84,-14.32 -0.84,-21.5 0,-66.18 23.86,-130.14 67.16,-180.07l0 0zm264.1 319.23c-0.39,1.93 -1.52,3.6 -3.17,4.69l0.01 0 -60.27 39.91 -111.86 -166.82c-3.12,-4.66 -9.43,-5.9 -14.08,-2.77 -4.65,3.12 -5.89,9.42 -2.77,14.08l111.79 166.73 -86.04 56.98c-85.49,-37.39 -146.67,-116.36 -161.38,-208.26l101.2 -66.8 11.65 17.38c1.96,2.92 5.17,4.49 8.44,4.49 1.94,0 3.91,-0.55 5.64,-1.72 4.66,-3.12 5.9,-9.43 2.78,-14.08l-11.57 -17.25 61.59 -40.66c1.64,-1.09 3.6,-1.47 5.54,-1.08 1.93,0.39 3.6,1.52 4.69,3.16l136.74 206.48c1.09,1.64 1.47,3.6 1.08,5.54l-0 0zm270.13 -185.7c-1.42,7.01 -5.49,13.05 -11.46,16.99l-35.62 23.59 -0.03 0.02 -127.12 84.19c-9.51,6.3 -20.95,8.77 -32.21,6.96 -16.3,-2.61 -32.86,0.97 -46.63,10.08l-13.33 8.83 -111.99 -169.11 28.95 -125.05c7.45,-32.21 3.53,-66.15 -10.68,-95.71 -0.13,-0.31 -0.27,-0.61 -0.43,-0.9 -2.73,-5.59 -5.82,-11.01 -9.29,-16.24 -6.73,-10.17 -3.94,-23.92 6.23,-30.65 8.59,-5.69 20.21,-4.62 27.61,2.56l19.38 18.79c20.97,20.33 37.42,45.54 47.58,72.92l10.56 28.44 0.06 0.15 0.08 0.2 0.22 0.47c0.2,0.43 0.43,0.85 0.7,1.25 3.1,4.68 9.39,5.96 14.06,2.86l108.23 -71.67c12.31,-8.15 28.95,-4.77 37.1,7.54 8.15,12.31 4.77,28.95 -7.54,37.11l-9.4 6.22 -0.01 0.01 -20.96 13.88 -0.08 0.05 -0.33 0.24c-4.33,3.18 -5.45,9.23 -2.45,13.76 3.09,4.67 9.39,5.96 14.07,2.86l20.97 -13.89c5.96,-3.94 13.09,-5.33 20.1,-3.91 7.01,1.42 13.05,5.49 16.99,11.46 3.95,5.96 5.34,13.1 3.92,20.11 -1.42,7.01 -5.49,13.05 -11.46,16.99l-30.36 20.11c-4.68,3.09 -5.96,9.38 -2.86,14.06 1.95,2.95 5.18,4.55 8.47,4.55 1.92,0 3.87,-0.55 5.59,-1.69l4.7 -3.11 16.26 -10.77c12.31,-8.15 28.95,-4.77 37.1,7.54 8.15,12.31 4.77,28.95 -7.54,37.11l-15.17 10.04 -0.24 0.16 -14.96 9.9c-4.67,3.09 -5.96,9.39 -2.86,14.07 1.95,2.95 5.18,4.54 8.47,4.54 1.92,0 3.87,-0.55 5.59,-1.69l4.7 -3.11 0.01 -0.01 16.26 -10.77c5.96,-3.95 13.1,-5.34 20.11,-3.91 7.01,1.42 13.05,5.49 16.99,11.45 3.94,5.96 5.33,13.1 3.91,20.11l-0.01 0zm0 0z"/>
  </g>
 </g>
</svg>
