<?xml version="1.0" encoding="UTF-8"?>
<!DOCTYPE svg PUBLIC "-//W3C//DTD SVG 1.1//EN" "http://www.w3.org/Graphics/SVG/1.1/DTD/svg11.dtd">
<!-- Creator: CorelDRAW 2018 (64-Bit) -->
<svg xmlns="http://www.w3.org/2000/svg" xml:space="preserve" width="41.6912mm" height="41.691mm" version="1.1" style="shape-rendering:geometricPrecision; text-rendering:geometricPrecision; image-rendering:optimizeQuality; fill-rule:evenodd; clip-rule:evenodd"
viewBox="0 0 582.41 582.41"
 xmlns:xlink="http://www.w3.org/1999/xlink">
 <defs>
  <style type="text/css">
   <![CDATA[
    .fil0 {fill:#FDB44B}
   ]]>
  </style>
 </defs>
 <g id="Слой_x0020_1">
  <metadata id="CorelCorpID_0Corel-Layer"/>
  <path class="fil0" d="M140.59 130.54c5.55,0 10.04,-4.5 10.04,-10.04l0 -80.33c0,-5.54 -4.49,-10.04 -10.04,-10.04 -5.55,0 -10.04,4.5 -10.04,10.04l0 80.33c0,5.55 4.49,10.04 10.04,10.04zm101.78 192.36l5.62 0 0 -91.35c0,-4.62 3.76,-8.38 8.38,-8.38l44.42 0c9.71,0 18.17,1.86 25.38,5.58 7.21,3.72 12.78,8.88 16.73,15.48 3.95,6.6 5.92,14.07 5.92,22.42 0,8.5 -1.97,16.08 -5.92,22.76 -3.95,6.68 -9.52,11.87 -16.73,15.59 -7.21,3.72 -15.67,5.58 -25.38,5.58l-35.05 0 0 12.32 28.01 0c4.78,0 8.68,3.91 8.68,8.68l0 0c0,4.78 -3.91,8.68 -8.68,8.68l-28.01 0 0 24.74c0,4.62 -3.76,8.38 -8.38,8.38l-0.99 0c-4.62,0 -8.38,-3.76 -8.38,-8.38l0 -24.74 -5.62 0c-4.78,0 -8.68,-3.91 -8.68,-8.68l0 -0c0,-4.78 3.91,-8.68 8.68,-8.68zm57.97 -28.26c9.56,0 16.96,-2.54 22.19,-7.62 5.23,-5.08 7.85,-11.8 7.85,-20.14 0,-8.19 -2.62,-14.87 -7.85,-20.03 -5.24,-5.16 -12.63,-7.74 -22.19,-7.74l-34.6 0 0 55.54 34.6 0zm281.32 -7.28c-1.55,-3.75 -5.22,-6.2 -9.28,-6.2l-120.5 0 0 -190.79c0,-5.55 -4.49,-10.04 -10.04,-10.04 -5.55,0 -10.04,4.5 -10.04,10.04l0 200.83c0,5.54 4.49,10.04 10.04,10.04l106.3 0 -256.92 256.92 -256.92 -256.92 106.3 0c5.55,0 10.04,-4.5 10.04,-10.04l0 -130.54c0,-5.55 -4.49,-10.04 -10.04,-10.04 -5.55,0 -10.04,4.5 -10.04,10.04l0 120.5 -120.5 0c-4.06,0 -7.73,2.45 -9.28,6.2 -1.56,3.76 -0.7,8.07 2.18,10.94l281.16 281.16c1.96,1.96 4.53,2.94 7.1,2.94 2.57,0 5.14,-0.98 7.1,-2.94l281.16 -281.16c2.87,-2.87 3.74,-7.19 2.18,-10.94l0 0zm-340.65 -217.07c5.55,0 10.04,-4.5 10.04,-10.04l0 -50.21c0,-5.54 -4.49,-10.04 -10.04,-10.04 -5.55,0 -10.04,4.5 -10.04,10.04l0 50.21c0,5.55 4.49,10.04 10.04,10.04zm100.42 30.12c5.55,0 10.04,-4.5 10.04,-10.04l0 -80.33c0,-5.54 -4.49,-10.04 -10.04,-10.04 -5.55,0 -10.04,4.5 -10.04,10.04l0 80.33c0,5.54 4.49,10.04 10.04,10.04zm-271.12 431.79l-20.08 0 0 -20.08c0,-5.55 -4.49,-10.04 -10.04,-10.04 -5.55,0 -10.04,4.5 -10.04,10.04l0 20.08 -20.08 0c-5.55,0 -10.04,4.5 -10.04,10.04 0,5.55 4.49,10.04 10.04,10.04l20.08 0 0 20.08c0,5.55 4.49,10.04 10.04,10.04 5.55,0 10.04,-4.5 10.04,-10.04l0 -20.08 20.08 0c5.55,0 10.04,-4.5 10.04,-10.04 0,-5.55 -4.49,-10.04 -10.04,-10.04l0 0zm50.21 -60.25c0,11.1 -8.99,20.08 -20.08,20.08 -11.09,0 -20.08,-8.99 -20.08,-20.08 0,-11.09 8.99,-20.08 20.08,-20.08 11.1,0 20.08,8.99 20.08,20.08zm451.87 60.25l-20.08 0 0 -20.08c0,-5.55 -4.49,-10.04 -10.04,-10.04 -5.55,0 -10.04,4.5 -10.04,10.04l0 20.08 -20.08 0c-5.55,0 -10.04,4.5 -10.04,10.04 0,5.55 4.49,10.04 10.04,10.04l20.08 0 0 20.08c0,5.55 4.49,10.04 10.04,10.04 5.55,0 10.04,-4.5 10.04,-10.04l0 -20.08 20.08 0c5.55,0 10.04,-4.5 10.04,-10.04 0,-5.55 -4.49,-10.04 -10.04,-10.04l0 0zm-70.29 -60.25c0,11.1 -8.99,20.08 -20.08,20.08 -11.09,0 -20.08,-8.99 -20.08,-20.08 0,-11.09 8.99,-20.08 20.08,-20.08 11.09,0 20.08,8.99 20.08,20.08z"/>
 </g>
</svg>
