<?xml version="1.0" encoding="UTF-8"?>
<!DOCTYPE svg PUBLIC "-//W3C//DTD SVG 1.1//EN" "http://www.w3.org/Graphics/SVG/1.1/DTD/svg11.dtd">
<!-- Creator: CorelDRAW 2018 (64-Bit) -->
<svg xmlns="http://www.w3.org/2000/svg" xml:space="preserve" width="23.4654mm" height="29.316mm" version="1.1" style="shape-rendering:geometricPrecision; text-rendering:geometricPrecision; image-rendering:optimizeQuality; fill-rule:evenodd; clip-rule:evenodd"
viewBox="0 0 252.58 315.55"
 xmlns:xlink="http://www.w3.org/1999/xlink"
 xmlns:svgjs="http://svgjs.com/svgjs">
 <defs>
  <style type="text/css">
   <![CDATA[
    .fil0 {fill:#898989}
   ]]>
  </style>
 </defs>
 <g id="Слой_x0020_1">
  <metadata id="CorelCorpID_0Corel-Layer"/>
  <g id="_2882607051008">
   <g>
    <g>
     <g>
      <path class="fil0" d="M184.65 306.29l-175.38 0 0 -228.48c0,-2.56 -2.07,-4.63 -4.63,-4.63 -2.56,0 -4.63,2.07 -4.63,4.63l0 230.03c0,4.26 3.46,7.72 7.72,7.72l176.93 0c2.56,0 4.63,-2.07 4.63,-4.63 0,-2.56 -2.07,-4.63 -4.63,-4.63z" data-original="#000000"/>
     </g>
    </g>
    <g>
     <g>
      <path class="fil0" d="M251.27 41.88l-39.37 -40.48c-0.87,-0.9 -2.07,-1.4 -3.32,-1.4l-200.86 0c-4.26,0 -7.72,3.46 -7.72,7.72l0 36.12c0,2.56 2.07,4.63 4.63,4.63 2.56,0 4.63,-2.07 4.63,-4.63l0 -34.58 197.36 0 36.69 37.73 0 259.3 -26.25 0c-2.56,0 -4.63,2.07 -4.63,4.63 0,2.56 2.07,4.63 4.63,4.63l27.79 0c4.26,0 7.72,-3.46 7.72,-7.72l0 -262.73c0,-1.21 -0.47,-2.36 -1.31,-3.23z" data-original="#000000"/>
     </g>
    </g>
    <g>
     <g>
      <path class="fil0" d="M251.27 41.88l-39.37 -40.48c-1.31,-1.35 -3.32,-1.77 -5.06,-1.06 -1.75,0.71 -2.89,2.41 -2.89,4.29l0 40.48c0,2.56 2.07,4.63 4.63,4.63l39.37 0c1.86,0 3.54,-1.12 4.27,-2.83 0.72,-1.71 0.35,-3.7 -0.95,-5.03zm-38.06 -1.4l0 -24.44 23.77 24.44 -23.77 0z" data-original="#000000"/>
     </g>
    </g>
    <g>
     <g>
      <path class="fil0" d="M147.72 24.59l-111.59 0c-4.26,0 -7.72,3.46 -7.72,7.72l0 25.6c0,4.26 3.46,7.72 7.72,7.72l111.59 0c4.26,0 7.72,-3.46 7.72,-7.72l0 -25.6c0,-4.26 -3.46,-7.72 -7.72,-7.72zm-1.54 31.77l-108.51 0 0 -22.51 108.51 0 0 22.51z" data-original="#000000"/>
     </g>
    </g>
    <g>
     <g>
      <path class="fil0" d="M74.67 89.87c-2.04,-1.55 -4.94,-1.15 -6.49,0.88l-20.46 26.93 -6.15 -5.38c-1.92,-1.69 -4.85,-1.49 -6.53,0.44 -1.68,1.92 -1.49,4.85 0.43,6.53l9.88 8.65c0.85,0.74 1.93,1.15 3.05,1.15 0.15,0 0.31,-0.01 0.47,-0.02 1.28,-0.13 2.44,-0.78 3.22,-1.81l23.47 -30.88c1.55,-2.04 1.15,-4.94 -0.89,-6.49z" data-original="#000000"/>
     </g>
    </g>
    <g>
     <g>
      <path class="fil0" d="M214.06 88.92l-116.65 0c-2.56,0 -4.63,2.07 -4.63,4.63 0,2.56 2.07,4.63 4.63,4.63l116.65 0c2.56,0 4.63,-2.07 4.63,-4.63 0,-2.56 -2.07,-4.63 -4.63,-4.63z" data-original="#000000"/>
     </g>
    </g>
    <g>
     <g>
      <path class="fil0" d="M173.14 104.36l-75.74 0c-2.56,0 -4.63,2.07 -4.63,4.63 0,2.56 2.07,4.63 4.63,4.63l75.74 0c2.56,0 4.63,-2.07 4.63,-4.63 0,-2.56 -2.07,-4.63 -4.63,-4.63z" data-original="#000000"/>
     </g>
    </g>
    <g>
     <g>
      <path class="fil0" d="M190.43 119.8l-93.03 0c-2.56,0 -4.63,2.07 -4.63,4.63 0,2.56 2.07,4.63 4.63,4.63l93.03 0c2.56,0 4.63,-2.07 4.63,-4.63 0,-2.56 -2.07,-4.63 -4.63,-4.63z" data-original="#000000"/>
     </g>
    </g>
    <g>
     <g>
      <path class="fil0" d="M74.67 152.85c-2.04,-1.55 -4.94,-1.15 -6.49,0.89l-20.46 26.92 -6.15 -5.38c-1.92,-1.68 -4.85,-1.49 -6.53,0.44 -1.68,1.93 -1.49,4.85 0.43,6.54l9.88 8.64c0.85,0.74 1.93,1.15 3.05,1.15 0.15,0 0.31,-0.01 0.47,-0.02 1.28,-0.13 2.44,-0.78 3.22,-1.81l23.47 -30.88c1.55,-2.04 1.15,-4.94 -0.89,-6.49z" data-original="#000000"/>
     </g>
    </g>
    <g>
     <g>
      <path class="fil0" d="M214.06 151.91l-116.65 0c-2.56,0 -4.63,2.07 -4.63,4.63 0,2.56 2.07,4.63 4.63,4.63l116.65 0c2.56,0 4.63,-2.07 4.63,-4.63 0,-2.56 -2.07,-4.63 -4.63,-4.63z" data-original="#000000"/>
     </g>
    </g>
    <g>
     <g>
      <path class="fil0" d="M173.14 167.35l-75.74 0c-2.56,0 -4.63,2.07 -4.63,4.63 0,2.56 2.07,4.63 4.63,4.63l75.74 0c2.56,0 4.63,-2.07 4.63,-4.63 0,-2.56 -2.07,-4.63 -4.63,-4.63z" data-original="#000000"/>
     </g>
    </g>
    <g>
     <g>
      <path class="fil0" d="M190.43 182.79l-93.03 0c-2.56,0 -4.63,2.07 -4.63,4.63 0,2.56 2.07,4.63 4.63,4.63l93.03 0c2.56,0 4.63,-2.07 4.63,-4.63 0,-2.56 -2.07,-4.63 -4.63,-4.63z" data-original="#000000"/>
     </g>
    </g>
    <g>
     <g>
      <path class="fil0" d="M214.06 214.9l-116.65 0c-2.56,0 -4.63,2.07 -4.63,4.63 0,2.56 2.07,4.63 4.63,4.63l116.65 0c2.56,0 4.63,-2.07 4.63,-4.63 0,-2.56 -2.07,-4.63 -4.63,-4.63z" data-original="#000000"/>
     </g>
    </g>
    <g>
     <g>
      <path class="fil0" d="M173.14 230.34l-75.74 0c-2.56,0 -4.63,2.07 -4.63,4.63 0,2.56 2.07,4.63 4.63,4.63l75.74 0c2.56,0 4.63,-2.07 4.63,-4.63 0,-2.56 -2.07,-4.63 -4.63,-4.63z" data-original="#000000"/>
     </g>
    </g>
    <g>
     <g>
      <path class="fil0" d="M190.43 245.78l-93.03 0c-2.56,0 -4.63,2.07 -4.63,4.63 0,2.56 2.07,4.63 4.63,4.63l93.03 0c2.56,0 4.63,-2.07 4.63,-4.63 0,-2.56 -2.07,-4.63 -4.63,-4.63z" data-original="#000000"/>
     </g>
    </g>
    <g>
     <g>
      <path class="fil0" d="M66.31 214.9l-24.7 0c-4.26,0 -7.72,3.46 -7.72,7.72l0 24.7c0,4.26 3.46,7.72 7.72,7.72l24.7 0c4.26,0 7.72,-3.46 7.72,-7.72l0 -24.7c0,-4.26 -3.46,-7.72 -7.72,-7.72zm-1.54 30.88l-21.61 0 0 -21.61 21.61 0 0 21.61z" data-original="#000000"/>
     </g>
    </g>
    <g>
    </g>
    <g>
    </g>
    <g>
    </g>
    <g>
    </g>
    <g>
    </g>
    <g>
    </g>
    <g>
    </g>
    <g>
    </g>
    <g>
    </g>
    <g>
    </g>
    <g>
    </g>
    <g>
    </g>
    <g>
    </g>
    <g>
    </g>
    <g>
    </g>
   </g>
  </g>
 </g>
</svg>
