<?xml version="1.0" encoding="UTF-8"?>
<!DOCTYPE svg PUBLIC "-//W3C//DTD SVG 1.1//EN" "http://www.w3.org/Graphics/SVG/1.1/DTD/svg11.dtd">
<!-- Creator: CorelDRAW 2018 (64-Bit) -->
<svg xmlns="http://www.w3.org/2000/svg" xml:space="preserve" width="41.871mm" height="41.855mm" version="1.1" style="shape-rendering:geometricPrecision; text-rendering:geometricPrecision; image-rendering:optimizeQuality; fill-rule:evenodd; clip-rule:evenodd"
viewBox="0 0 1236.1 1235.63"
 xmlns:xlink="http://www.w3.org/1999/xlink">
 <defs>
  <style type="text/css">
   <![CDATA[
    .fil0 {fill:#898989}
   ]]>
  </style>
 </defs>
 <g id="Слой_x0020_1">
  <metadata id="CorelCorpID_0Corel-Layer"/>
  <g id="_2882607080160">
   <g>
    <path class="fil0" d="M95.1 3.21c-44.17,10.86 -83.03,50.69 -92.2,95.1 -3.86,18.1 -3.86,1020.75 0,1038.85 9.41,45.62 50.2,86.41 95.82,95.82 8.93,1.93 92.2,2.65 272.75,2.65 286.26,0 276.36,0.48 305.33,-14.96 37.17,-19.79 64.45,-64.2 64.45,-104.75 0,-11.1 -0.97,-13.28 -7.72,-19.07 -6.03,-5.07 -9.17,-6.03 -14.96,-5.07 -12.07,2.41 -16.66,8.93 -18.59,27.03 -3.86,30.89 -20.27,54.55 -47.55,67.82l-13.76 6.76 -267.92 0 -267.92 0 -11.58 -5.31c-15.93,-7.48 -34.27,-25.34 -42,-41.52l-6.76 -13.52 0 -515.32 0 -515.32 6.76 -13.52c7.97,-16.41 26.31,-34.27 42,-41.03 6.27,-2.66 18.1,-5.55 26.07,-6.28l14.48 -1.21 24.14 48.76c26.55,53.82 36.69,66.38 57.2,72.17 7.72,2.17 50.69,2.65 163.65,2.17 141.2,-0.72 153.99,-0.97 160.99,-5.07 15.93,-8.69 24.38,-20.52 49,-69.51l24.62 -48.76 14.72 1.69c28.48,2.9 54.55,21.24 66.62,47.31 5.55,11.83 6.27,17.14 7.48,48.76 0.97,31.38 1.69,36.21 6.03,40.55 8.21,8.2 18.59,8.69 27.28,1.21l7.72 -6.52 0 -33.07c0,-37.41 -3.14,-53.58 -14.96,-75.79 -9.9,-18.34 -31.14,-39.59 -49.48,-49.48 -29.21,-15.45 -18.83,-14.96 -307.26,-14.72 -200.82,0.24 -264.78,0.97 -274.43,3.14l-0 -0zm467.53 38.86c0,3.86 -37.41,75.31 -40.79,77.72 -2.9,2.41 -37.41,2.9 -149.89,3.14 -129.37,0 -146.75,-0.48 -151.58,-3.86 -4.34,-2.9 -41.51,-71.93 -41.51,-77 0,-0.72 86.41,-1.2 191.89,-1.2 105.48,0 191.89,0.48 191.89,1.2z"/>
    <path class="fil0" d="M505.42 230.33c-43.45,11.83 -77.48,45.62 -88.82,88.34 -2.66,9.9 -3.62,30.65 -3.62,87.86l0 74.83 -117.3 62.75c-125.27,66.86 -125.75,67.1 -130.1,87.38 -2.41,11.58 2.9,27.28 12.07,35.72 4.34,3.86 59.13,34.27 121.65,67.58l113.68 60.34 0 74.82c0,56.96 0.97,77.96 3.62,87.86 11.34,43.21 45.62,77 89.79,88.34 21,5.55 615.49,5.31 636.73,0 44.65,-11.83 80.86,-49.96 90.27,-94.86 3.62,-17.86 3.62,-608.01 0,-626.11 -9.41,-46.34 -50.93,-87.61 -96.06,-96.06 -8.21,-1.45 -123.82,-2.41 -316.19,-2.17 -252.71,0 -305.33,0.72 -315.71,3.38zm641.55 45.37c16.17,7.73 34.27,26.31 41.52,42.24l5.31 11.35 0 308.95 0 308.95 -6.76 13.76c-8.45,17.38 -23.41,32.34 -40.31,40.31l-13.27 6.28 -310.16 0 -310.16 0 -15.21 -8.21c-16.9,-9.17 -28.72,-21.48 -37.17,-38.62 -5.31,-10.86 -5.55,-13.27 -6.76,-98.48l-1.21 -87.62 -6.03 -5.79c-3.38,-3.14 -57.69,-33.07 -120.68,-66.62 -63,-33.55 -115.62,-61.79 -116.58,-62.75 -1.21,-0.97 43.45,-26.07 98.96,-55.52 130.58,-69.51 140.23,-74.82 142.41,-79.41 0.97,-2.17 2.41,-42.96 3.14,-90.75l1.21 -86.89 6.52 -12.31c8.93,-16.9 17.38,-26.55 29.93,-33.79 22.69,-13.27 7.24,-12.79 336.46,-12.31l305.33 0.48 13.52 6.76z"/>
    <path class="fil0" d="M643.25 352.22c-43.21,8.93 -85.21,64.45 -101.38,133.96 -6.27,27.03 -6.27,90.51 0,119.47 15.45,70.96 50.69,126.72 127.2,201.54 69.75,68.31 118.51,97.76 184.65,112.24 77,16.65 158.34,1.69 212.4,-39.34 32.83,-25.1 45.37,-46.34 45.37,-77.72 0,-31.14 -5.31,-40.31 -52.37,-87.13 -41.52,-41.27 -50.2,-47.31 -74.83,-51.89 -16.41,-2.9 -35,0 -50.45,7.72 -5.79,2.9 -22.45,17.14 -37.41,31.62 -18.1,17.86 -28,25.83 -30.17,24.62 -8.21,-4.58 -43.69,-33.31 -59.62,-48.27 -19.31,-17.86 -56.48,-59.86 -67.1,-75.79l-6.28 -9.9 26.79 -27.28c33.79,-34.03 40.31,-46.34 40.07,-75.06 0,-30.41 -5.8,-40.31 -47.31,-82.55 -36.21,-36.69 -48.76,-47.07 -64.45,-52.62 -12.79,-4.34 -33.31,-6.03 -45.14,-3.62l0 0zm34.03 43.45c6.03,2.9 23.89,19.07 43.93,39.34 51.89,52.37 52.14,59.62 4.58,107.89 -30.41,30.66 -34.76,38.86 -31.86,58.89 4.1,26.55 76.51,106.2 139.03,153.03 17.86,13.28 31.62,16.9 47.31,12.55 10.14,-2.9 16.41,-7.72 42.24,-32.83 27.52,-27.03 31.14,-29.69 41.27,-31.14 19.55,-2.9 26.55,1.21 63,37.17 18.34,18.1 35.72,36.45 38.62,41.27 6.27,10.14 6.76,29.21 0.97,40.31 -9.66,18.34 -54.31,46.34 -90.03,56.72 -16.65,4.83 -23.89,5.55 -58.89,5.31 -34.76,-0.24 -42.96,-1.21 -63.96,-6.76 -30.66,-7.97 -70.72,-27.76 -98.96,-49 -29.69,-21.96 -110.3,-103.06 -125.51,-126.23 -26.07,-39.34 -43.93,-83.27 -49.72,-122.85 -5.55,-39.1 0.48,-89.55 14.96,-122.13 12.31,-28 33.55,-54.79 49.24,-61.79 12.55,-5.79 21.48,-5.79 33.79,0.24z"/>
    <path class="fil0" d="M192.13 1118.57c-6.52,6.52 -7.96,19.07 -2.9,25.59 7.24,9.41 8.69,9.41 181.51,9.41 177.89,0 178.85,0 183.2,-10.86 3.14,-8.45 1.45,-18.34 -4.58,-24.14l-5.79 -6.03 -172.82 0 -172.82 0 -5.79 6.03 0 0z"/>
   </g>
  </g>
 </g>
</svg>
