<?xml version="1.0" encoding="UTF-8"?>
<!DOCTYPE svg PUBLIC "-//W3C//DTD SVG 1.1//EN" "http://www.w3.org/Graphics/SVG/1.1/DTD/svg11.dtd">
<!-- Creator: CorelDRAW 2018 (64-Bit) -->
<svg xmlns="http://www.w3.org/2000/svg" xml:space="preserve" width="32.5184mm" height="32.7518mm" version="1.1" style="shape-rendering:geometricPrecision; text-rendering:geometricPrecision; image-rendering:optimizeQuality; fill-rule:evenodd; clip-rule:evenodd"
viewBox="0 0 342.77 345.23"
 xmlns:xlink="http://www.w3.org/1999/xlink">
 <defs>
  <style type="text/css">
   <![CDATA[
    .fil0 {fill:#FDB44B}
   ]]>
  </style>
 </defs>
 <g id="Слой_x0020_1">
  <metadata id="CorelCorpID_0Corel-Layer"/>
  <path class="fil0" d="M91.11 2.54l-1.46 1.46c-1.44,1.43 -1.44,3.78 0,5.21l42.31 42.31 42.24 42.24c1.44,1.44 3.78,1.43 5.21,-0l20.29 -20.29 22.83 -22.83 50.13 50.13 50.13 50.13 -10.03 0 -6.27 0c-2.03,0 -3.68,1.65 -3.68,3.68l0 2.07 0 2.07c0,2.03 1.65,3.68 3.68,3.68l16.3 0 19.98 0 0 -19.98 0 -16.3c0,-2.03 -1.65,-3.68 -3.68,-3.68l-2.07 0 -2.07 0c-2.03,0 -3.68,1.65 -3.68,3.68l0 6.61 0 10.36 -54.4 -54.4 -51.73 -51.73c-1.43,-1.43 -3.77,-1.43 -5.21,-0l-20.29 20.23 -22.83 22.9 -40.85 -40.85 -38.17 -38.17c-1.43,-1.44 -3.78,-1.44 -5.21,0l-1.46 1.46 0 0zm183.37 183.98c-17.07,2.44 -29.6,8.53 -33.26,16.05 -1.42,2.91 -1.42,3.46 -1.42,62.05 0,43.76 0.2,59.88 0.81,61.85 3.45,11.52 28.65,19.92 55.75,18.63 23.64,-1.15 40.64,-7.79 45.11,-17.68 1.22,-2.64 1.29,-5.83 1.29,-62.12l0 -59.27 -1.76 -3.59c-4,-7.93 -16.05,-13.62 -33.94,-15.99 -9.01,-1.22 -24.18,-1.15 -32.58,0.07l0 0zm32.38 11.45c12.6,1.9 24.39,6.77 24.39,10.16 0,2.03 -6.77,6.03 -13.55,8.06 -10.57,3.18 -30.69,4.13 -43.22,2.1 -11.24,-1.83 -21.68,-6.16 -22.96,-9.55 -1.35,-3.52 11.92,-9.35 25,-11.04 7.11,-0.95 23.44,-0.81 30.35,0.27l0 0zm-46.4 28.45c10.09,3.39 17.14,4.4 30.89,4.4 15.58,0 25.27,-1.76 38.75,-7.11 1.02,-0.47 1.15,0.14 1.15,6.57 0,6.84 -0.07,7.11 -1.83,8.81 -9.69,9.08 -45.59,11.92 -65.91,5.22 -5.35,-1.76 -9.08,-3.59 -10.84,-5.35 -1.15,-1.15 -1.35,-2.3 -1.35,-8.53 0,-6.57 0.07,-7.18 1.22,-6.71 0.61,0.27 4.2,1.49 7.93,2.71zm-0.14 28.59c10.03,3.39 17.27,4.47 30.96,4.47 13.61,0 21.07,-1.08 31.09,-4.54 3.59,-1.22 7.05,-2.44 7.72,-2.78 1.08,-0.47 1.15,0.13 1.15,6.71 0,8.2 -0.2,8.6 -6.17,11.65 -17.48,8.81 -55.34,7.93 -70.58,-1.76l-3.18 -2.03 0 -7.52c0,-6.91 0.07,-7.52 1.22,-7.04 0.61,0.34 4.13,1.56 7.79,2.84l0 0zm-1.22 28.11c10.7,3.93 16.87,4.88 32.18,4.81 15.51,0 21.41,-0.88 33.73,-5.28l6.23 -2.24 0 6.77c0,3.66 -0.27,7.32 -0.68,7.99 -1.49,2.71 -10.77,6.57 -20.8,8.6 -9.14,1.83 -29.33,1.63 -38.75,-0.41 -7.72,-1.63 -14.16,-4.06 -17.48,-6.57l-2.24 -1.69 0 -7.52c0,-6.84 0.07,-7.45 1.22,-6.98 0.61,0.34 3.59,1.42 6.57,2.51l0 0zm6.57 30.69c18.49,4.94 43.22,3.73 60.36,-2.91l5.22 -2.03 0 7.38 0 7.32 -2.3 1.76c-11.52,8.81 -44.91,11.18 -65.44,4.67 -2.91,-0.88 -6.77,-2.64 -8.6,-3.86l-3.25 -2.17 -0.2 -7.59 -0.2 -7.59 4.13 1.69c2.3,0.95 6.91,2.44 10.3,3.32l0 0zm-107.16 -156.41c-0.95,0.14 -4,0.61 -6.77,1.02 -10.57,1.56 -21.47,5.96 -26.76,10.84 -5.49,5.08 -5.15,-0.81 -4.94,83.05l0.2 74.58 2.03 2.98c4.2,6.03 15.31,11.24 29.54,13.89 8.87,1.63 30.28,1.63 39.02,0 17.48,-3.25 29.2,-10.03 31.3,-17.95 0.54,-1.9 0.75,-24.86 0.61,-76.14l-0.2 -73.36 -1.9 -3.25c-4.27,-7.25 -15.99,-12.6 -32.65,-15.04 -6.1,-0.88 -24.86,-1.29 -29.47,-0.61l0 0zm29.47 12.13c7.59,1.22 12.46,2.64 17.27,5.08 7.11,3.59 7.52,5.76 1.63,9.21 -15.38,9.01 -52.63,9.48 -69.7,0.75 -4.13,-2.1 -6.03,-4 -5.49,-5.69 1.15,-3.59 12.26,-7.86 26.15,-9.96 4.74,-0.68 24.59,-0.34 30.14,0.61l0 0zm-51.41 27.1c2.3,0.95 7.52,2.51 11.58,3.52 6.98,1.76 8.13,1.9 23.23,1.9 15.04,0 16.33,-0.14 23.17,-1.83 4,-1.02 9.14,-2.64 11.45,-3.59 2.3,-0.95 4.47,-1.69 4.81,-1.69 0.27,0 0.54,3.12 0.54,6.98 0,7.99 -0.2,8.4 -6.57,11.58 -7.65,3.86 -19.03,5.82 -33.73,5.82 -17.27,0 -32.52,-3.52 -38.07,-8.81 -1.42,-1.29 -1.56,-2.03 -1.56,-8.47 0,-3.93 0.2,-7.11 0.47,-7.11 0.2,0 2.37,0.75 4.67,1.69zm4 29.81c11.24,3.86 17.54,4.61 33.87,4.2 15.44,-0.34 19.58,-1.08 30.82,-5.15 3.12,-1.15 5.76,-2.1 5.89,-2.1 0.13,0 0.2,3.18 0.2,7.05l0 7.11 -2.51 2.03c-10.64,8.81 -45.59,11.25 -65.71,4.67 -2.37,-0.81 -5.96,-2.37 -7.86,-3.52l-3.52 -2.1 -0.2 -7.72c-0.14,-7.11 -0.07,-7.65 1.02,-7.18 0.68,0.27 4.27,1.49 7.99,2.71l0 0zm-0.34 28.52c10.03,3.46 17.48,4.54 31.5,4.47 15.58,0 25.4,-1.9 38.48,-7.25 1.08,-0.47 1.15,0.13 1.15,6.57 0,6.84 -0.07,7.11 -1.83,8.81 -2.84,2.64 -7.11,4.54 -14.09,6.3 -19.17,4.88 -44.3,3.32 -58.26,-3.59 -5.76,-2.84 -5.76,-2.78 -5.76,-11.18 0,-6.77 0.07,-7.38 1.22,-6.84 0.61,0.27 4.06,1.49 7.59,2.71l0 0zm6.44 30.48c19.71,5.15 44.84,3.25 63.54,-4.81 1.08,-0.47 1.15,0.13 1.15,6.71 0,8.4 -0.27,8.81 -6.98,11.99 -18.83,8.81 -57.71,7.45 -70.65,-2.44l-2.3 -1.76 0 -7.38 0 -7.38 4.61 1.76c2.51,0.95 7.32,2.44 10.63,3.32l0 0zm-3.05 27.77c19.98,5.82 45.25,4.67 64.22,-2.98l3.52 -1.49 0 7.18c0,6.71 -0.07,7.18 -1.69,8.81 -3.46,3.46 -14.23,7.04 -25.4,8.4 -19.64,2.37 -43.96,-1.56 -51.28,-8.33 -1.42,-1.29 -1.56,-1.96 -1.56,-8.67l0 -7.32 3.25 1.35c1.76,0.75 5.76,2.17 8.94,3.05l0 0zm56.23 -210.06l-22.69 22.69 -14.9 -14.9c-8.2,-8.2 -15.24,-14.9 -15.58,-14.9 -0.41,0 -2.37,1.69 -4.4,3.73l-1.12 1.12c-1.44,1.43 -1.44,3.78 0,5.21l16.56 16.56 19.1 19.1 22.56 -22.56c12.33,-12.33 22.83,-22.49 23.17,-22.49 0.34,0 13.82,13.14 29.8,29.13l26.52 26.52c1.43,1.43 3.78,1.43 5.21,0l1.46 -1.46 1.46 -1.46c1.44,-1.43 1.44,-3.78 0,-5.21l-30.59 -30.59c-18.29,-18.29 -33.33,-33.19 -33.53,-33.19 -0.2,0 -10.57,10.23 -23.03,22.69l0 0zm-87.16 -25.51l5.87 5.87 5.86 5.86c1.44,1.43 3.78,1.43 5.21,0l2.92 -2.92c1.43,-1.43 1.43,-3.77 0,-5.21l-5.52 -5.52c-4.47,-4.47 -8.4,-8.13 -8.81,-8.13 -0.56,0 -3.33,2.65 -5.52,4.83 -0.72,0.72 -1.08,1.59 -1.09,2.61 -0,1.02 0.36,1.89 1.08,2.61zm-70.81 -57.06c-16.39,2.98 -30.96,14.43 -37.73,29.74 -2.57,5.76 -4.13,13.68 -4.13,20.73 0,10.97 3.25,20.93 9.96,30.28 1.96,2.71 3.59,5.08 3.59,5.22 0,0.13 -1.63,1.08 -3.59,2.24 -3.86,2.17 -8.26,6.64 -9.28,9.35 -0.41,1.08 -0.68,40.78 -0.68,104.32 0,111.43 -0.2,105.13 3.59,109.26 7.99,8.74 29.94,14.36 52.3,13.41 25.94,-1.08 43.96,-8.94 46.4,-20.32 0.54,-2.51 0.68,-31.7 0.54,-104.52l-0.2 -101 -2.03 -3.25c-1.83,-2.91 -8.33,-8.33 -11.24,-9.28 -0.68,-0.2 -0.34,-1.02 1.22,-2.78 3.32,-3.79 7.38,-11.11 9.48,-17.07 1.69,-5.01 1.83,-6.16 1.83,-15.92 0,-9.75 -0.14,-10.91 -1.83,-15.92 -6.37,-18.15 -21.61,-31.3 -40.1,-34.55 -7.11,-1.22 -11.11,-1.22 -18.09,0.07l0 0zm20.46 12.06c13.95,4.47 23.3,13.89 27.5,27.84 1.96,6.44 1.63,16.19 -0.68,23.03 -4.27,12.53 -12.94,21.2 -25.47,25.54 -6.23,2.17 -17.95,2.17 -24.73,0.07 -11.58,-3.66 -21.27,-13.14 -25.54,-25 -1.96,-5.55 -2.44,-16.66 -0.95,-22.63 1.9,-7.52 4.88,-12.67 10.57,-18.43 5.83,-5.83 11.92,-9.28 19.71,-11.04 5.15,-1.15 14.97,-0.88 19.58,0.61l0 0zm-34.75 83.86c6.77,3.59 14.56,5.42 23.23,5.42 9.15,0 15.51,-1.42 22.83,-5.15l4.67 -2.3 3.79 1.49c3.86,1.63 7.11,3.66 8.67,5.49 2.03,2.44 -4.81,6.71 -14.9,9.48 -20.52,5.49 -51.28,2.78 -62.05,-5.42 -2.91,-2.24 -2.91,-3.86 -0.07,-6.03 2.17,-1.69 9.28,-5.22 9.96,-4.94 0.2,0.07 1.9,0.95 3.86,1.96l0 -0zm-1.69 25.94c9.08,2.44 18.29,3.32 30.01,2.84 11.52,-0.47 19.24,-1.9 28.99,-5.42l6.57 -2.37 0 7.04c0,6.77 -0.07,7.18 -1.69,8.67 -11.24,10.43 -51.89,12.33 -71.4,3.39 -6.57,-2.98 -6.84,-3.46 -6.84,-11.86l0 -7.32 4.13 1.69c2.24,0.95 6.84,2.44 10.23,3.32l0 0zm-6.1 26.69c10.91,3.79 15.72,4.47 31.36,4.47 15.92,0 20.53,-0.68 32.65,-4.81 3.73,-1.29 7.05,-2.3 7.25,-2.3 0.2,0 0.41,3.05 0.41,6.77 0,6.37 -0.14,6.98 -1.69,8.53 -2.23,2.24 -7.72,4.67 -14.16,6.37 -21.13,5.35 -52.16,2.51 -62.05,-5.83 -2.03,-1.76 -2.03,-1.76 -2.03,-8.87 0,-6.5 0.14,-7.11 1.22,-6.77 0.61,0.2 3.79,1.29 7.05,2.44l0 0zm-0.07 28.59c10.03,3.39 14.43,4.06 28.04,4.47 15.58,0.47 23.03,-0.54 35.09,-4.54 4.47,-1.49 8.2,-2.71 8.33,-2.71 0.13,0 0.27,2.98 0.27,6.64 0,8.13 -0.54,9.01 -7.04,11.99 -9.89,4.54 -20.26,6.1 -37.33,5.55 -15.17,-0.47 -25.27,-2.71 -32.45,-7.25l-3.12 -2.03 0 -7.52c0,-6.91 0.07,-7.52 1.22,-7.05 0.61,0.27 3.79,1.36 6.98,2.44l0 0zm-1.22 28.11c10.43,3.73 14.97,4.47 29.4,4.81 16.05,0.41 23.57,-0.54 34.41,-4.27 3.73,-1.29 7.32,-2.51 7.99,-2.71 1.02,-0.41 1.15,0.2 1.15,6.3 0,8.06 -0.68,9.28 -6.57,12.06 -18.9,9.01 -57.17,7.72 -71.33,-2.37l-2.03 -1.42 0 -7.52c0,-6.84 0.07,-7.45 1.22,-6.98 0.61,0.27 3.25,1.22 5.76,2.1l-0 0zm1.83 29.13c19.58,6.77 47.62,6.17 66.32,-1.42 2.24,-0.95 4.27,-1.69 4.47,-1.69 0.2,0 0.34,3.12 0.34,6.98 0,6.77 -0.07,7.04 -1.83,8.81 -7.99,7.59 -35.5,11.25 -56.9,7.52 -6.84,-1.15 -15.85,-4.4 -18.9,-6.71l-2.3 -1.76 0 -7.52c0,-6.84 0.07,-7.45 1.22,-6.91 0.61,0.27 4.07,1.49 7.59,2.71l0 -0zm2.37 29.47c9.08,2.85 15.11,3.59 28.79,3.59 16.53,0 24.66,-1.56 38.81,-7.38 1.08,-0.47 1.15,0.13 1.15,6.57 0,6.84 -0.07,7.11 -1.83,8.87 -12.26,11.65 -60.9,12.19 -75.8,0.81l-2.3 -1.76 0 -7.38 0 -7.45 3.59 1.42c1.9,0.81 5.35,2.03 7.59,2.71l0 0zm1.02 28.79c19.98,5.82 45.25,4.67 64.22,-2.98l3.52 -1.49 0 7.18c0,6.84 -0.07,7.18 -1.76,8.74 -11.45,10.57 -53.72,12.26 -72.41,2.91 -5.49,-2.78 -5.76,-3.25 -5.76,-11.45l0 -7.32 3.25 1.35c1.76,0.75 5.76,2.17 8.94,3.05z"/>
 </g>
</svg>
