<?xml version="1.0" encoding="UTF-8"?>
<!DOCTYPE svg PUBLIC "-//W3C//DTD SVG 1.1//EN" "http://www.w3.org/Graphics/SVG/1.1/DTD/svg11.dtd">
<!-- Creator: CorelDRAW 2018 (64-Bit) -->
<svg xmlns="http://www.w3.org/2000/svg" xml:space="preserve" width="26.8112mm" height="26.8112mm" version="1.1" style="shape-rendering:geometricPrecision; text-rendering:geometricPrecision; image-rendering:optimizeQuality; fill-rule:evenodd; clip-rule:evenodd"
viewBox="0 0 10063.28 10063.28"
 xmlns:xlink="http://www.w3.org/1999/xlink"
 xmlns:svgjs="http://svgjs.com/svgjs">
 <defs>
  <style type="text/css">
   <![CDATA[
    .fil0 {fill:#898989}
   ]]>
  </style>
 </defs>
 <g id="Слой_x0020_1">
  <metadata id="CorelCorpID_0Corel-Layer"/>
  <g id="_2882607087200">
   <g>
    <path class="fil0" d="M9162.92 8066.78l-406.23 -141.05c227.42,-180.09 373.69,-458.36 373.69,-770.27l0 -297.76c0,-541.73 -440.8,-982.52 -982.52,-982.52 -541.73,0 -982.52,440.8 -982.52,982.52l0 297.76c0,311.91 146.34,590.18 373.76,770.27l-406.3 141.05c-260.56,90.53 -479.61,256.51 -636.46,468.2l-1097.45 0 0 -433.1c0,-570.06 -361.86,-1078.72 -900.36,-1265.68l-406.3 -141.05c227.42,-180.09 373.76,-458.33 373.76,-770.27l0 -297.76c0,-541.8 -440.8,-982.52 -982.52,-982.52 -541.73,0 -982.52,440.8 -982.52,982.52l0 297.76c0,311.94 146.34,590.18 373.69,770.27l-406.23 141.05c-538.5,186.96 -900.36,695.62 -900.36,1265.68l0 433.1 -1419.16 0c-82.2,0 -148.86,66.62 -148.86,148.86l0 1230.59c0,82.2 66.66,148.86 148.86,148.86l6192.83 0c6.68,0 13.29,-0.6 19.82,-1.46 6.53,0.86 13.14,1.46 19.89,1.46l3533.03 0c82.2,0 148.86,-66.66 148.86,-148.86l0 -581.96c0,-569.99 -361.79,-1078.65 -900.36,-1265.68zm-1699.83 -1209.08c0,-377.59 307.18,-684.77 684.77,-684.77 377.59,0 684.77,307.18 684.77,684.77l0 297.76c0,377.55 -307.18,684.77 -684.77,684.77 -377.59,0 -684.77,-307.21 -684.77,-684.77l0 -297.76zm-4664.41 -1230.59c0,-377.59 307.18,-684.77 684.77,-684.77 377.59,0 684.77,307.18 684.77,684.77l0 297.76c0,377.59 -307.18,684.77 -684.77,684.77 -377.59,0 -684.77,-307.18 -684.77,-684.77l0 -297.76zm997.09 1280.24l144.66 50.22 -456.97 792.87 -456.97 -792.87 144.66 -50.22 624.64 0zm-1929.99 1194.52c0,-443.39 281.47,-839.03 700.27,-984.44l174.12 -60.43 614.28 1065.96c26.57,46.17 75.78,74.58 129,74.58 53.22,0 102.43,-28.41 129,-74.58l614.28 -1065.96 174.12 60.43c418.8,145.41 700.19,541.05 700.19,984.44l0 433.1 -3235.27 0 0 -433.1zm-1568.02 730.82l6031.73 0c-62.83,155.8 -96.99,324.86 -96.99,499.76l0 433.07 -5934.74 0 0 -932.83zm9467.77 932.83l-3235.27 0 0 -433.07c0,-443.39 281.39,-838.96 700.19,-984.44l605.08 -210.08 624.64 0 605.08 210.08c418.92,145.48 700.27,541.05 700.27,984.44l0 433.07zm0 0z" data-original="#000000"/>
    <path class="fil0" d="M9120.47 1071.82l-1512.2 0c-82.24,0 -148.86,66.7 -148.86,148.86 0,82.24 66.62,148.86 148.86,148.86l1512.2 0c355.71,0 645.06,289.39 645.06,645.17l0 2064.21c0,355.71 -289.35,645.09 -645.06,645.09l-2044.4 0c-82.24,0 -148.9,66.62 -148.9,148.86l0 633.08 -738.29 -738.37c-27.93,-27.93 -65.8,-43.58 -105.24,-43.58l-1210.77 0c-355.71,0 -645.17,-289.39 -645.17,-645.09l0 -2064.29c0,-355.71 289.39,-645.09 645.17,-645.09l2039.4 0c82.24,0 148.9,-66.62 148.9,-148.86 0,-82.24 -66.66,-148.86 -148.9,-148.86l-779.05 0 0 -129c0,-519.84 -422.93,-942.81 -942.81,-942.81l-4247.6 0c-519.84,0 -942.81,422.97 -942.81,942.81l0 329.13c0,82.24 66.66,148.9 148.86,148.9 82.24,0 148.9,-66.66 148.9,-148.9l0 -329.13c0,-355.71 289.35,-645.06 645.06,-645.06l4247.6 0c355.71,0 645.09,289.35 645.09,645.06l0 129 -962.63 0c-519.84,0 -942.81,422.97 -942.81,942.81l0 1637.49 -1558.11 0c-82.24,0 -148.9,66.66 -148.9,148.86l0 633.12 -738.25 -738.37c-27.96,-27.96 -65.8,-43.61 -105.28,-43.61l-436.71 0c-355.71,0 -645.06,-289.39 -645.06,-645.09l0 -1042.84c0,-82.24 -66.66,-148.86 -148.9,-148.86 -82.2,0 -148.86,66.62 -148.86,148.86l0 1042.84c0,519.96 422.97,942.85 942.81,942.85l375 0 948.86 948.86c28.49,28.49 66.59,43.61 105.28,43.54 19.18,0 38.55,-3.68 56.98,-11.3 55.59,-23.01 91.88,-77.28 91.88,-137.49l0 -843.61 1409.25 0 0 129.04c0,519.84 422.97,942.74 942.81,942.74l1149.1 0 948.82 948.89c28.49,28.49 66.59,43.61 105.28,43.61 19.18,0 38.51,-3.68 56.94,-11.37 55.59,-23.05 91.92,-77.32 91.92,-137.52l0 -843.61 1895.54 0c519.84,0 942.81,-422.89 942.81,-942.74l0 -2064.29c0,-519.84 -422.97,-942.81 -942.81,-942.81zm0 0z" data-original="#000000"/>
   </g>
  </g>
 </g>
</svg>
