<?xml version="1.0" encoding="UTF-8"?>
<!DOCTYPE svg PUBLIC "-//W3C//DTD SVG 1.1//EN" "http://www.w3.org/Graphics/SVG/1.1/DTD/svg11.dtd">
<!-- Creator: CorelDRAW 2018 (64-Bit) -->
<svg xmlns="http://www.w3.org/2000/svg" xml:space="preserve" width="32.3773mm" height="32.3772mm" version="1.1" style="shape-rendering:geometricPrecision; text-rendering:geometricPrecision; image-rendering:optimizeQuality; fill-rule:evenodd; clip-rule:evenodd"
viewBox="0 0 1705.43 1705.42"
 xmlns:xlink="http://www.w3.org/1999/xlink"
 enable-background="new 0 0 512 512">
 <defs>
  <style type="text/css">
   <![CDATA[
    .fil0 {fill:#FDB44B}
   ]]>
  </style>
 </defs>
 <g id="Слой_x0020_1">
  <metadata id="CorelCorpID_0Corel-Layer"/>
  <g id="_2882607050432">
   <g>
    <path class="fil0" d="M1705.42 631.98l0 -197.87c0,-21.42 -8.34,-41.55 -23.48,-56.69l-78.04 -78.04c-15.14,-15.14 -35.28,-23.48 -56.69,-23.48l-368.63 0c-13.8,0 -24.98,11.18 -24.98,24.98 0,13.8 11.18,24.98 24.98,24.98l368.64 0c8.06,0 15.65,3.14 21.35,8.84l78.04 78.04c5.71,5.7 8.85,13.29 8.85,21.35l0 197.87c0,47.08 -38.3,85.38 -85.38,85.38l-593.98 0c-4.66,0 -9.33,-1.1 -13.51,-3.19l-84.9 -42.45 0 -300.21 84.91 -42.45c4.17,-2.09 8.83,-3.19 13.5,-3.19l102.56 0c13.8,0 24.98,-11.18 24.98,-24.98 0,-13.8 -11.18,-24.98 -24.98,-24.98l-102.56 0c-12.38,0 -24.78,2.93 -35.85,8.46l-93.43 46.72 -91.44 0c-12.38,0 -24.78,2.93 -35.85,8.46l-93.43 46.72 -51.17 0c-35.12,0 -64.92,23.26 -74.8,55.18l-229.43 0 0 -389.82c0,-28.47 -23.16,-51.63 -51.63,-51.63l-167.43 0c-28.47,0 -51.63,23.16 -51.63,51.63l0 364.84c0,13.8 11.19,24.98 24.98,24.98 13.8,0 24.98,-11.18 24.98,-24.98l0 -256.15 170.76 0 0 1384.77 -170.76 -0.01 0 -1028.69c0,-13.8 -11.19,-24.98 -24.98,-24.98 -13.8,0 -24.98,11.18 -24.98,24.98l0 1137.39c0,28.47 23.16,51.63 51.63,51.63l167.43 0c28.47,0 51.63,-23.16 51.63,-51.63l0 -1052.01 229.43 0c9.88,31.93 39.67,55.18 74.8,55.18l51.17 0 93.43 46.72c11.07,5.54 23.47,8.46 35.85,8.46l91.44 0.01 93.44 46.72c11.07,5.53 23.47,8.46 35.84,8.46l44.77 0 0 111.03c0,26.86 13.34,51.8 35.7,66.7l44.3 29.53c13.21,8.81 28.59,13.47 44.47,13.47l67.49 0 50.21 225.94 -104.87 0c-26.86,0 -51.79,13.35 -66.7,35.7l-87.42 131.14c-37.44,6.74 -65.94,39.53 -65.94,78.87 0,35.48 23.18,65.63 55.18,76.16l0 36.1c0,43.16 35.12,78.28 78.28,78.28l500.41 0c43.16,0 78.27,-35.12 78.27,-78.28l0 -36.1c32,-10.52 55.18,-40.67 55.18,-76.16 0,-35.48 -23.18,-65.63 -55.18,-76.16l0 -89.39c0,-37.06 -25.29,-68.32 -59.52,-77.46l-99.86 -449.38 79.22 0.01c74.62,0 135.34,-60.72 135.34,-135.35zm-963.07 -80.16c-13.8,0 -24.98,11.18 -24.98,24.98l0 69.95 -60.4 -30.2 0 -189.85 60.4 -30.2 0 69.94c0,13.8 11.19,24.98 24.98,24.98 13.8,0 24.98,-11.18 24.98,-24.98l0 -85.38 60.4 0 0 281.13 -60.4 0 0 -85.38c0,-13.8 -11.19,-24.98 -24.98,-24.98zm-245.71 -60.41l0 60.41 -108.42 0 30.2 -60.41 78.22 0zm-446.67 -381.06l0 -58.73c0,-0.92 0.74,-1.67 1.66,-1.67l167.43 0c0.92,0 1.66,0.75 1.66,1.67l0 58.73 -170.76 0zm169.1 1545.1l-167.43 0c-0.92,0 -1.66,-0.75 -1.66,-1.66l0 -58.74 170.76 0 0 58.74c0,0.91 -0.75,1.66 -1.66,1.66zm51.63 -1164.04l91.87 0 -30.2 60.41 -61.66 0 0 -60.41zm336.31 115.58l-32.08 0c-15.61,0 -28.31,-12.7 -28.31,-28.31l0 -114.14c0,-15.61 12.7,-28.31 28.31,-28.31l32.08 0 0 170.76zm538.33 331.1c-5.99,0 -11.78,-1.75 -16.75,-5.07l-44.3 -29.53c-8.42,-5.62 -13.45,-15.01 -13.45,-25.13l0 -111.03 92.94 0 37.95 170.76 -56.38 0 0 0zm454.95 633.87c0,15.61 -12.7,28.31 -28.31,28.31l-500.41 0c-15.61,0 -28.31,-12.7 -28.31,-28.31l0 -32.09 557.03 -0.01 0 32.09 0.01 0zm24.98 -82.05l-607.01 0c-16.66,0 -30.2,-13.55 -30.2,-30.2 0,-16.65 13.55,-30.2 30.2,-30.2l607 0c16.65,0 30.2,13.55 30.2,30.2 0,16.65 -13.54,30.2 -30.19,30.2zm-24.98 -110.36l-535.34 0 68.09 -102.13c5.62,-8.42 15.01,-13.45 25.13,-13.45l411.92 0c16.66,0 30.2,13.55 30.2,30.2l0 85.38 0.01 0zm-286.07 -165.55l-56.88 -255.94 -0.02 -0.08 -17.85 -80.29 224.73 0 74.74 336.31 -224.73 0zm138.88 -386.28l-224.72 0 -13.43 -60.4 224.73 0 13.42 60.4zm-349.46 -222.39c0,28.47 23.16,51.63 51.63,51.63l332.98 0c28.47,0 51.63,-23.16 51.63,-51.63l0 -167.43c0,-28.47 -23.16,-51.63 -51.63,-51.63l-332.98 0c-28.47,0 -51.63,23.16 -51.63,51.63l0 167.43zm49.97 -167.43c0,-0.91 0.75,-1.66 1.66,-1.66l332.98 0c0.92,0 1.66,0.75 1.66,1.66l0 167.44c0,0.92 -0.75,1.66 -1.66,1.66l-332.98 0c-0.92,0 -1.66,-0.75 -1.66,-1.66l0 -167.44zm140.56 108.7l110.37 0c13.8,0 24.98,-11.18 24.98,-24.98 0,-13.8 -11.18,-24.98 -24.98,-24.98l-110.37 0c-13.8,0 -24.98,11.18 -24.98,24.98 0,13.8 11.18,24.98 24.98,24.98l0 -0.01zm-938.1 -165.54c6.39,0 12.79,-2.44 17.67,-7.32l110.36 -110.37c9.76,-9.76 9.76,-25.57 0,-35.33 -9.76,-9.76 -25.57,-9.76 -35.33,0l-110.36 110.37c-9.76,9.76 -9.76,25.57 0,35.33 4.88,4.88 11.27,7.32 17.66,7.32l0 0zm17.67 288.44c-9.76,-9.75 -25.58,-9.75 -35.33,0 -9.76,9.76 -9.76,25.58 0,35.33l110.36 110.37c4.88,4.88 11.27,7.31 17.67,7.31 6.39,0 12.78,-2.43 17.66,-7.31 9.76,-9.76 9.76,-25.58 0,-35.33l-110.36 -110.37z"/>
   </g>
  </g>
 </g>
</svg>
