<?xml version="1.0" encoding="UTF-8"?>
<!DOCTYPE svg PUBLIC "-//W3C//DTD SVG 1.1//EN" "http://www.w3.org/Graphics/SVG/1.1/DTD/svg11.dtd">
<!-- Creator: CorelDRAW 2018 (64-Bit) -->
<svg xmlns="http://www.w3.org/2000/svg" xml:space="preserve" width="24.6359mm" height="25.0229mm" version="1.1" style="shape-rendering:geometricPrecision; text-rendering:geometricPrecision; image-rendering:optimizeQuality; fill-rule:evenodd; clip-rule:evenodd"
viewBox="0 0 393.38 399.56"
 xmlns:xlink="http://www.w3.org/1999/xlink"
 enable-background="new 0 0 512 512">
 <defs>
  <style type="text/css">
   <![CDATA[
    .fil0 {fill:#FDB44B}
   ]]>
  </style>
 </defs>
 <g id="Слой_x0020_1">
  <metadata id="CorelCorpID_0Corel-Layer"/>
  <g id="_2882607068736">
   <path class="fil0" d="M388.58 171.17c-4.14,-6.26 -10.42,-10.57 -17.72,-12.2 4.71,-9.01 4.52,-20.25 -1.48,-29.3 -4.27,-6.45 -10.7,-10.61 -17.71,-12.19 1.25,-2.38 2.17,-4.96 2.73,-7.67 1.53,-7.54 0.04,-15.23 -4.22,-21.65 -4.14,-6.26 -10.42,-10.57 -17.72,-12.2 4.71,-9.01 4.52,-20.25 -1.48,-29.31 -8.77,-13.25 -26.69,-16.89 -39.94,-8.11l-28.69 19c-15.29,-7.76 -31.55,-13.26 -48.43,-16.39 -5.33,-8.1 -11.54,-15.63 -18.48,-22.36l-11.87 -11.5c-8.69,-8.43 -22.32,-9.69 -32.41,-3.01 -11.94,7.91 -15.22,24.05 -7.31,35.99 0.31,0.47 0.61,0.95 0.92,1.42 -38.9,7.87 -74.35,28.51 -100.59,58.76 -28.47,32.83 -44.16,74.87 -44.16,118.38 0,8.34 0.57,16.7 1.7,24.83 8.69,63.23 50.81,117.71 109.91,142.2 21.92,9.09 45.17,13.69 69.11,13.69 37.91,0 74.2,-11.61 104.95,-33.58 30.08,-21.49 52.59,-51.15 65.09,-85.77 1.17,-3.23 -0.51,-6.79 -3.73,-7.95 -3.23,-1.16 -6.79,0.51 -7.95,3.73 -11.64,32.24 -32.6,59.85 -60.63,79.87 -28.63,20.45 -62.42,31.26 -97.73,31.26 -18.25,0 -36.08,-2.88 -53.14,-8.56l50.55 -33.47 0.01 -0.01 0 -0.01 42.01 -27.82 0 0c3.77,-2.5 6.35,-6.32 7.25,-10.75 0.9,-4.43 0.02,-8.96 -2.48,-12.73l-0.55 -0.84 8.16 -5.41c5.82,-3.86 12.82,-5.37 19.72,-4.26 9.98,1.6 20.12,-0.59 28.55,-6.17l67.68 -44.82c-0.46,5.87 -1.22,11.71 -2.29,17.45 -0.63,3.37 1.6,6.62 4.98,7.24 0.38,0.07 0.76,0.11 1.14,0.11 2.93,0 5.54,-2.09 6.1,-5.08 1.72,-9.26 2.71,-18.75 2.97,-28.25l19.07 -12.63c6.42,-4.25 10.8,-10.75 12.33,-18.29 1.53,-7.54 0.04,-15.23 -4.21,-21.65l0 0zm-138.3 -105.65l-18.98 12.57 -3.74 -10.07c-1.56,-4.2 -3.35,-8.32 -5.33,-12.35 9.63,2.44 19.01,5.73 28.05,9.85l0 0zm-196.73 43.07c25.22,-29.07 59.57,-48.61 97.15,-55.39 6.03,14.61 7.47,30.93 3.87,46.48l-15.15 65.44c-2.38,-2.54 -5.47,-4.29 -8.95,-5 -4.44,-0.91 -8.96,-0.02 -12.73,2.47l-42.9 28.41 -0.01 0 -0 0 -61.88 40.98c-0.34,-4.37 -0.51,-8.76 -0.51,-13.16 0,-40.52 14.6,-79.67 41.12,-110.24l0 0zm161.69 195.44c-0.24,1.18 -0.93,2.2 -1.94,2.87l0 0 -36.9 24.43 -68.48 -102.13c-1.91,-2.85 -5.77,-3.61 -8.62,-1.7 -2.85,1.91 -3.61,5.77 -1.7,8.62l68.44 102.07 -52.67 34.88c-52.34,-22.89 -89.8,-71.24 -98.8,-127.5l61.96 -40.89 7.13 10.64c1.2,1.79 3.16,2.75 5.17,2.75 1.19,0 2.39,-0.34 3.45,-1.05 2.85,-1.91 3.61,-5.77 1.7,-8.62l-7.08 -10.56 37.71 -24.89c1,-0.67 2.21,-0.9 3.39,-0.66 1.18,0.24 2.21,0.93 2.87,1.94l83.71 126.41c0.67,1 0.9,2.21 0.66,3.39l-0 0zm165.38 -113.69c-0.87,4.29 -3.36,7.99 -7.01,10.4l-21.81 14.44 -0.02 0.01 -77.83 51.54c-5.82,3.86 -12.83,5.37 -19.72,4.26 -9.98,-1.6 -20.12,0.59 -28.55,6.17l-8.16 5.41 -68.56 -103.53 17.72 -76.56c4.56,-19.72 2.16,-40.5 -6.54,-58.6 -0.08,-0.19 -0.16,-0.37 -0.26,-0.55 -1.67,-3.42 -3.57,-6.74 -5.69,-9.94 -4.12,-6.23 -2.41,-14.64 3.82,-18.77 5.26,-3.48 12.37,-2.82 16.9,1.57l11.87 11.5c12.84,12.45 22.91,27.88 29.13,44.64l6.46 17.41 0.04 0.09 0.05 0.12 0.13 0.29c0.12,0.26 0.26,0.52 0.43,0.77 1.9,2.86 5.75,3.65 8.61,1.75l66.26 -43.88c7.54,-4.99 17.73,-2.92 22.72,4.61 4.99,7.54 2.92,17.73 -4.61,22.72l-5.75 3.81 -0.01 0 -12.83 8.5 -0.05 0.03 -0.2 0.15c-2.65,1.95 -3.34,5.65 -1.5,8.43 1.89,2.86 5.75,3.65 8.61,1.75l12.84 -8.5c3.65,-2.41 8.02,-3.26 12.31,-2.39 4.29,0.87 7.99,3.36 10.4,7.01 2.42,3.65 3.27,8.02 2.4,12.31 -0.87,4.29 -3.36,7.99 -7.01,10.4l-18.59 12.31c-2.86,1.89 -3.65,5.75 -1.75,8.61 1.2,1.81 3.17,2.78 5.19,2.78 1.18,0 2.37,-0.34 3.42,-1.03l2.88 -1.9 9.96 -6.59c7.54,-4.99 17.73,-2.92 22.72,4.61 4.99,7.54 2.92,17.73 -4.61,22.72l-9.29 6.15 -0.15 0.1 -9.16 6.06c-2.86,1.89 -3.65,5.75 -1.75,8.61 1.19,1.81 3.17,2.78 5.18,2.78 1.18,0 2.37,-0.34 3.42,-1.03l2.88 -1.9 0 -0 9.96 -6.59c3.65,-2.42 8.02,-3.27 12.31,-2.4 4.29,0.87 7.99,3.36 10.4,7.01 2.41,3.65 3.27,8.02 2.39,12.31l-0 0zm0 0z"/>
  </g>
 </g>
</svg>
