<?xml version="1.0" encoding="UTF-8"?>
<!DOCTYPE svg PUBLIC "-//W3C//DTD SVG 1.1//EN" "http://www.w3.org/Graphics/SVG/1.1/DTD/svg11.dtd">
<!-- Creator: CorelDRAW 2018 (64-Bit) -->
<svg xmlns="http://www.w3.org/2000/svg" xml:space="preserve" width="30.2113mm" height="30.2112mm" version="1.1" style="shape-rendering:geometricPrecision; text-rendering:geometricPrecision; image-rendering:optimizeQuality; fill-rule:evenodd; clip-rule:evenodd"
viewBox="0 0 669.13 669.12"
 xmlns:xlink="http://www.w3.org/1999/xlink"
 xmlns:svgjs="http://svgjs.com/svgjs">
 <defs>
  <style type="text/css">
   <![CDATA[
    .fil0 {fill:#898989}
   ]]>
  </style>
 </defs>
 <g id="Слой_x0020_1">
  <metadata id="CorelCorpID_0Corel-Layer"/>
  <g id="_2882607065664">
   <g>
    <g>
     <path class="fil0" d="M448.34 535.52c-22.23,0 -40.32,18.09 -40.32,40.32 0,22.23 18.09,40.32 40.32,40.32 22.23,0 40.32,-18.09 40.32,-40.32 0,-22.23 -18.09,-40.32 -40.32,-40.32zm0 61.03c-11.42,0 -20.72,-9.29 -20.72,-20.72 0,-11.42 9.29,-20.72 20.72,-20.72 11.42,0 20.72,9.29 20.72,20.72 0,11.42 -9.29,20.72 -20.72,20.72z" data-original="#000000"/>
     <path class="fil0" d="M649.18 205.59l-47.75 0 0 -195.79c0,-5.41 -4.39,-9.8 -9.8,-9.8l-581.83 0c-5.42,0 -9.8,4.39 -9.8,9.8l0 581.83c0,5.41 4.39,9.8 9.8,9.8l35.57 0c12.67,0 12.67,-19.6 0,-19.6l-25.77 0 0 -562.22 212.72 0 0 294.18c0,12.67 19.6,12.67 19.6,0l0 -294.18 329.9 0 0 132.4 -281.11 0c-12.67,0 -12.67,19.6 0,19.6l281.11 0 0 33.99 -67.56 0c-11,0 -19.95,8.95 -19.95,19.95l0 35.43 -22 0c-5.42,0 -9.8,4.39 -9.8,9.8l0 131.62 -210.59 0 0 -18.35c0,-12.67 -19.6,-12.67 -19.6,0l0 56.44c0,12.67 19.6,12.67 19.6,0l0 -18.48 210.6 0 0 60.55 -14.18 0c-51.44,0 -93.29,41.85 -93.29,93.29 0,2.01 0.09,4.01 0.21,5.99l-103.34 0 0 -74.5c0,-12.67 -19.6,-12.67 -19.6,0l0 74.5 -125.81 0c-12.67,0 -12.67,19.6 0,19.6l252.13 0c11.16,39.03 47.13,67.69 89.69,67.69 29.19,0 55.28,-13.49 72.4,-34.54l13.45 24.45c0.04,0.08 0.08,0.15 0.13,0.23 3.56,6.08 10.16,9.86 17.21,9.86l60.39 0c7.05,0 13.65,-3.78 17.21,-9.86l37.26 -63.62c1.79,-3.05 2.74,-6.54 2.74,-10.08l0 -360.03c-0,-11 -8.95,-19.94 -19.95,-19.94l0 0zm0.34 74.74l0 36.86 -107.89 0 0 -36.86 107.89 0zm-107.89 56.47l107.89 0 0 36.87 -107.89 0 0 -36.87zm0 56.47l107.89 0 0 36.86 -107.89 -0 0 -36.86zm-27.36 -168.07l134.91 0c0.19,0 0.34,0.15 0.34,0.34l0 35.19 -135.6 0 0 -35.19c0,-0.19 0.15,-0.34 0.34,-0.34l0 0zm7.76 55.38l0 36.86 -39.9 0 0 -36.86 39.9 0zm-39.9 182.33l13.67 0c5.42,0 9.8,-4.39 9.8,-9.8 0,-5.42 -4.39,-9.8 -9.8,-9.8l-13.67 0 0 -21.62 13.67 0c5.42,0 9.8,-4.39 9.8,-9.8 0,-5.42 -4.39,-9.8 -9.8,-9.8l-13.67 0 0 -21.62 13.67 0c5.42,0 9.8,-4.39 9.8,-9.8 0,-5.41 -4.39,-9.8 -9.8,-9.8l-13.67 0 0 -23.82 39.9 0 0 145.51 -39.9 0 0 -19.64zm-33.78 186.61c-40.63,0 -73.68,-33.05 -73.68,-73.68 0,-40.63 33.05,-73.69 73.68,-73.69l73.68 0 0 73.69c0,40.63 -33.06,73.68 -73.68,73.68l0 0zm201.13 -63.79l-37.26 63.62c-0.06,0.1 -0.17,0.17 -0.3,0.17l-60.39 0c-0.11,0 -0.21,-0.05 -0.27,-0.14l-18.56 -33.75c5.72,-12.08 8.94,-25.57 8.94,-39.8l0 -83.49 0 -42.62 107.89 0 0 135.83c0,0.06 -0.02,0.12 -0.05,0.17l0 0z" data-original="#000000"/>
     <path class="fil0" d="M581.72 570.9c-16.54,0 -29.99,13.46 -29.99,29.99 0,16.54 13.46,29.99 29.99,29.99 16.54,0 29.99,-13.45 29.99,-29.99 0,-16.54 -13.45,-29.99 -29.99,-29.99zm0 40.38c-5.73,0 -10.39,-4.66 -10.39,-10.39 0,-5.73 4.66,-10.39 10.39,-10.39 5.73,0 10.39,4.66 10.39,10.39 0,5.73 -4.66,10.39 -10.39,10.39z" data-original="#000000"/>
    </g>
   </g>
  </g>
 </g>
</svg>
