<?xml version="1.0" encoding="UTF-8"?>
<!DOCTYPE svg PUBLIC "-//W3C//DTD SVG 1.1//EN" "http://www.w3.org/Graphics/SVG/1.1/DTD/svg11.dtd">
<!-- Creator: CorelDRAW 2018 (64-Bit) -->
<svg xmlns="http://www.w3.org/2000/svg" xml:space="preserve" width="35.7057mm" height="35.7225mm" version="1.1" style="shape-rendering:geometricPrecision; text-rendering:geometricPrecision; image-rendering:optimizeQuality; fill-rule:evenodd; clip-rule:evenodd"
viewBox="0 0 416.64 416.84"
 xmlns:xlink="http://www.w3.org/1999/xlink">
 <defs>
  <style type="text/css">
   <![CDATA[
    .fil0 {fill:#FDB44B}
   ]]>
  </style>
 </defs>
 <g id="Слой_x0020_1">
  <metadata id="CorelCorpID_0Corel-Layer"/>
  <g id="_2882338425360">
   <g>
    <path class="fil0" d="M203.03 1.06c-1.3,0.65 -8.47,5.21 -15.88,10.18 -7.33,4.97 -13.92,9.04 -14.49,9.04 -0.65,0 -8.71,-1.71 -18,-3.75 -14.82,-3.26 -17.26,-3.66 -20.19,-2.85 -1.79,0.49 -4.15,1.63 -5.29,2.44 -1.06,0.9 -6.43,8.06 -11.97,15.88 -5.46,7.9 -10.18,14.33 -10.34,14.33 -1.87,0 -33.06,5.13 -35.01,5.7 -2.61,0.9 -6.03,3.99 -7.49,7 -0.49,0.98 -2.77,9.2 -5.05,18.32l-4.15 16.61 -15.55 8.96c-8.55,4.89 -16.2,9.85 -17.02,10.91 -3.34,4.23 -3.5,6.84 -1.22,24.67 1.14,9.2 2.12,17.26 2.12,17.92 0,0.65 -4.89,7.33 -10.91,14.74 -6.03,7.49 -11.4,14.9 -11.89,16.53 -1.71,4.97 -0.57,8.47 8.06,24.27 4.48,8.39 8.22,15.63 8.22,16.12 0,0.41 -2.44,8.31 -5.37,17.43 -7.65,23.78 -8.14,22.31 13.11,40.31l11.65 9.77 0.49 5.86c0.25,3.26 0.65,10.59 0.98,16.45 0.57,12.78 1.3,15.88 4.48,19.54 2.61,2.93 3.58,3.34 23.13,10.18 6.76,2.36 12.62,4.64 13.19,5.21 0.57,0.49 3.99,7.49 7.65,15.55 7.74,17.02 8.71,18.57 13.11,20.85 3.18,1.63 4.07,1.71 21.58,1.14l18.24 -0.65 12.78 12.62c13.52,13.35 16.2,15.06 22.07,14.25 1.63,-0.24 10.02,-3.42 18.65,-7.08l15.63 -6.76 16.61 7.08c9.12,3.83 17.67,7 19.14,7 5.05,0 8.47,-2.44 20.93,-14.82l12.46 -12.3 17.83 0.57c16.78,0.57 18.16,0.57 21.5,-0.98 2.04,-0.9 4.4,-2.61 5.29,-3.91 0.9,-1.3 4.72,-9.04 8.39,-17.18 3.66,-8.14 7.08,-15.15 7.57,-15.55 0.57,-0.41 7.57,-3.01 15.63,-5.86 17.1,-5.86 18.24,-6.43 21.09,-9.77 2.77,-3.42 3.5,-6.68 4.07,-19.14 0.33,-5.86 0.73,-13.19 0.98,-16.37l0.49 -5.86 11.64 -9.85c21.25,-18 20.76,-16.53 13.11,-40.31 -2.93,-9.12 -5.37,-17.02 -5.37,-17.43 0,-0.49 3.75,-7.74 8.22,-16.12 8.63,-15.8 9.77,-19.3 8.06,-24.27 -0.49,-1.63 -5.86,-9.04 -11.89,-16.53 -6.03,-7.41 -10.91,-13.92 -10.91,-14.41 0,-0.49 0.98,-8.71 2.12,-18.24 3.09,-24.75 3.99,-23.04 -20.36,-36.89l-13.44 -7.65 -4.15 -16.53c-2.28,-9.2 -4.64,-17.59 -5.21,-18.81 -1.47,-2.77 -4.4,-5.46 -7.17,-6.51 -1.63,-0.65 -32.98,-5.78 -35.1,-5.78 -0.25,0 -4.97,-6.43 -10.42,-14.33 -5.54,-7.82 -10.91,-14.98 -11.97,-15.88 -4.72,-3.67 -7.25,-3.67 -25.32,0.41 -9.2,2.04 -17.34,3.75 -18.08,3.75 -0.65,0 -6.92,-3.91 -13.84,-8.63 -6.92,-4.72 -14.01,-9.37 -15.8,-10.18 -3.83,-1.79 -7.98,-1.95 -11.4,-0.41l0 -0zm20.52 20.93c12.78,8.47 15.47,10.02 18.73,10.26 2.77,0.24 8.96,-0.73 20.52,-3.34 9.2,-2.04 16.94,-3.5 17.26,-3.18 0.24,0.41 4.8,6.76 10.02,14.25 5.21,7.41 10.59,14.49 11.89,15.55 2.85,2.44 2.36,2.28 22.72,5.37 8.71,1.38 16.04,2.77 16.37,3.09 0.33,0.33 2.36,7.82 4.48,16.53 2.12,8.71 4.56,17.18 5.37,18.89 1.79,3.58 2.52,4.07 19.22,13.68 7.33,4.15 13.6,7.98 14.01,8.47 0.57,0.65 0.08,7 -1.3,18.57 -1.79,14.49 -2.04,18.08 -1.22,20.68 0.57,1.95 5.05,8.31 11.97,16.78 6.03,7.49 10.99,13.84 10.99,14.17 0,0.33 -3.83,7.82 -8.55,16.61 -6.6,12.3 -8.55,16.78 -8.55,19.14 0,1.71 2.36,10.51 5.29,19.54 2.93,9.12 5.29,16.69 5.29,16.94 0,0.24 -6.19,5.7 -13.68,12.21 -8.47,7.25 -14.25,12.87 -15.06,14.58 -0.9,1.95 -1.55,7.49 -2.28,20.19 -0.57,10.51 -1.3,17.83 -1.87,18.4 -0.49,0.49 -8.23,3.42 -17.18,6.51 -12.7,4.4 -16.77,6.19 -18.73,8.14 -1.55,1.55 -5.13,8.47 -9.69,18.57l-7.33 16.12 -17.18 -0.65c-9.53,-0.33 -18.73,-0.33 -20.36,0 -2.61,0.49 -5.29,2.77 -16.29,13.6 -7.33,7.08 -13.6,12.95 -14.01,12.95 -0.41,0 -7.98,-3.09 -16.86,-6.92 -10.91,-4.72 -17.1,-6.92 -19.22,-6.92 -2.12,0 -8.31,2.2 -19.22,6.92 -8.88,3.83 -16.45,6.92 -16.86,6.92 -0.41,0 -6.68,-5.86 -14.01,-12.95 -10.99,-10.83 -13.68,-13.11 -16.29,-13.6 -1.63,-0.33 -10.83,-0.33 -20.28,0l-17.26 0.65 -6.76 -14.98c-3.66,-8.23 -7.57,-16.2 -8.63,-17.83 -2.28,-3.58 -4.8,-4.8 -22.8,-10.91 -7.57,-2.61 -14.25,-5.13 -14.74,-5.62 -0.57,-0.57 -1.3,-7.9 -1.87,-18.4 -0.73,-12.7 -1.38,-18.24 -2.28,-20.19 -0.81,-1.71 -6.6,-7.33 -15.06,-14.58 -7.49,-6.51 -13.68,-11.97 -13.68,-12.21 0,-0.24 2.44,-7.98 5.37,-17.18 4.23,-13.11 5.29,-17.51 4.97,-20.19 -0.25,-2.2 -3.18,-8.63 -8.63,-18.81 -4.48,-8.47 -8.23,-15.72 -8.23,-16.04 0,-0.33 4.97,-6.68 10.99,-14.17 6.92,-8.47 11.4,-14.82 11.97,-16.78 0.81,-2.61 0.57,-6.19 -1.22,-20.68 -1.47,-11.89 -1.87,-17.91 -1.3,-18.57 0.41,-0.57 6.76,-4.4 14.01,-8.55 16.61,-9.45 17.43,-10.02 19.22,-13.6 0.81,-1.71 3.26,-10.18 5.37,-18.89 2.12,-8.71 4.15,-16.12 4.48,-16.53 0.24,-0.33 7.65,-1.71 16.37,-3.01 20.44,-3.18 19.87,-3.01 22.8,-5.46 1.3,-1.14 6.43,-7.82 11.32,-14.82 4.89,-7 9.28,-13.35 9.93,-14.17 0.98,-1.3 1.95,-1.22 17.75,2.36 11.64,2.61 17.83,3.58 20.6,3.34 3.26,-0.24 5.94,-1.71 18.73,-10.26 8.14,-5.37 14.98,-9.85 15.23,-9.85 0.16,0 7.08,4.48 15.23,9.85l0 0z"/>
    <path class="fil0" d="M189.59 50.97c-14.25,1.79 -36.4,7.9 -39.57,10.91 -3.26,3.09 -2.28,8.06 1.95,9.53 1.79,0.65 3.58,0.33 8.39,-1.22 9.2,-3.01 20.93,-5.7 29.64,-6.76 11.48,-1.47 35.99,-0.65 46.41,1.63 40.88,8.71 75.81,33.63 97.14,69.3 9.77,16.29 16.45,36.24 18.97,56.35 1.38,11.64 0.57,34.53 -1.71,45.76 -3.18,15.88 -9.61,32.65 -17.83,46.17 -4.48,7.33 -4.4,10.5 0.16,12.46 3.99,1.63 6.27,0.33 10.1,-5.94 9.85,-16.04 16.45,-33.79 20.36,-54.31 1.87,-10.18 2.36,-36.32 0.73,-47.64 -6.43,-46.01 -30.37,-84.44 -68.4,-110.09 -17.51,-11.73 -35.91,-19.46 -56.68,-23.94 -8.96,-1.87 -12.38,-2.12 -28.5,-2.36 -10.1,-0.16 -19.62,-0.08 -21.17,0.16l0 0z"/>
    <path class="fil0" d="M119.48 77.19c-35.99,24.1 -61.32,64.41 -67.91,108.06 -1.63,10.75 -1.63,33.79 0.08,45.03 6.51,44.79 31.11,83.71 68.81,109.03 18.97,12.7 42.26,21.66 65.14,25 11.07,1.55 33.39,1.55 44.62,0 31.02,-4.4 58.87,-17.51 83.71,-39.49 8.47,-7.41 9.85,-9.53 8.88,-13.52 -0.65,-2.28 -4.64,-4.4 -7.25,-3.75 -0.9,0.24 -4.56,3.18 -8.22,6.6 -20.44,19.22 -43.89,31.27 -71.41,36.89 -8.22,1.63 -11.56,1.87 -28.83,1.87 -17.18,0 -20.52,-0.24 -27.85,-1.87 -18.32,-3.99 -35.67,-11.4 -51.14,-21.74 -31.84,-21.25 -54.07,-53.26 -62.78,-90.39 -2.28,-9.36 -2.36,-10.59 -2.36,-30.54 0,-19.95 0.08,-21.17 2.28,-30.46 9.04,-38.03 28.58,-67.34 60.1,-89.98 8.79,-6.35 10.18,-8.55 7.49,-12.13 -2.77,-3.75 -6.19,-3.42 -13.35,1.38l0 0z"/>
    <path class="fil0" d="M207.91 90.22c-3.58,2.12 -6.76,6.19 -7.33,9.28 -0.24,1.47 -0.73,10.1 -1.22,19.3 -1.06,23.37 -3.75,32.9 -12.54,44.54 -5.62,7.49 -15.23,15.72 -18.16,15.72 -0.57,0 -1.06,-0.98 -1.06,-2.2 0,-3.58 -3.75,-8.96 -7.98,-11.4l-3.83 -2.28 -16.29 0 -16.28 0 -3.83 2.28c-2.36,1.38 -4.64,3.58 -5.95,5.78 -1.87,3.26 -2.04,4.23 -2.04,14.09 0,9.53 0.16,10.75 1.63,12.05 2.28,2.04 6.19,1.87 8.39,-0.24 1.55,-1.55 1.79,-2.85 2.04,-10.59 0.24,-6.35 0.65,-9.12 1.63,-10.18 1.06,-1.22 2.85,-1.38 14.41,-1.38 12.38,0 13.27,0.08 14.74,1.71 1.47,1.63 1.55,3.83 1.71,51.54 0.16,39.09 0,50.16 -0.81,51.79l-1.06 2.04 -14.09 0.24c-9.69,0.16 -14.49,-0.08 -15.23,-0.73 -0.9,-0.73 -1.14,-6.19 -1.14,-29.56 0,-29.48 -0.41,-33.96 -3.26,-35.5 -2.44,-1.3 -5.54,-0.98 -7.33,0.81 -1.63,1.63 -1.71,2.44 -1.47,34.53l0.25 32.9 2.52 3.18c1.3,1.71 4.07,3.91 6.03,4.89 3.34,1.71 4.64,1.87 18.89,1.87 12.05,0 16.04,-0.24 18.4,-1.3 3.75,-1.55 7.09,-4.64 8.31,-7.74 0.57,-1.3 1.06,-2.36 1.14,-2.36 0,0 4.48,1.14 9.85,2.61 9.61,2.52 10.18,2.52 32.41,2.93l22.64 0.33 2.04 -1.87c2.36,-2.2 2.52,-5.54 0.41,-8.14 -1.55,-1.95 -1.71,-1.95 -23.86,-2.44 -20.36,-0.41 -22.88,-0.65 -29.97,-2.61 -4.23,-1.14 -8.71,-2.44 -9.93,-2.93l-2.28 -0.9 0 -39.01 0 -39.01 3.66 -1.22c7.65,-2.61 19.54,-12.87 26.22,-22.64 9.04,-13.11 12.13,-24.35 13.27,-48.21 0.49,-9.53 1.06,-17.75 1.22,-18.32 0.9,-2.61 9.12,-0.33 12.78,3.58 3.91,4.23 4.07,5.46 3.75,32.9l-0.24 25.65 2.04 3.5c1.14,2.12 3.42,4.4 5.37,5.54l3.34 1.95 31.11 0c26.14,0 31.51,0.16 33.47,1.22 3.01,1.55 4.07,3.5 4.07,7.57 0,2.69 -0.49,3.66 -2.53,5.37 -2.2,1.87 -3.18,2.12 -8.79,2.12 -7.82,0 -10.67,1.63 -10.67,6.19 0,4.32 2.28,6.03 8.14,6.03 7.98,0 11.4,2.61 11.4,8.55 0,2.2 -0.65,3.58 -2.36,5.37 -2.36,2.36 -2.52,2.36 -11.32,2.36 -7.74,0 -9.2,0.24 -11.07,1.71 -2.69,2.12 -2.93,6.43 -0.49,8.88 1.3,1.3 2.69,1.63 6.51,1.63 8.06,0 11.4,2.53 11.4,8.79 0,2.69 -0.49,3.66 -2.52,5.37 -2.36,1.95 -3.01,2.12 -10.83,2.12 -7.25,0 -8.71,0.24 -10.59,1.71 -2.69,2.12 -2.93,6.43 -0.49,8.88 1.3,1.3 2.69,1.63 6.51,1.63 8.06,0 11.4,2.52 11.4,8.79 0,2.69 -0.49,3.67 -2.53,5.37 -2.44,2.12 -2.52,2.12 -17.42,2.12 -14.49,0 -15.06,0.08 -17.18,1.87 -2.93,2.53 -3.09,6.68 -0.33,8.88 1.79,1.47 3.18,1.55 19.06,1.3 14.41,-0.16 17.59,-0.49 19.71,-1.63 3.75,-2.04 7.65,-6.27 9.36,-10.02 1.95,-4.23 2.04,-12.38 0.16,-16.2l-1.38 -2.93 3.09 -2.93c1.71,-1.71 3.83,-4.56 4.64,-6.35 1.95,-4.23 2.04,-12.62 0.25,-16.12l-1.3 -2.44 3.75 -3.83c4.64,-4.72 6.19,-8.47 6.19,-14.82 0,-3.66 -0.49,-6.03 -2.04,-9.04l-2.04 -3.99 1.71 -1.79c3.09,-3.18 4.81,-7.98 4.81,-13.44 0,-6.35 -2.2,-11.32 -6.76,-15.23 -5.86,-5.05 -7.98,-5.29 -41.37,-5.29 -23.04,0 -30.13,-0.24 -30.62,-1.06 -0.33,-0.49 -0.65,-12.87 -0.65,-27.44l0 -26.46 -2.2 -4.07c-2.93,-5.7 -9.12,-11.16 -14.74,-13.35 -5.95,-2.2 -13.03,-2.28 -16.45,-0.16l0 0z"/>
   </g>
  </g>
 </g>
</svg>
