<?xml version="1.0" encoding="UTF-8"?>
<!DOCTYPE svg PUBLIC "-//W3C//DTD SVG 1.1//EN" "http://www.w3.org/Graphics/SVG/1.1/DTD/svg11.dtd">
<!-- Creator: CorelDRAW 2018 (64-Bit) -->
<svg xmlns="http://www.w3.org/2000/svg" xml:space="preserve" width="7.1857mm" height="8.9442mm" version="1.1" style="shape-rendering:geometricPrecision; text-rendering:geometricPrecision; image-rendering:optimizeQuality; fill-rule:evenodd; clip-rule:evenodd"
viewBox="0 0 18.77 23.36"
 xmlns:xlink="http://www.w3.org/1999/xlink"
 enable-background="new 0 0 512 512">
 <defs>
  <style type="text/css">
   <![CDATA[
    .fil0 {fill:white}
   ]]>
  </style>
 </defs>
 <g id="Слой_x0020_1">
  <metadata id="CorelCorpID_0Corel-Layer"/>
  <g id="_2882345328032">
   <g>
    <path class="fil0" d="M8.03 0l-7.3 0c-0.4,0 -0.73,0.33 -0.73,0.73l0 21.9c0,0.4 0.33,0.73 0.73,0.73l7.3 0c0.4,0 0.73,-0.33 0.73,-0.73l0 -21.9c0,-0.4 -0.33,-0.73 -0.73,-0.73zm-0.73 21.9l-5.84 0 0 -2.19 3.65 0 0 -1.46 -3.65 0 0 -2.19 2.19 0 0 -1.46 -2.19 0 0 -2.19 3.65 0 0 -1.46 -3.65 0 0 -2.19 2.19 0 0 -1.46 -2.19 0 0 -2.19 3.65 0 0 -1.46 -3.65 0 0 -2.19 5.84 0 0 20.44zm10.44 -3.43l-2.41 2.4 0 -18.38 2.4 2.4 1.03 -1.03 -3.65 -3.65c-0.28,-0.28 -0.74,-0.28 -1.03,0l-3.65 3.65 1.03 1.03 2.41 -2.4 0 18.38 -2.4 -2.4 -1.03 1.03 3.65 3.65c0.28,0.28 0.74,0.28 1.03,0l3.65 -3.65 -1.03 -1.03z"/>
   </g>
  </g>
 </g>
</svg>
