<?xml version="1.0" encoding="UTF-8"?>
<!DOCTYPE svg PUBLIC "-//W3C//DTD SVG 1.1//EN" "http://www.w3.org/Graphics/SVG/1.1/DTD/svg11.dtd">
<!-- Creator: CorelDRAW 2018 (64-Bit) -->
<svg xmlns="http://www.w3.org/2000/svg" xml:space="preserve" width="21.4946mm" height="21.4946mm" version="1.1" style="shape-rendering:geometricPrecision; text-rendering:geometricPrecision; image-rendering:optimizeQuality; fill-rule:evenodd; clip-rule:evenodd"
viewBox="0 0 726.3 726.3"
 xmlns:xlink="http://www.w3.org/1999/xlink">
 <defs>
  <style type="text/css">
   <![CDATA[
    .fil0 {fill:#FDB44B}
   ]]>
  </style>
 </defs>
 <g id="Слой_x0020_1">
  <metadata id="CorelCorpID_0Corel-Layer"/>
  <g id="_2882607058080">
   <g>
    <path class="fil0" d="M3.66 3.66l-3.66 3.52 0 86.54 0 86.54 3.66 3.51c3.51,3.66 3.81,3.66 31.49,3.66 27.67,0 27.97,0 31.48,-3.66l3.66 -3.51 0 -55.06 0 -54.91 54.91 0 55.06 0 3.51 -3.66c3.66,-3.51 3.66,-3.81 3.66,-31.48 0,-27.68 0,-27.97 -3.66,-31.48l-3.51 -3.66 -86.54 0 -86.54 0 -3.51 3.66 0 -0zm160.34 31.49l0 11.71 -54.91 0 -55.06 0 -3.51 3.66 -3.66 3.51 0 55.06 0 54.91 -11.71 0 -11.72 0 0 -70.29 0 -70.29 70.29 0 70.29 0 0 11.72z"/>
    <path class="fil0" d="M542.53 3.66c-3.66,3.52 -3.66,3.81 -3.66,31.49 0,27.67 0,27.97 3.66,31.48l3.51 3.66 55.06 0 54.91 0 0 54.91 0 55.06 3.66 3.52c3.51,3.66 3.81,3.66 31.48,3.66 27.68,0 27.97,0 31.48,-3.66l3.66 -3.52 0 -86.54 0 -86.54 -3.66 -3.51 -3.51 -3.66 -86.54 0 -86.54 0 -3.51 3.66 0 0zm160.34 90.06l0 70.29 -11.72 0 -11.72 0 0 -54.91 0 -55.06 -3.66 -3.51 -3.51 -3.66 -55.06 0 -54.91 0 0 -11.71 0 -11.72 70.29 0 70.29 0 0 70.29z"/>
    <path class="fil0" d="M351.44 125.2l0 43.2 -115.68 57.84c-71.31,35.73 -116.12,58.87 -117.15,60.62 -0.88,1.9 -1.46,26.36 -1.46,70.87 0,62.67 0.15,68.24 2.64,71.02 1.32,1.61 19.62,12.3 40.56,23.72 20.94,11.42 38.51,21.23 39.1,21.82 0.59,0.44 -10.25,7.17 -24.01,14.79 -13.76,7.61 -25.92,14.5 -26.94,15.37 -1.47,1.17 -0.59,3.51 3.66,10.98 3.07,5.27 6.15,9.37 6.88,9.22 0.73,-0.15 15.67,-8.2 33.09,-17.86 17.43,-9.81 32.51,-17.72 33.38,-17.72 0.88,0 31.63,16.4 68.09,36.61 36.61,20.06 67.95,36.61 69.56,36.61 1.76,0 33.09,-16.4 69.55,-36.61 36.61,-20.06 67.36,-36.61 68.24,-36.61 0.88,0 15.81,7.91 33.24,17.72 17.43,9.67 32.36,17.72 33.09,17.86 0.73,0.15 3.81,-4.1 6.88,-9.52l5.42 -9.95 -12.59 -7.03c-7.03,-3.96 -19.18,-10.69 -26.94,-15.08 -7.91,-4.25 -13.77,-8.35 -13.18,-8.79 0.59,-0.59 18.16,-10.4 39.1,-21.82 20.94,-11.42 39.24,-22.11 40.71,-23.72 2.34,-2.78 2.49,-8.35 2.49,-71.02 0,-44.52 -0.58,-68.97 -1.46,-70.87 -1.02,-1.76 -45.83,-24.89 -117.15,-60.62l-115.68 -57.84 0 -43.2 0 -43.2 -11.72 0 -11.72 0 0 43.2 0 0zm11.72 109.09l11.72 0 0 -19.77 0 -19.77 97.38 48.61c53.59,26.8 97.38,49.06 97.38,49.5 0,0.44 -22.7,12.15 -50.52,26.07l-50.52 25.18 -51.25 -25.62c-28.11,-14.06 -52.57,-25.63 -54.18,-25.63 -1.61,0 -26.07,11.57 -54.18,25.63l-51.25 25.62 -50.52 -25.18c-27.82,-13.91 -50.52,-25.63 -50.52,-26.07 0,-0.44 43.64,-22.55 97.09,-49.2l96.94 -48.61 0.44 19.62 0.44 19.62 11.57 0zm-133.25 123.01c0,0.44 -20.06,10.83 -44.66,23.14l-44.66 22.26 0 -45.39 0 -45.4 44.66 22.26c24.6,12.3 44.66,22.7 44.66,23.14zm355.83 0l0 45.39 -44.66 -22.26c-24.6,-12.3 -44.66,-22.7 -44.66,-23.14 0,-0.59 86.98,-44.81 89.03,-45.25 0.15,-0.15 0.29,20.21 0.29,45.25l-0 0zm-183.77 -20.21c21.38,10.69 38.8,19.77 38.8,20.21 0,0.44 -17.43,9.52 -38.8,20.21l-38.8 19.33 -38.8 -19.33c-21.38,-10.69 -38.8,-19.77 -38.8,-20.21 0,-0.59 75.27,-38.95 77.17,-39.39 0.29,-0.15 17.86,8.64 39.24,19.18zm-97.38 56.81l46.86 23.43 0 56.52c0,33.38 -0.58,56.23 -1.32,55.94 -0.73,-0.29 -23.43,-12.59 -50.52,-27.53 -42.76,-23.58 -48.91,-27.38 -46.71,-29 1.46,-1.02 14.64,-8.49 29.29,-16.54 14.79,-8.2 26.8,-15.52 26.8,-16.26 0,-2.64 -9.22,-18.74 -10.69,-18.74 -0.88,0 -17.57,8.93 -37.19,19.77l-35.58 19.91 -35.14 -19.33c-19.33,-10.54 -35.15,-19.48 -35.15,-19.77 0,-0.44 100.6,-51.4 102.21,-51.69 0.15,-0.15 21.38,10.4 47.15,23.28l0 0zm215.25 2.2c28.26,14.06 51.25,25.92 51.25,26.21 0,0.29 -15.82,9.22 -35,19.91l-35.14 19.18 -35.73 -19.77c-19.62,-10.98 -36.31,-19.92 -37.2,-19.92 -0.73,0 -3.66,4.25 -6.59,9.52l-5.27 9.37 3.22 2.05c1.61,1.03 14.79,8.49 29.14,16.26 14.2,7.91 26.21,14.79 26.5,15.37 0.59,0.88 -93.57,53.74 -98.84,55.5 -0.73,0.29 -1.32,-21.52 -1.32,-55.94l0 -56.52 46.56 -23.28c25.48,-12.89 46.57,-23.43 46.86,-23.43 0.15,-0.15 23.43,11.42 51.54,25.48l0 0z"/>
    <polygon class="fil0" points="351.44,269.44 351.44,281.15 363.15,281.15 374.87,281.15 374.87,269.44 374.87,257.72 363.15,257.72 351.44,257.72 "/>
    <path class="fil0" d="M3.66 542.53l-3.66 3.52 0 86.54 0 86.54 3.66 3.51 3.51 3.66 86.54 0 86.54 0 3.51 -3.66c3.66,-3.51 3.66,-3.81 3.66,-31.48 0,-27.68 0,-27.97 -3.66,-31.49l-3.51 -3.66 -55.06 0 -54.91 0 0 -54.91 0 -55.06 -3.66 -3.51c-3.51,-3.66 -3.81,-3.66 -31.48,-3.66 -27.68,0 -27.97,0 -31.48,3.66l-0 -0zm43.2 74.68l0 55.06 3.66 3.51 3.51 3.66 55.06 0 54.91 0 0 11.72 0 11.72 -70.29 0 -70.29 0 0 -70.29 0 -70.29 11.72 0 11.71 0 0 54.91z"/>
    <path class="fil0" d="M659.68 542.53l-3.66 3.52 0 55.06 0 54.91 -54.91 0 -55.06 0 -3.51 3.66c-3.66,3.51 -3.66,3.81 -3.66,31.48 0,27.68 0,27.97 3.66,31.49l3.51 3.66 86.54 0 86.54 0 3.51 -3.66 3.66 -3.52 0 -86.54 0 -86.54 -3.66 -3.51c-3.51,-3.66 -3.81,-3.66 -31.49,-3.66 -27.67,0 -27.97,0 -31.48,3.66l0 0zm43.2 90.06l0 70.29 -70.29 0 -70.29 0 0 -11.72 0 -11.71 54.91 0 55.06 0 3.51 -3.66 3.66 -3.51 0 -55.06 0 -54.91 11.72 0 11.72 0 0 70.29z"/>
   </g>
  </g>
 </g>
</svg>
