<?xml version="1.0" encoding="UTF-8"?>
<!DOCTYPE svg PUBLIC "-//W3C//DTD SVG 1.1//EN" "http://www.w3.org/Graphics/SVG/1.1/DTD/svg11.dtd">
<!-- Creator: CorelDRAW 2018 (64-Bit) -->
<svg xmlns="http://www.w3.org/2000/svg" xml:space="preserve" width="23.989mm" height="23.9846mm" version="1.1" style="shape-rendering:geometricPrecision; text-rendering:geometricPrecision; image-rendering:optimizeQuality; fill-rule:evenodd; clip-rule:evenodd"
viewBox="0 0 3370.81 3370.2"
 xmlns:xlink="http://www.w3.org/1999/xlink">
 <defs>
  <style type="text/css">
   <![CDATA[
    .fil0 {fill:#898989}
   ]]>
  </style>
 </defs>
 <g id="Слой_x0020_1">
  <metadata id="CorelCorpID_0Corel-Layer"/>
  <g id="_2882336796992">
   <g>
    <path class="fil0" d="M1927.02 13.81l-17.78 13.17 -1.32 159.33 -1.97 159.32 -391.73 3.3c-355.52,3.29 -394.36,4.59 -421.35,15.13 -97.45,38.85 -165.91,117.19 -201.46,229.77l-11.86 38.19 -36.21 0c-146.15,0.65 -300.21,101.38 -369.33,240.96 -30.3,61.22 -24.37,94.81 17.11,105.33 28.96,7.25 46.07,-6.58 71.1,-57.93 42.14,-86.89 113.24,-149.44 199.49,-176.43 39.5,-11.86 61.22,-13.17 269.27,-13.17l226.47 0 0 386.46c0,221.86 -2.63,404.23 -6.58,426.62 -14.49,88.22 -71.76,162.62 -156.69,202.78l-44.12 21.06 -396.32 1.97c-248.87,1.32 -397,-0.65 -397,-4.59 0,-3.3 46.09,-134.32 102.04,-290.35 62.54,-172.48 100.74,-289.01 98.75,-296.92 -5.26,-15.79 -34.89,-38.84 -50.02,-38.84 -30.96,0 -42.14,23.7 -152.74,332.47 -59.92,167.23 -111.92,320.63 -115.88,342.35 -4.61,23.69 -7.24,144.83 -7.24,320.61l0 281.79 -18.44 3.95c-51.36,12.51 -89.54,46.74 -105.99,94.15 -4.61,13.83 -7.25,77.69 -7.25,171.84l0 148.79 18.44 36.2c13.17,26.35 25.67,40.16 50.04,55.31l32.26 19.76 281.77 1.97 281.11 1.98 4.61 27.65c7.91,46.74 41.48,129.7 69.79,173.14 34.23,52.67 109.28,123.78 163.92,156.03 185,107.97 422.67,75.06 575.41,-78.34 68.47,-69.13 114.56,-154.06 131.68,-240.97l7.25 -38.18 849.93 0c583.97,0 856.54,-1.98 870.36,-7.25 34.89,-11.85 44.11,-69.12 14.47,-84.93 -7.9,-3.95 -258.73,-6.58 -677.45,-6.58l-664.95 0 -1.97 -129.03c-1.98,-126.41 -1.98,-129.05 -17.78,-141.55 -18.44,-14.49 -45.43,-16.45 -63.86,-3.29 -11.2,8.56 -12.51,20.4 -15.81,140.23l-3.29 130.36 -142.86 1.97 -143.52 1.32 -3.3 -17.78c-23.03,-107.97 -40.81,-153.4 -85.59,-215.94 -90.84,-127.73 -232.4,-200.8 -388.43,-201.46 -81.64,0 -141.55,13.17 -210.67,46.74 -129.7,62.54 -227.14,185 -257.42,321.29 -5.93,28.31 -11.85,54.65 -13.17,59.26 -1.98,5.92 -11.85,7.9 -32.92,6.58l-30.28 -1.97 1.32 -153.4c0.66,-179.07 -2.64,-197.51 -42.8,-235.7 -38.18,-36.86 -64.51,-42.13 -206.73,-42.13l-119.16 0 0 -42.8 0 -42.79 54.65 0c69.12,0 123.77,-13.83 166.57,-42.8 42.13,-28.96 53.99,-45.43 98.09,-135.63 38.84,-79 42.79,-101.38 24.35,-136.93 -23.69,-47.41 -31.6,-49.38 -194.21,-53.33l-146.16 -3.3 -1.97 -44.11 -1.98 -44.11 416.74 -1.97 416.75 -1.98 44.11 -17.11c115.21,-44.77 198.81,-134.3 233.72,-250.19 9.88,-30.94 11.18,-90.84 13.17,-452.29l2.63 -416.08 276.52 0 275.84 0 0 812.42 0 813.08 14.49 9.88c23.04,16.45 54.65,13.17 70.44,-6.59l13.83 -17.78 0 -1121.18 0 -1121.84 664.95 0 665.61 0 15.81 -16.47c9.22,-8.56 16.45,-23.69 16.45,-32.91 0,-9.22 -7.24,-24.37 -16.45,-32.92l-15.81 -16.45 -697.21 0c-693.91,0 -697.21,0 -714.32,13.83l0 -0.01zm-19.08 524.06l-1.98 90.84 -458.88 1.98c-293.62,0.66 -459.54,-0.66 -459.54,-5.27 0,-3.29 5.93,-21.72 13.18,-41.48 22.38,-58.59 69.78,-105.33 131,-127.07 18.44,-6.58 109.95,-8.56 400.95,-9.2l377.24 0 -1.97 90.2 0 0zm-1427.34 1529.37c0,3.95 -11.85,30.28 -25.67,58.59 -42.14,83.62 -77.69,106 -169.85,106l-48.07 0 0 -85.59 0 -85.59 121.8 0c78.35,0 121.8,2.63 121.8,6.58zm790.03 468.76c109.29,40.16 191.59,125.75 231.75,242.28 21.72,61.88 21.06,162.62 -0.66,229.11 -48.06,146.16 -178.41,249.53 -331.15,262.03 -174.46,15.13 -340.38,-98.09 -394.37,-267.3 -21.06,-64.51 -19.74,-157.35 3.3,-227.79 45.43,-141.55 175.12,-246.22 319.95,-258.74 59.26,-5.26 120.49,1.98 171.18,20.42zm-783.44 -7.9c12.51,12.51 13.17,21.72 13.17,153.39 0,110.61 -1.98,142.88 -9.22,153.4 -8.56,11.86 -19.76,12.51 -175.78,14.49 -92.16,1.32 -173.8,0.66 -181.71,-1.98 -33.57,-7.9 -34.89,-13.81 -34.89,-165.25 0,-132.32 0.66,-141.54 13.17,-154.05 12.52,-12.52 21.74,-13.18 187.64,-13.18 165.91,0 175.12,0.66 187.63,13.18l0 0z"/>
    <path class="fil0" d="M1067.86 2630.81c-50.02,13.17 -87.55,36.87 -129.03,81.64 -50.7,55.29 -65.83,96.77 -66.49,181.04 0,60.58 1.97,69.13 21.06,110.61 65.85,139.57 229.77,197.51 368.02,129.7 49.38,-24.37 102.06,-78.35 126.41,-129.7 15.81,-34.24 17.78,-45.43 17.78,-110.61 0,-67.81 -1.31,-75.05 -21.06,-116.53 -57.27,-121.14 -187.63,-181.05 -316.68,-146.15l0 0zm148.13 107.97c63.86,31.6 94.15,81.63 94.15,152.74 0,98.75 -73.07,171.18 -172.48,171.18 -71.76,0 -136.95,-45.43 -159.99,-112.58 -50.68,-148.13 99.41,-281.13 238.33,-211.33l0 0z"/>
   </g>
  </g>
 </g>
</svg>
