<?xml version="1.0" encoding="UTF-8"?>
<!DOCTYPE svg PUBLIC "-//W3C//DTD SVG 1.1//EN" "http://www.w3.org/Graphics/SVG/1.1/DTD/svg11.dtd">
<!-- Creator: CorelDRAW 2018 (64-Bit) -->
<svg xmlns="http://www.w3.org/2000/svg" xml:space="preserve" width="51.8161mm" height="17.3729mm" version="1.1" style="shape-rendering:geometricPrecision; text-rendering:geometricPrecision; image-rendering:optimizeQuality; fill-rule:evenodd; clip-rule:evenodd"
viewBox="0 0 984.5 330.08"
 xmlns:xlink="http://www.w3.org/1999/xlink">
 <defs>
  <style type="text/css">
   <![CDATA[
    .fil0 {fill:#FEFEFE}
   ]]>
  </style>
 </defs>
 <g id="Слой_x0020_1">
  <metadata id="CorelCorpID_0Corel-Layer"/>
  <path class="fil0" d="M-0 0c23.53,11.93 47.67,24.11 72.45,36.6 25.45,12.82 51.62,26.02 78.48,39.58 0,42.81 0,85.39 0,127.81 0,42.22 0,84.27 0,126.09 -26.53,-12.13 -52.34,-24.06 -77.46,-35.59 -24.45,-11.23 -48.3,-22.22 -71.49,-32.92 -0.32,-43.08 -0.66,-86.43 -0.98,-129.91 -0.33,-43.65 -0.66,-87.56 -1,-131.67zm216.26 276.54l5.53 0 0 -10.11 6.25 0c6.92,0 12.58,-3.69 12.58,-10.74 0,-6.43 -4.63,-10.61 -11.95,-10.61l-12.4 0 0 31.46zm5.53 -15.1l0 -11.33 6.43 0c4.13,0 6.79,1.93 6.79,5.62 0,3.37 -2.61,5.71 -6.79,5.71l-6.43 0zm24.49 15.1l23.55 0 0 -4.94 -18.02 0 0 -8.45 15.78 0 0 -4.94 -15.78 0 0 -8.18 17.8 0 0 -4.94 -23.32 0 0 31.46zm30.11 0l41.21 0 0 -31.46 -5.48 0 0 26.52 -12.36 0 0 -26.52 -5.53 0 0 26.52 -12.36 0 0 -26.52 -5.48 0 0 31.46zm49.3 0l23.55 0 0 -4.94 -18.02 0 0 -8.45 15.78 0 0 -4.94 -15.78 0 0 -8.18 17.8 0 0 -4.94 -23.32 0 0 31.46zm30.11 0l5.53 0 0 -13.26 15.01 0 0 13.26 5.53 0 0 -31.46 -5.53 0 0 13.08 -15.01 0 0 -13.08 -5.53 0 0 31.46zm34.16 0l5.21 0 15.86 -22.92 0 22.92 5.44 0 0 -31.46 -5.17 0 -15.91 22.97 0 -22.97 -5.44 0 0 31.46zm32.22 0l6.52 0 7.82 -10.88 6.97 0 0 10.88 5.48 0 0 -31.46 -13.98 0c-7.28,0 -11.73,3.91 -11.73,10.02 0,5.21 3.1,8.4 7.5,9.62l-8.58 11.82zm13.17 -15.68c-3.95,0 -6.52,-2.11 -6.52,-5.39 0,-3.41 2.47,-5.39 6.61,-5.39l8.05 0 0 10.79 -8.14 0zm45.08 22.43l4.85 0 0.54 -6.74 22.16 0 0 6.74 4.58 0 0.76 -11.68 -3.91 0 0 -26.52 -21.93 0 0 4.45c0,10.52 -1.39,16.9 -4,22.07l-3.06 0 0 11.68zm8.94 -11.68c2.16,-4.36 3.41,-10.65 3.41,-17.93l0 -3.59 11.1 0 0 21.53 -14.52 0zm28.9 5.3c6.2,0 9.84,-4 9.84,-24l0 -2.83 10.88 0 0 26.47 5.53 0 0 -31.46 -21.57 0 0 6.2c0,18.83 -2.97,20.85 -6.16,20.85 -0.67,0 -1.39,-0.13 -1.8,-0.27l-0.54 4.54c0.85,0.22 2.61,0.49 3.82,0.49zm31.95 -0.36l6.52 0 7.82 -10.88 6.97 0 0 10.88 5.48 0 0 -31.46 -13.98 0c-7.28,0 -11.73,3.91 -11.73,10.02 0,5.21 3.1,8.4 7.5,9.62l-8.58 11.82zm13.17 -15.68c-3.95,0 -6.52,-2.11 -6.52,-5.39 0,-3.41 2.47,-5.39 6.61,-5.39l8.05 0 0 10.79 -8.14 0zm31.59 22.43l4.85 0 0.54 -6.74 22.16 0 0 6.74 4.58 0 0.76 -11.68 -3.91 0 0 -26.52 -21.93 0 0 4.45c0,10.52 -1.39,16.9 -4,22.07l-3.06 0 0 11.68zm8.94 -11.68c2.16,-4.36 3.41,-10.65 3.41,-17.93l0 -3.59 11.1 0 0 21.53 -14.52 0zm43.91 5.48c9.66,0 16.49,-7.42 16.49,-16.27 0,-8.94 -6.74,-16.27 -16.4,-16.27 -9.66,0 -16.49,7.42 -16.49,16.27 0,8.94 6.74,16.27 16.4,16.27zm0.09 -5.08c-6.25,0 -10.7,-5.08 -10.7,-11.19 0,-6.2 4.36,-11.19 10.61,-11.19 6.25,0 10.7,5.08 10.7,11.19 0,6.2 -4.36,11.19 -10.61,11.19zm23.1 4.54l5.44 0 0 -22.47 9.84 14.74 0.18 0 9.93 -14.83 0 22.56 5.53 0 0 -31.46 -5.89 0 -9.57 14.88 -9.57 -14.88 -5.89 0 0 31.46zm36.31 0l5.66 0 3.24 -7.6 14.88 0 3.19 7.6 5.84 0 -13.84 -31.68 -5.12 0 -13.84 31.68zm10.92 -12.49l5.39 -12.58 5.44 12.58 -10.83 0zm40.76 12.49l5.21 0 15.86 -22.92 0 22.92 5.44 0 0 -31.46 -5.17 0 -15.91 22.97 0 -22.97 -5.44 0 0 31.46zm63.14 0.54c9.66,0 16.49,-7.42 16.49,-16.27 0,-8.94 -6.74,-16.27 -16.4,-16.27 -9.66,0 -16.49,7.42 -16.49,16.27 0,8.94 6.74,16.27 16.4,16.27zm0.09 -5.08c-6.25,0 -10.7,-5.08 -10.7,-11.19 0,-6.2 4.36,-11.19 10.61,-11.19 6.25,0 10.7,5.08 10.7,11.19 0,6.2 -4.36,11.19 -10.61,11.19zm36.9 5.75l5.48 0 0 -3.42c9.93,0 15.73,-5.75 15.73,-13.75 0,-8.04 -5.89,-13.66 -15.73,-13.66l0 -2.97 -5.48 0 0 2.97c-9.84,0 -15.73,5.62 -15.73,13.62 0,8.04 5.84,13.8 15.73,13.8l0 3.42zm0 -8.31c-6.2,0 -10.07,-3.24 -10.07,-8.81 0,-5.48 3.86,-8.76 10.07,-8.76l0 17.57zm5.48 0l0 -17.57c6.25,0 10.07,3.28 10.07,8.76 0,5.57 -3.82,8.81 -10.07,8.81zm21.93 7.1l5.21 0 15.86 -22.92 0 22.92 5.44 0 0 -31.46 -5.17 0 -15.91 22.97 0 -22.97 -5.44 0 0 31.46zm49.26 0.54c5.89,0 9.48,-2.16 12.76,-5.57l-3.55 -3.6c-2.7,2.52 -5.17,4.09 -9.03,4.09 -6.02,0 -10.38,-5.03 -10.38,-11.19 0,-6.25 4.36,-11.19 10.38,-11.19 3.59,0 6.29,1.57 8.81,3.91l3.55 -4.09c-3.01,-2.88 -6.52,-4.9 -12.31,-4.9 -9.53,0 -16.22,7.33 -16.22,16.27 0,9.12 6.83,16.27 16,16.27zm15.87 -0.54l5.66 0 3.24 -7.6 14.88 0 3.19 7.6 5.84 0 -13.84 -31.68 -5.12 0 -13.84 31.68zm10.92 -12.49l5.39 -12.58 5.44 12.58 -10.83 0zm-685.21 -125.8c0,-19.25 -12.62,-30.85 -32.64,-30.85l-29.58 0 0 89.24 18.36 0 0 -27.16 10.45 0c18.74,0 33.4,-10.71 33.4,-31.23zm-18.61 0.38c0,8.67 -5.48,14.28 -14.41,14.28l-10.84 0 0 -28.81 10.71 0c8.92,0 14.53,4.72 14.53,14.53zm98.17 58.01l-18.87 -33.15c9.69,-4.34 16.57,-12.88 16.57,-26.52 0,-19.38 -12.37,-29.58 -31.87,-29.58l-33.27 0 0 89.24 18.36 0 0 -29.32 11.73 0 16.32 29.32 21.04 0zm-20.91 -58.77c0,8.42 -5.35,13.13 -14.02,13.13l-14.15 0 0 -26.9 13.77 0c8.67,0 14.41,3.95 14.41,13.26l0 0.51zm91.03 58.77l0 -16.57 -39.65 0 0 -20.02 34.42 0 0 -16.57 -34.42 0 0 -19.51 39.14 0 0 -16.57 -57.37 0 0 89.24 57.88 0zm84.14 -9.82l0 -41.31 -33.66 0 0 16.06 16.19 0 0 15.81c-3.82,2.42 -8.29,3.7 -13.39,3.7 -13.01,0 -22.95,-9.94 -22.95,-28.43l0 -1.53c0,-16.32 9.56,-27.79 22.31,-27.79 8.42,0 13.77,2.68 19.76,7.39l8.67 -15.3c-7.52,-5.99 -15.56,-9.31 -28.18,-9.31 -24.1,0 -41.69,19 -41.69,45.39l0 1.15c0,27.79 17.34,45.26 41.43,45.26 13.13,0 23.46,-4.84 31.49,-11.09zm93.07 -34.17l0 -1.53c0,-26.52 -16.7,-45.13 -40.16,-45.13 -23.58,0 -40.41,18.74 -40.41,45.39l0 1.53c0,26.52 16.7,45.13 40.29,45.13 23.46,0 40.29,-18.74 40.29,-45.39zm-19 0.25c0,17.59 -8.67,28.18 -21.16,28.18 -12.49,0 -21.29,-10.84 -21.29,-28.43l0 -1.53c0,-17.59 8.67,-28.17 21.16,-28.17 12.37,0 21.29,10.84 21.29,28.43l0 1.53zm101.1 43.73l-18.87 -33.15c9.69,-4.34 16.57,-12.88 16.57,-26.52 0,-19.38 -12.37,-29.58 -31.87,-29.58l-33.27 0 0 89.24 18.36 0 0 -29.32 11.73 0 16.32 29.32 21.04 0zm-20.91 -58.77c0,8.42 -5.35,13.13 -14.02,13.13l-14.15 0 0 -26.9 13.77 0c8.67,0 14.41,3.95 14.41,13.26l0 0.51zm110.41 14.79l0 -1.53c0,-26.52 -16.7,-45.13 -40.16,-45.13 -23.58,0 -40.41,18.74 -40.41,45.39l0 1.53c0,26.52 16.7,45.13 40.29,45.13 23.46,0 40.29,-18.74 40.29,-45.39zm-19 0.25c0,17.59 -8.67,28.18 -21.16,28.18 -12.49,0 -21.29,-10.84 -21.29,-28.43l0 -1.53c0,-17.59 8.67,-28.17 21.16,-28.17 12.37,0 21.29,10.84 21.29,28.43l0 1.53zm104.93 -0.38l0 -1.15c0,-26.14 -17.08,-43.98 -42.58,-43.98l-28.69 0 0 89.24 28.69 0c25.5,0 42.58,-17.98 42.58,-44.11zm-19.13 0.13c0,17.85 -9.56,27.28 -22.95,27.28l-10.84 0 0 -55.84 10.84 0c13.39,0 22.95,9.69 22.95,27.41l0 1.15zm104.29 43.98l-31.24 -51.51 29.96 -37.74 -21.93 0 -29.07 38.5 0 -38.5 -18.36 0 0 89.24 18.36 0 0 -26.26 8.29 -10.45 22.18 36.72 21.8 0zm28.94 0l0 -89.24 -18.36 0 0 89.24 18.36 0zm-952.55 -157.55c7.52,3.78 15.14,7.63 22.78,11.45 7.71,3.85 15.52,7.8 23.36,11.71 0.14,34.87 0.28,69.64 0.43,104.22 0.14,34.45 0.29,68.85 0.42,103.05 -7.76,-3.51 -15.48,-7.01 -23.11,-10.47 -7.56,-3.43 -15.08,-6.81 -22.53,-10.2 -0.23,-34.64 -0.46,-69.41 -0.68,-104.29 -0.22,-35.01 -0.44,-70.18 -0.67,-105.46zm62.88 214.36c7.45,3.46 14.92,6.96 22.43,10.45 7.57,3.52 15.19,7.1 22.92,10.63 0.22,7.58 -0.21,15.06 0.02,22.64 -7.68,-3.49 -15.29,-7.03 -22.88,-10.55 -7.5,-3.48 -14.98,-6.92 -22.4,-10.31 -0.16,-7.64 0.1,-15.22 -0.09,-22.86zm-0.15 -46.71c7.42,3.52 14.92,7.09 22.45,10.65 7.6,3.59 15.27,7.21 23,10.85 0.2,7.54 -0.21,14.94 0.02,22.41 -7.72,-3.59 -15.38,-7.21 -22.96,-10.76 -7.5,-3.52 -15.01,-7.05 -22.44,-10.54 -0.16,-7.57 0.12,-15.03 -0.07,-22.61zm-0.14 -46.11c7.42,3.59 14.93,7.25 22.48,10.86 7.62,3.65 15.31,7.36 23.05,11.07 0.22,7.37 -0.21,14.71 0.02,22.09 -7.73,-3.67 -15.41,-7.34 -23.02,-10.98 -7.54,-3.61 -15.03,-7.19 -22.46,-10.71 -0.16,-7.47 0.1,-14.88 -0.07,-22.32zm-0.3 -90.4c7.49,3.77 15.06,7.48 22.65,11.18 7.66,3.74 15.37,7.53 23.1,11.39 0.2,7.2 -0.16,59.02 0.06,66.23 -7.71,-4 -15.42,-7.92 -23.05,-11.81 -7.57,-3.86 -15.11,-7.72 -22.56,-11.62 -0.14,-7.22 -0.05,-58.16 -0.21,-65.37z"/>
 </g>
</svg>
