<?xml version="1.0" encoding="UTF-8"?>
<!DOCTYPE svg PUBLIC "-//W3C//DTD SVG 1.1//EN" "http://www.w3.org/Graphics/SVG/1.1/DTD/svg11.dtd">
<!-- Creator: CorelDRAW 2018 (64-Bit) -->
<svg xmlns="http://www.w3.org/2000/svg" xml:space="preserve" width="26.0088mm" height="26.0088mm" version="1.1" style="shape-rendering:geometricPrecision; text-rendering:geometricPrecision; image-rendering:optimizeQuality; fill-rule:evenodd; clip-rule:evenodd"
viewBox="0 0 56.44 56.44"
 xmlns:xlink="http://www.w3.org/1999/xlink">
 <defs>
  <style type="text/css">
   <![CDATA[
    .fil2 {fill:#FDB44B}
    .fil4 {fill:#FDC36F}
    .fil3 {fill:white}
    .fil0 {fill:white;fill-opacity:0.200000}
    .fil1 {fill:white;fill-opacity:0.501961}
   ]]>
  </style>
 </defs>
 <g id="Слой_x0020_1">
  <metadata id="CorelCorpID_0Corel-Layer"/>
  <path class="fil0" d="M28.22 0c15.59,0 28.22,12.63 28.22,28.22 0,15.59 -12.63,28.22 -28.22,28.22 -15.59,0 -28.22,-12.63 -28.22,-28.22 0,-15.59 12.63,-28.22 28.22,-28.22z"/>
  <path class="fil1" d="M28.22 6.55c11.97,0 21.67,9.7 21.67,21.67 0,11.97 -9.7,21.67 -21.67,21.67 -11.97,0 -21.67,-9.7 -21.67,-21.67 0,-11.97 9.7,-21.67 21.67,-21.67z"/>
  <circle class="fil2" cx="28.22" cy="28.22" r="14.99"/>
  <path class="fil3" d="M28.22 37.39c-0.13,0 -0.27,-0.05 -0.37,-0.15l-3.22 -3.22c-0.2,-0.2 -0.2,-0.54 0,-0.74 0.2,-0.2 0.54,-0.2 0.74,0l2.85 2.85 2.85 -2.85c0.2,-0.2 0.54,-0.2 0.74,0 0.2,0.2 0.2,0.54 0,0.74l-3.22 3.22c-0.1,0.1 -0.24,0.15 -0.37,0.15z"/>
  <path class="fil4" d="M28.22 28.22l-14.99 0c0,-8.28 6.71,-14.99 14.99,-14.99 8.28,0 14.99,6.71 14.99,14.99l-14.99 0z"/>
  <path class="fil3" d="M28.22 19.12c-0.13,0 -0.27,0.05 -0.37,0.15l-3.22 3.22c-0.2,0.2 -0.2,0.54 0,0.74 0.2,0.2 0.54,0.2 0.74,0l2.85 -2.85 2.85 2.85c0.2,0.2 0.54,0.2 0.74,0 0.2,-0.2 0.2,-0.54 0,-0.74l-3.22 -3.22c-0.1,-0.1 -0.24,-0.15 -0.37,-0.15z"/>
 </g>
</svg>
