<?xml version="1.0" encoding="UTF-8"?>
<!DOCTYPE svg PUBLIC "-//W3C//DTD SVG 1.1//EN" "http://www.w3.org/Graphics/SVG/1.1/DTD/svg11.dtd">
<!-- Creator: CorelDRAW 2018 (64-Bit) -->
<svg xmlns="http://www.w3.org/2000/svg" xml:space="preserve" width="9.7366mm" height="9.7366mm" version="1.1" style="shape-rendering:geometricPrecision; text-rendering:geometricPrecision; image-rendering:optimizeQuality; fill-rule:evenodd; clip-rule:evenodd"
viewBox="0 0 14.69 14.69"
 xmlns:xlink="http://www.w3.org/1999/xlink">
 <defs>
  <style type="text/css">
   <![CDATA[
    .fil1 {fill:#FDB44B}
    .fil0 {fill:white}
   ]]>
  </style>
 </defs>
 <g id="Слой_x0020_1">
  <metadata id="CorelCorpID_0Corel-Layer"/>
  <circle class="fil0" cx="7.35" cy="7.35" r="7.35"/>
  <g id="_2882607038272">
   <path class="fil1" d="M4.34 5.19c0,0.42 0.26,0.78 0.73,0.78 0.21,0 0.33,0.01 0.52,-0.1 0.11,-0.06 0.17,-0.13 0.24,-0.23 0.15,-0.21 0.21,-0.41 0.31,-0.6 0.1,-0.19 0.23,-0.38 0.41,-0.5 0.44,-0.28 1.2,-0.26 1.56,0.04 0.41,0.34 0.47,0.92 0.2,1.37 -0.07,0.12 -0.19,0.25 -0.29,0.35 -0.04,0.04 -0.04,0.03 -0.08,0.06l-0.26 0.22c-0.12,0.1 -0.23,0.18 -0.36,0.28 -0.47,0.37 -1.01,0.84 -1.01,1.54 0,0.23 0.11,0.47 0.23,0.59 0.36,0.37 0.98,0.29 1.21,-0.01 0.12,-0.16 0.19,-0.41 0.27,-0.6 0.23,-0.51 1.09,-0.91 1.51,-1.32l0.21 -0.21c0.19,-0.19 0.33,-0.42 0.44,-0.66 0.21,-0.43 0.2,-0.96 0.09,-1.43 -0.13,-0.52 -0.42,-0.89 -0.83,-1.2 -0.06,-0.05 -0.12,-0.08 -0.19,-0.13 -0.49,-0.31 -1.27,-0.49 -1.87,-0.49 -0.59,0 -0.78,0.02 -1.33,0.22 -0.81,0.29 -1.71,1.09 -1.71,2.02l0 -0z"/>
   <path class="fil1" d="M6.15 10.95c0,0.28 0.03,0.51 0.23,0.73 0.21,0.23 0.45,0.35 0.7,0.37l0.17 0c0.37,-0.03 0.71,-0.27 0.84,-0.62 0.41,-1.03 -0.84,-1.85 -1.62,-1.14 -0.14,0.13 -0.32,0.4 -0.32,0.65l0 0z"/>
  </g>
 </g>
</svg>
