<?xml version="1.0" encoding="UTF-8"?>
<!DOCTYPE svg PUBLIC "-//W3C//DTD SVG 1.1//EN" "http://www.w3.org/Graphics/SVG/1.1/DTD/svg11.dtd">
<!-- Creator: CorelDRAW X6 -->
<svg xmlns="http://www.w3.org/2000/svg" xml:space="preserve" width="4.7553mm" height="4.7553mm" version="1.1" style="shape-rendering:geometricPrecision; text-rendering:geometricPrecision; image-rendering:optimizeQuality; fill-rule:evenodd; clip-rule:evenodd"
viewBox="0 0 17366 17366"
 xmlns:xlink="http://www.w3.org/1999/xlink"
 enable-background="new 0 0 512 512">
 <defs>
  <style type="text/css">
   <![CDATA[
    .fil0 {fill:white}
   ]]>
  </style>
 </defs>
 <g id="Слой_x0020_1">
  <metadata id="CorelCorpID_0Corel-Layer"/>
  <g id="_276608320">
   <g>
    <path class="fil0" d="M17153 16132l-4175 -4175c1035,-1261 1659,-2878 1659,-4639 0,-4040 -3278,-7318 -7318,-7318 -4044,0 -7318,3278 -7318,7318 0,4040 3275,7318 7318,7318 1761,0 3374,-620 4636,-1655l4175 4171c283,284 741,284 1024,0 284,-280 284,-741 0,-1021zm-9835 -2952c-3236,0 -5865,-2629 -5865,-5862 0,-3232 2630,-5865 5865,-5865 3232,0 5865,2633 5865,5865 0,3232 -2633,5862 -5865,5862z"/>
   </g>
  </g>
 </g>
</svg>
