<svg xmlns="http://www.w3.org/2000/svg" xmlns:xlink="http://www.w3.org/1999/xlink">>
	
<!-- ===== GLOBAL ===== -->

	<!-- arrow-left -->
		<symbol id="arrow-left" viewBox="248.906 217.634 2.995 5.25">
 			<path d="M -5.253 -24.202 C -5.253 -24.112 -5.213 -24.012 -5.143 -23.942 L -2.883 -21.682 C -2.743 -21.542 -2.503 -21.542 -2.363 -21.682 C -2.223 -21.822 -2.223 -22.062 -2.363 -22.202 L -4.363 -24.202 L -2.363 -26.202 C -2.223 -26.342 -2.223 -26.582 -2.363 -26.722 C -2.503 -26.862 -2.743 -26.862 -2.883 -26.722 L -5.143 -24.462 C -5.213 -24.392 -5.253 -24.292 -5.253 -24.202 Z" transform="matrix(1, 0, 0, 1, 254.159302, 244.460983)"/>	
		</symbol>

		<!-- arrow-right -->
		<symbol id="arrow-right" viewBox="248.906 217.634 2.995 5.25">
  			<path d="M -5.253 -24.202 C -5.253 -24.112 -5.213 -24.012 -5.143 -23.942 L -2.883 -21.682 C -2.743 -21.542 -2.503 -21.542 -2.363 -21.682 C -2.223 -21.822 -2.223 -22.062 -2.363 -22.202 L -4.363 -24.202 L -2.363 -26.202 C -2.223 -26.342 -2.223 -26.582 -2.363 -26.722 C -2.503 -26.862 -2.743 -26.862 -2.883 -26.722 L -5.143 -24.462 C -5.213 -24.392 -5.253 -24.292 -5.253 -24.202 Z" transform="matrix(-1, 0, 0, -1, 246.648302, 196.056984)"/>
		</symbol>

		<!-- arrow-down -->
		<symbol id="arrow-down" viewBox="252.348 218.755 5.25 2.995">
			<path d="M 253.475 220.252 C 253.475 220.342 253.515 220.442 253.585 220.512 L 255.845 222.772 C 255.985 222.912 256.225 222.912 256.365 222.772 C 256.505 222.632 256.505 222.392 256.365 222.252 L 254.365 220.252 L 256.365 218.252 C 256.505 218.112 256.505 217.872 256.365 217.732 C 256.225 217.592 255.985 217.592 255.845 217.732 L 253.585 219.992 C 253.515 220.062 253.475 220.162 253.475 220.252 Z" transform="matrix(0, -1, 1, 0, 34.720505, 475.224518)"/>
		</symbol>

		<!-- arrow-up -->
		<symbol id="arrow-up" viewBox="252.348 218.755 5.25 2.995">
			<path d="M 253.475 220.252 C 253.475 220.342 253.515 220.442 253.585 220.512 L 255.845 222.772 C 255.985 222.912 256.225 222.912 256.365 222.772 C 256.505 222.632 256.505 222.392 256.365 222.252 L 254.365 220.252 L 256.365 218.252 C 256.505 218.112 256.505 217.872 256.365 217.732 C 256.225 217.592 255.985 217.592 255.845 217.732 L 253.585 219.992 C 253.515 220.062 253.475 220.162 253.475 220.252 Z" transform="matrix(0, 1, -1, 0, 475.224518, -34.720505)"/>
		</symbol>


<!-- ===== 3. PRODUCT SECTION ===== -->

		<!-- calc-->
		<symbol id="calc" viewBox="-517.279 -173.026 337.433 397.928">
  			<path d="M 0.278 0.124 C 0.178 0.144 0.088 0.244 0.078 0.354 C 0.068 0.414 0.068 2.834 0.078 2.894 C 0.088 3.004 0.178 3.094 0.278 3.124 C 0.338 3.134 2.368 3.134 2.418 3.124 C 2.528 3.094 2.608 3.004 2.618 2.894 C 2.628 2.834 2.628 0.414 2.618 0.354 C 2.608 0.274 2.558 0.194 2.488 0.154 C 2.428 0.114 2.488 0.114 1.348 0.124 C 0.498 0.124 0.313 0.113 0.283 0.123 L 0.278 0.124 Z M 2.398 0.304 C 2.408 0.314 2.428 0.324 2.428 0.334 L 2.438 0.354 L 2.438 1.624 L 2.438 2.894 L 2.428 2.914 C 2.418 2.924 2.408 2.934 2.398 2.944 C 2.378 2.954 2.318 2.954 1.348 2.954 C 0.378 2.954 0.318 2.954 0.298 2.944 C 0.288 2.934 0.268 2.924 0.268 2.914 L 0.258 2.894 L 0.258 1.624 L 0.258 0.354 L 0.268 0.334 C 0.278 0.324 0.288 0.314 0.298 0.304 C 0.318 0.294 0.378 0.294 1.348 0.294 C 2.318 0.294 2.378 0.294 2.398 0.304 Z" transform="matrix(132.067764, 0, 0, 132.067764, -526.589966, -188.668701)"></path>
			<path d="M 0.538 0.564 C 0.528 0.574 0.508 0.584 0.508 0.594 C 0.498 0.614 0.498 0.614 0.498 0.864 C 0.498 1.114 0.498 1.124 0.508 1.134 C 0.518 1.144 0.528 1.154 0.538 1.164 L 0.558 1.174 L 1.348 1.174 L 2.138 1.174 L 2.158 1.164 C 2.168 1.154 2.188 1.144 2.188 1.134 C 2.198 1.114 2.198 1.114 2.198 0.864 C 2.198 0.614 2.198 0.604 2.188 0.594 C 2.178 0.584 2.168 0.574 2.158 0.564 L 2.138 0.554 L 1.348 0.554 L 0.558 0.554 L 0.538 0.564 Z M 2.028 0.864 L 2.028 1.004 L 1.348 1.004 L 0.668 1.004 L 0.668 0.864 L 0.668 0.724 L 1.348 0.724 L 2.028 0.724 L 2.028 0.864 Z" transform="matrix(132.067764, 0, 0, 132.067764, -526.589966, -188.668701)"></path>
			<path d="M 0.519 1.553 C 0.514 1.564 0.507 1.571 0.507 1.584 C 0.501 1.605 0.498 1.604 0.498 1.814 C 0.498 2.024 0.498 2.034 0.508 2.054 C 0.518 2.064 0.528 2.084 0.538 2.084 C 0.558 2.094 0.568 2.094 0.738 2.094 C 0.908 2.094 0.918 2.094 0.938 2.084 C 0.948 2.074 0.958 2.064 0.968 2.054 C 0.978 2.034 0.978 2.024 0.978 1.814 C 0.978 1.514 0.998 1.534 0.728 1.534 C 0.548 1.534 0.548 1.534 0.528 1.544 L 0.519 1.553 Z M 0.808 1.824 L 0.808 1.924 L 0.738 1.924 L 0.668 1.924 L 0.668 1.824 L 0.668 1.724 L 0.738 1.724 L 0.808 1.724 L 0.808 1.824 Z" transform="matrix(132.067764, 0, 0, 132.067764, -526.589966, -188.668701)"></path>
			<path d="M 1.124 1.562 C 1.119 1.573 1.112 1.58 1.112 1.593 C 1.106 1.614 1.103 1.613 1.103 1.823 C 1.103 2.033 1.103 2.043 1.113 2.063 C 1.123 2.073 1.133 2.093 1.143 2.093 C 1.163 2.103 1.173 2.103 1.343 2.103 C 1.513 2.103 1.523 2.103 1.543 2.093 C 1.553 2.083 1.563 2.073 1.573 2.063 C 1.583 2.043 1.583 2.033 1.583 1.823 C 1.583 1.523 1.603 1.543 1.333 1.543 C 1.153 1.543 1.153 1.543 1.133 1.553 L 1.124 1.562 Z M 1.413 1.833 L 1.413 1.933 L 1.343 1.933 L 1.273 1.933 L 1.273 1.833 L 1.273 1.733 L 1.343 1.733 L 1.413 1.733 L 1.413 1.833 Z" transform="matrix(132.067764, 0, 0, 132.067764, -526.589966, -188.668701)"></path>
			<path d="M 1.726 1.562 C 1.721 1.573 1.714 1.58 1.714 1.593 C 1.708 1.614 1.705 1.613 1.705 1.823 C 1.705 2.033 1.705 2.043 1.715 2.063 C 1.725 2.073 1.735 2.093 1.745 2.093 C 1.765 2.103 1.775 2.103 1.945 2.103 C 2.115 2.103 2.125 2.103 2.145 2.093 C 2.155 2.083 2.165 2.073 2.175 2.063 C 2.185 2.043 2.185 2.033 2.185 1.823 C 2.185 1.523 2.205 1.543 1.935 1.543 C 1.755 1.543 1.755 1.543 1.735 1.553 L 1.726 1.562 Z M 2.015 1.833 L 2.015 1.933 L 1.945 1.933 L 1.875 1.933 L 1.875 1.833 L 1.875 1.733 L 1.945 1.733 L 2.015 1.733 L 2.015 1.833 Z" transform="matrix(132.067764, 0, 0, 132.067764, -526.589966, -188.668701)"></path>
			<path d="M 0.525 2.214 C 0.52 2.225 0.513 2.232 0.513 2.245 C 0.507 2.266 0.504 2.265 0.504 2.475 C 0.504 2.685 0.504 2.695 0.514 2.715 C 0.524 2.725 0.534 2.745 0.544 2.745 C 0.564 2.755 0.574 2.755 0.744 2.755 C 0.914 2.755 0.924 2.755 0.944 2.745 C 0.954 2.735 0.964 2.725 0.974 2.715 C 0.984 2.695 0.984 2.685 0.984 2.475 C 0.984 2.175 1.004 2.195 0.734 2.195 C 0.554 2.195 0.554 2.195 0.534 2.205 L 0.525 2.214 Z M 0.814 2.485 L 0.814 2.585 L 0.744 2.585 L 0.674 2.585 L 0.674 2.485 L 0.674 2.385 L 0.744 2.385 L 0.814 2.385 L 0.814 2.485 Z" transform="matrix(132.067764, 0, 0, 132.067764, -526.589966, -188.668701)"></path>
			<path d="M 1.133 2.214 C 1.128 2.225 1.121 2.232 1.121 2.245 C 1.115 2.266 1.112 2.265 1.112 2.475 C 1.112 2.685 1.112 2.695 1.122 2.715 C 1.132 2.725 1.142 2.745 1.152 2.745 C 1.172 2.755 1.182 2.755 1.352 2.755 C 1.522 2.755 1.532 2.755 1.552 2.745 C 1.562 2.735 1.572 2.725 1.582 2.715 C 1.592 2.695 1.592 2.685 1.592 2.475 C 1.592 2.175 1.612 2.195 1.342 2.195 C 1.162 2.195 1.162 2.195 1.142 2.205 L 1.133 2.214 Z M 1.422 2.485 L 1.422 2.585 L 1.352 2.585 L 1.282 2.585 L 1.282 2.485 L 1.282 2.385 L 1.352 2.385 L 1.422 2.385 L 1.422 2.485 Z" transform="matrix(132.067764, 0, 0, 132.067764, -526.589966, -188.668701)"></path>
			<path d="M 1.737 2.205 C 1.732 2.216 1.725 2.223 1.725 2.236 C 1.719 2.257 1.716 2.256 1.716 2.466 C 1.716 2.676 1.716 2.686 1.726 2.706 C 1.736 2.716 1.746 2.736 1.756 2.736 C 1.776 2.746 1.786 2.746 1.956 2.746 C 2.126 2.746 2.136 2.746 2.156 2.736 C 2.166 2.726 2.176 2.716 2.186 2.706 C 2.196 2.686 2.196 2.676 2.196 2.466 C 2.196 2.166 2.216 2.186 1.946 2.186 C 1.766 2.186 1.766 2.186 1.746 2.196 L 1.737 2.205 Z M 2.026 2.476 L 2.026 2.576 L 1.956 2.576 L 1.886 2.576 L 1.886 2.476 L 1.886 2.376 L 1.956 2.376 L 2.026 2.376 L 2.026 2.476 Z" transform="matrix(132.067764, 0, 0, 132.067764, -526.589966, -188.668701)"></path>
		</symbol>

		<!-- ring-->
		<symbol id="ring" viewBox="-19.296 -15.627 10.416 10.434">
  			<path d="M 1.267 0.21 C 1.257 0.199 1.245 0.194 1.232 0.194 C 1.219 0.194 1.206 0.199 1.196 0.21 L 1.163 0.242 C 1.16 0.241 1.158 0.239 1.155 0.238 C 1.15 0.236 1.147 0.235 1.144 0.233 C 1.114 0.213 1.085 0.188 1.058 0.155 C 1.045 0.138 1.035 0.124 1.029 0.111 C 1.038 0.103 1.046 0.095 1.053 0.086 C 1.057 0.083 1.06 0.08 1.062 0.078 C 1.084 0.056 1.084 0.027 1.062 0.005 L 1.033 -0.023 C 1.03 -0.026 1.027 -0.03 1.024 -0.033 C 1.018 -0.039 1.011 -0.046 1.004 -0.052 C 0.993 -0.062 0.982 -0.068 0.969 -0.068 C 0.956 -0.068 0.944 -0.062 0.933 -0.052 L 0.897 -0.016 C 0.884 -0.002 0.876 0.014 0.874 0.033 C 0.872 0.063 0.881 0.092 0.888 0.111 C 0.905 0.156 0.93 0.199 0.968 0.244 C 1.013 0.299 1.069 0.343 1.132 0.373 C 1.157 0.385 1.188 0.398 1.224 0.4 C 1.226 0.4 1.228 0.4 1.231 0.4 C 1.255 0.4 1.275 0.392 1.291 0.374 C 1.296 0.368 1.302 0.361 1.309 0.355 C 1.313 0.351 1.318 0.347 1.322 0.341 C 1.333 0.331 1.338 0.318 1.338 0.306 C 1.338 0.293 1.333 0.28 1.322 0.27 L 1.27 0.213 L 1.267 0.21 Z M 1.305 0.32 C 1.301 0.325 1.297 0.329 1.293 0.333 C 1.286 0.339 1.279 0.347 1.273 0.354 C 1.262 0.366 1.249 0.371 1.234 0.371 C 1.233 0.371 1.231 0.371 1.228 0.371 C 1.198 0.369 1.168 0.357 1.147 0.347 C 1.088 0.318 1.035 0.277 0.992 0.225 C 0.956 0.182 0.933 0.142 0.917 0.1 C 0.908 0.074 0.904 0.054 0.906 0.035 C 0.907 0.022 0.911 0.013 0.921 0.004 L 0.956 -0.032 C 0.962 -0.037 0.967 -0.039 0.972 -0.039 C 0.979 -0.039 0.984 -0.035 0.987 -0.032 C 0.993 -0.025 1 -0.019 1.006 -0.013 C 1.009 -0.01 1.012 -0.006 1.015 -0.002 L 1.044 0.026 C 1.056 0.038 1.056 0.047 1.044 0.059 C 1.041 0.062 1.038 0.065 1.034 0.068 C 1.026 0.078 1.018 0.085 1.008 0.094 C 0.999 0.103 1.001 0.112 1.003 0.118 L 1.003 0.119 C 1.01 0.137 1.021 0.154 1.037 0.174 C 1.065 0.21 1.096 0.237 1.129 0.258 C 1.134 0.261 1.138 0.263 1.142 0.266 C 1.146 0.268 1.149 0.269 1.151 0.27 C 1.154 0.272 1.161 0.274 1.164 0.274 C 1.173 0.274 1.178 0.269 1.18 0.267 L 1.216 0.231 C 1.219 0.228 1.225 0.223 1.232 0.223 C 1.238 0.223 1.243 0.228 1.246 0.231 L 1.304 0.289 C 1.315 0.299 1.315 0.311 1.304 0.321 L 1.305 0.32 Z" data-original="#000000" transform="matrix(20.945663, 0, 0, 20.945663, -37.596535, -13.571422)"></path>
			<path d="M 1.144 0.021 C 1.171 0.025 1.197 0.039 1.216 0.059 C 1.236 0.079 1.248 0.103 1.254 0.132 C 1.255 0.139 1.261 0.143 1.267 0.143 C 1.268 0.143 1.268 0.143 1.27 0.143 C 1.277 0.142 1.282 0.135 1.281 0.127 C 1.276 0.095 1.26 0.064 1.236 0.04 C 1.212 0.016 1.182 0 1.148 -0.005 C 1.141 -0.006 1.134 -0.001 1.132 0.006 C 1.131 0.014 1.136 0.021 1.144 0.022 L 1.144 0.021 Z" data-original="#000000" transform="matrix(20.945663, 0, 0, 20.945663, -37.596535, -13.571422)"></path>
			<path d="M 1.371 0.121 C 1.361 0.066 1.336 0.017 1.296 -0.023 C 1.256 -0.063 1.206 -0.089 1.151 -0.098 C 1.144 -0.099 1.137 -0.094 1.136 -0.087 C 1.135 -0.079 1.14 -0.072 1.147 -0.071 C 1.196 -0.062 1.24 -0.039 1.276 -0.004 C 1.312 0.032 1.334 0.076 1.342 0.124 C 1.343 0.132 1.35 0.136 1.356 0.136 C 1.357 0.136 1.357 0.136 1.358 0.136 C 1.365 0.135 1.371 0.127 1.37 0.12 L 1.371 0.121 Z" data-original="#000000" transform="matrix(20.945663, 0, 0, 20.945663, -37.596535, -13.571422)"></path>
		</symbol>

		<!-- search -->
		<symbol id="search" viewBox="0 0 17366 17366">
  			<path d="M17153 16132l-4175 -4175c1035,-1261 1659,-2878 1659,-4639 0,-4040 -3278,-7318 -7318,-7318 -4044,0 -7318,3278 -7318,7318 0,4040 3275,7318 7318,7318 1761,0 3374,-620 4636,-1655l4175 4171c283,284 741,284 1024,0 284,-280 284,-741 0,-1021zm-9835 -2952c-3236,0 -5865,-2629 -5865,-5862 0,-3232 2630,-5865 5865,-5865 3232,0 5865,2633 5865,5865 0,3232 -2633,5862 -5865,5862z"/>
		</symbol>

<!-- ===== 8. CALCULATOR SECTION ===== -->

		<!-- check -->
		<symbol id="check" viewBox="0 0 1.42 1.05">
  			<path class="fil0" d="M1.4 0.02c0.03,0.02 0.03,0.08 0.01,0.11l-0.8 0.89c-0.03,0.03 -0.08,0.03 -0.11,0l-0.46 -0.44c-0.03,-0.02 -0.03,-0.07 -0.01,-0.1 0.02,-0.03 0.08,-0.03 0.11,-0.01l0.36 0.33c0.03,0.02 0.08,0.02 0.11,0l0.69 -0.77c0.02,-0.03 0.08,-0.03 0.1,-0.01l0 0z"/>
		</symbol>


<!-- ===== 16. FAQ SECTION ===== -->

		<!-- quotes -->
		<symbol id="quotes" viewBox="0.018 0 0.645 0.53">
  			<path d="M 0 0.12 C 0 0.08 0.01 0.05 0.04 0.03 C 0.07 0.01 0.1 0 0.14 0 C 0.19 0 0.23 0.02 0.26 0.05 C 0.29 0.08 0.31 0.13 0.31 0.19 C 0.31 0.25 0.3 0.3 0.29 0.34 C 0.278 0.384 0.253 0.421 0.23 0.45 C 0.207 0.479 0.183 0.501 0.16 0.519 C 0.13 0.539 0.11 0.55 0.09 0.56 L 0.03 0.47 C 0.07 0.45 0.1 0.42 0.12 0.39 C 0.14 0.36 0.15 0.32 0.15 0.27 C 0.14 0.27 0.13 0.27 0.12 0.27 C 0.09 0.27 0.066 0.26 0.037 0.233 C 0.018 0.212 0 0.18 0 0.14 L 0 0.12 Z" transform="matrix(0.946452, 0, 0, 0.946452, 0.01826, 0)"></path>
  			<path d="M 0.372 0.12 C 0.372 0.08 0.382 0.05 0.412 0.03 C 0.442 0.01 0.472 0 0.512 0 C 0.562 0 0.602 0.02 0.632 0.05 C 0.662 0.08 0.682 0.13 0.682 0.19 C 0.682 0.25 0.672 0.3 0.662 0.34 C 0.65 0.384 0.625 0.421 0.602 0.45 C 0.579 0.479 0.555 0.501 0.532 0.519 C 0.502 0.539 0.482 0.55 0.462 0.56 L 0.402 0.47 C 0.442 0.45 0.472 0.42 0.492 0.39 C 0.512 0.36 0.522 0.32 0.522 0.27 C 0.512 0.27 0.502 0.27 0.492 0.27 C 0.462 0.27 0.438 0.26 0.409 0.233 C 0.39 0.212 0.372 0.18 0.372 0.14 L 0.372 0.12 Z" transform="matrix(0.946452, 0, 0, 0.946452, 0.01826, 0)"></path>
		</symbol>






</svg>